<?xml version="1.0" standalone="no"?>
<!DOCTYPE svg PUBLIC "-//W3C//DTD SVG 1.1//EN" "http://www.w3.org/Graphics/SVG/1.1/DTD/svg11.dtd" >
<svg>
<metadata>
Created by FontForge 20110222 at Mon Mar 30 07:29:17 2015
 By deploy user
Copyright (c) 2010 by Urtd. All rights reserved.
</metadata>
<defs>
<font id="IONA-Medium" horiz-adv-x="520" >
  <font-face 
    font-family="IONA-Medium"
    font-weight="400"
    font-stretch="normal"
    units-per-em="1000"
    panose-1="2 0 5 6 0 0 0 2 0 2"
    ascent="1000"
    descent="0"
    x-height="764"
    cap-height="830"
    bbox="-20 -120 980 950"
    underline-thickness="50"
    underline-position="-50"
    unicode-range="U+0020-277F"
  />
<missing-glyph 
d="M360 739h-200l-48 46q47 45 113 45h70q66 0 113 -45zM414 422l-47 43v267l48 46q45 -45 45 -113v-128q0 -67 -46 -115zM162 461h196l50 -46l-50 -46h-196l-50 46zM153 465l-47 -43q-46 48 -46 115v128q0 68 45 113l48 -46v-267zM160 91h200l48 -46q-47 -45 -113 -45h-70
q-66 0 -113 45zM367 365l47 43q46 -48 46 -115v-128q0 -68 -45 -113l-48 46v267zM106 408l47 -43v-267l-48 -46q-45 45 -45 113v128q0 67 46 115zM303 471h-86v258h86v-258zM217 359h86v-258h-86v258z" />
    <glyph glyph-name=".notdef" 
d="M360 739h-200l-48 46q47 45 113 45h70q66 0 113 -45zM414 422l-47 43v267l48 46q45 -45 45 -113v-128q0 -67 -46 -115zM162 461h196l50 -46l-50 -46h-196l-50 46zM153 465l-47 -43q-46 48 -46 115v128q0 68 45 113l48 -46v-267zM160 91h200l48 -46q-47 -45 -113 -45h-70
q-66 0 -113 45zM367 365l47 43q46 -48 46 -115v-128q0 -68 -45 -113l-48 46v267zM106 408l47 -43v-267l-48 -46q-45 45 -45 113v128q0 67 46 115zM303 471h-86v258h86v-258zM217 359h86v-258h-86v258z" />
    <glyph glyph-name=".null" horiz-adv-x="0" 
 />
    <glyph glyph-name="nonmarkingreturn" horiz-adv-x="333" 
 />
    <glyph glyph-name="space" unicode=" " 
 />
    <glyph glyph-name="exclam" unicode="!" 
d="M202 58q0 23 17 40t41 17t41 -17t17 -40q0 -24 -17 -41t-41 -17t-41 17t-17 41zM303 287h-86v512h86v-512z" />
    <glyph glyph-name="quotedbl" unicode="&#x22;" 
d="M160 449l-43 28v287h86v-287zM360 449l-43 28v287h86v-287z" />
    <glyph glyph-name="numbersign" unicode="#" 
d="M265 83l21 124h-124l-25 -144h-77v20l79 455h-78v85h92l25 141h77v-20l-21 -121h124l25 141h77v-20l-79 -452h78v-85h-92l-25 -144h-77v20zM219 538l-43 -246h125l42 246h-124z" />
    <glyph glyph-name="dollar" unicode="$" 
d="M216 -10h88v-65h-88v65zM216 905h88v-65h-88v65zM160 91h200l48 -46q-47 -45 -113 -45h-70q-66 0 -113 45zM360 739h-200l-48 46q47 45 113 45h70q66 0 113 -45zM162 461h196l50 -46l-50 -46h-196l-50 46zM153 465l-47 -43q-46 48 -46 115v128q0 68 45 113l48 -46v-267z
M367 365l47 43q46 -48 46 -115v-128q0 -68 -45 -113l-48 46v267z" />
    <glyph glyph-name="percent" unicode="%" 
d="M240 150q0 -28 21 -49t49 -21t49 21t21 49t-21 49t-49 21t-49 -21t-21 -49zM60 680q0 62 44 106t106 44t106 -44t44 -106t-44 -106t-106 -44t-106 44t-44 106zM60 296l296 259h104v-20l-296 -259h-104v20zM140 680q0 -28 21 -49t49 -21t49 21t21 49t-21 49t-49 21
t-49 -21t-21 -49zM160 150q0 62 44 106t106 44t106 -44t44 -106t-44 -106t-106 -44t-106 44t-44 106z" />
    <glyph glyph-name="ampersand" unicode="&#x26;" 
d="M211 91h98q24 0 41 17t17 40v217l47 43q46 -48 46 -115v-128q0 -68 -48.5 -116.5t-116.5 -48.5h-70q-68 0 -116.5 48.5t-48.5 116.5v128q0 67 46 115l47 -43v-217q0 -23 17 -40t41 -17zM408 785l-48 -46h-149q-24 0 -41 -17t-17 -40v-217l-47 -43q-46 48 -46 115v128
q0 68 48.5 116.5t116.5 48.5h70q66 0 113 -45zM162 369l-50 46l50 46h196l50 -46l-50 -46h-196zM510 461v-92h-57l-30 46l30 46h57z" />
    <glyph glyph-name="quotesingle" unicode="'" 
d="M260 449l-43 28v287h86v-287z" />
    <glyph glyph-name="parenleft" unicode="(" 
d="M382 830v-91h-74q-24 0 -41 -17t-17 -40v-217l-47 -43q-46 48 -46 115v128q0 68 48.5 116.5t116.5 48.5h60zM382 0h-60q-68 0 -116.5 48.5t-48.5 116.5v128q0 67 46 115l47 -43v-217q0 -23 17 -40t41 -17h74v-91z" />
    <glyph glyph-name="parenright" unicode=")" 
d="M138 739v91h60q68 0 116.5 -48.5t48.5 -116.5v-128q0 -67 -46 -115l-47 43v217q0 23 -17 40t-41 17h-74zM198 0h-60v91h74q24 0 41 17t17 40v217l47 43q46 -48 46 -115v-128q0 -68 -48.5 -116.5t-116.5 -48.5z" />
    <glyph glyph-name="asterisk" unicode="*" 
d="M456 370h-96l-69 13h-62l-69 -13h-96v90h96l69 -13h62l69 13h96v-90zM297 542h-74l-4 24v65h82v-65zM286 451h-52l-10 87h72zM360 464l-70 -13l15 70l98 98l56 -56zM230 451l-70 13l-99 99l56 56l98 -98zM301 199h-82v65l4 24h74l4 -24v-65zM296 292h-72l10 87h52z
M403 211l-98 98l-15 70l70 -13l99 -99zM215 309l-98 -98l-56 56l99 99l70 13z" />
    <glyph glyph-name="plus" unicode="+" 
d="M456 370h-96l-69 13h-62l-69 -13h-96v90h96l69 -13h62l69 13h96v-90zM297 542h-74l-4 24v65h82v-65zM286 451h-52l-10 87h72zM301 199h-82v65l4 24h74l4 -24v-65zM296 292h-72l10 87h52z" />
    <glyph glyph-name="comma" unicode="," 
d="M259 -75h-43v224h88v-111q0 -68 -45 -113z" />
    <glyph glyph-name="hyphen" unicode="-" 
d="M162 461h196l50 -46l-50 -46h-196l-50 46z" />
    <glyph glyph-name="period" unicode="." 
d="M202 58q0 23 17 40t41 17t41 -17t17 -40q0 -24 -17 -41t-41 -17t-41 17t-17 41z" />
    <glyph glyph-name="slash" unicode="/" 
d="M126 86l188 678h80v-20l-188 -678h-80v20z" />
    <glyph glyph-name="zero" unicode="0" 
d="M367 365l47 43q46 -48 46 -115v-128q0 -68 -45 -113l-48 46v267zM360 739h-200l-48 46q47 45 113 45h70q66 0 113 -45zM414 422l-47 43v267l48 46q45 -45 45 -113v-128q0 -67 -46 -115zM153 465l-47 -43q-46 48 -46 115v128q0 68 45 113l48 -46v-267zM160 91h200l48 -46
q-47 -45 -113 -45h-70q-66 0 -113 45zM106 408l47 -43v-267l-48 -46q-45 45 -45 113v128q0 67 46 115z" />
    <glyph glyph-name="one" unicode="1" 
d="M414 422l-47 43v267l48 46q45 -45 45 -113v-128q0 -67 -46 -115zM367 365l47 43q46 -48 46 -115v-128q0 -68 -45 -113l-48 46v267z" />
    <glyph glyph-name="two" unicode="2" 
d="M106 408l47 -43v-267l-48 -46q-45 45 -45 113v128q0 67 46 115zM360 739h-200l-48 46q47 45 113 45h70q66 0 113 -45zM414 422l-47 43v267l48 46q45 -45 45 -113v-128q0 -67 -46 -115zM162 461h196l50 -46l-50 -46h-196l-50 46zM160 91h200l48 -46q-47 -45 -113 -45h-70
q-66 0 -113 45z" />
    <glyph glyph-name="three" unicode="3" 
d="M360 739h-200l-48 46q47 45 113 45h70q66 0 113 -45zM414 422l-47 43v267l48 46q45 -45 45 -113v-128q0 -67 -46 -115zM162 461h196l50 -46l-50 -46h-196l-50 46zM160 91h200l48 -46q-47 -45 -113 -45h-70q-66 0 -113 45zM367 365l47 43q46 -48 46 -115v-128
q0 -68 -45 -113l-48 46v267z" />
    <glyph glyph-name="four" unicode="4" 
d="M414 422l-47 43v267l48 46q45 -45 45 -113v-128q0 -67 -46 -115zM162 461h196l50 -46l-50 -46h-196l-50 46zM153 465l-47 -43q-46 48 -46 115v128q0 68 45 113l48 -46v-267zM367 365l47 43q46 -48 46 -115v-128q0 -68 -45 -113l-48 46v267z" />
    <glyph glyph-name="five" unicode="5" 
d="M367 365l47 43q46 -48 46 -115v-128q0 -68 -45 -113l-48 46v267zM360 739h-200l-48 46q47 45 113 45h70q66 0 113 -45zM162 461h196l50 -46l-50 -46h-196l-50 46zM153 465l-47 -43q-46 48 -46 115v128q0 68 45 113l48 -46v-267zM160 91h200l48 -46q-47 -45 -113 -45h-70
q-66 0 -113 45z" />
    <glyph glyph-name="six" unicode="6" 
d="M153 465l-47 -43q-46 48 -46 115v128q0 68 45 113l48 -46v-267zM360 739h-200l-48 46q47 45 113 45h70q66 0 113 -45zM162 461h196l50 -46l-50 -46h-196l-50 46zM160 91h200l48 -46q-47 -45 -113 -45h-70q-66 0 -113 45zM367 365l47 43q46 -48 46 -115v-128
q0 -68 -45 -113l-48 46v267zM106 408l47 -43v-267l-48 -46q-45 45 -45 113v128q0 67 46 115z" />
    <glyph glyph-name="seven" unicode="7" 
d="M360 739h-200l-48 46q47 45 113 45h70q66 0 113 -45zM414 422l-47 43v267l48 46q45 -45 45 -113v-128q0 -67 -46 -115zM153 465l-47 -43q-46 48 -46 115v128q0 68 45 113l48 -46v-267zM367 365l47 43q46 -48 46 -115v-128q0 -68 -45 -113l-48 46v267z" />
    <glyph glyph-name="eight" unicode="8" 
d="M360 739h-200l-48 46q47 45 113 45h70q66 0 113 -45zM414 422l-47 43v267l48 46q45 -45 45 -113v-128q0 -67 -46 -115zM162 461h196l50 -46l-50 -46h-196l-50 46zM153 465l-47 -43q-46 48 -46 115v128q0 68 45 113l48 -46v-267zM160 91h200l48 -46q-47 -45 -113 -45h-70
q-66 0 -113 45zM367 365l47 43q46 -48 46 -115v-128q0 -68 -45 -113l-48 46v267zM106 408l47 -43v-267l-48 -46q-45 45 -45 113v128q0 67 46 115z" />
    <glyph glyph-name="nine" unicode="9" 
d="M360 739h-200l-48 46q47 45 113 45h70q66 0 113 -45zM414 422l-47 43v267l48 46q45 -45 45 -113v-128q0 -67 -46 -115zM162 461h196l50 -46l-50 -46h-196l-50 46zM153 465l-47 -43q-46 48 -46 115v128q0 68 45 113l48 -46v-267zM367 365l47 43q46 -48 46 -115v-128
q0 -68 -45 -113l-48 46v267zM160 91h200l48 -46q-47 -45 -113 -45h-70q-66 0 -113 45z" />
    <glyph glyph-name="colon" unicode=":" 
d="M202 207q0 23 17 40t41 17t41 -17t17 -40q0 -24 -17 -41t-41 -17t-41 17t-17 41zM202 623q0 23 17 40t41 17t41 -17t17 -40q0 -24 -17 -41t-41 -17t-41 17t-17 41z" />
    <glyph glyph-name="semicolon" unicode=";" 
d="M202 433q0 23 17 40t41 17t41 -17t17 -40q0 -24 -17 -41t-41 -17t-41 17t-17 41zM259 -75h-43v224h88v-111q0 -68 -45 -113z" />
    <glyph glyph-name="less" unicode="&#x3c;" 
d="M360 464l-70 -13l15 70l98 98l56 -56zM403 211l-98 98l-15 70l70 -13l99 -99z" />
    <glyph glyph-name="equal" unicode="=" 
d="M64 207v79h392v-79h-392zM64 544v79h392v-79h-392z" />
    <glyph glyph-name="greater" unicode="&#x3e;" 
d="M230 451l-70 13l-99 99l56 56l98 -98zM215 309l-98 -98l-56 56l99 99l70 13z" />
    <glyph glyph-name="question" unicode="?" 
d="M202 58q0 23 17 40t41 17t41 -17t17 -40q0 -24 -17 -41t-41 -17t-41 17t-17 41zM360 739h-200l-48 46q47 45 113 45h70q66 0 113 -45zM414 422l-47 43v267l48 46q45 -45 45 -113v-128q0 -67 -46 -115zM162 461h196l50 -46l-50 -46h-196l-50 46z" />
    <glyph glyph-name="at" unicode="@" 
d="M408 45q-47 -45 -113 -45h-70q-68 0 -116.5 48.5t-48.5 116.5v128q0 67 46 115l47 -43v-217q0 -23 17 -40t41 -17h149zM226 830v-108h-15q-24 0 -41 -17t-17 -41v-199l-47 -43q-46 48 -46 115v128q0 68 48.5 116.5t116.5 48.5h1zM236 500v330h59q68 0 116.5 -48.5
t48.5 -116.5v-165q0 -46 -33 -79t-79 -33t-79 33t-33 79zM378 500v177q0 24 -17 41t-40 17h-3v-235q0 -13 8.5 -21.5t21.5 -8.5t21.5 8.5t8.5 21.5z" />
    <glyph glyph-name="A" unicode="A" 
d="M367 365l47 43q46 -48 46 -115v-128q0 -68 -45 -113l-48 46v267zM106 408l47 -43v-267l-48 -46q-45 45 -45 113v128q0 67 46 115zM255 830v-62l-102 -303l-47 -43q-38 60 -15 132l90 276h74zM162 461h196l50 -46l-50 -46h-196l-50 46zM339 830l90 -276q23 -72 -15 -132
l-47 43l-102 303v62h74z" />
    <glyph glyph-name="B" unicode="B" 
d="M360 739h-200l-48 46q47 45 113 45h70q66 0 113 -45zM414 422l-47 43v267l48 46q45 -45 45 -113v-128q0 -67 -46 -115zM162 461h196l50 -46l-50 -46h-196l-50 46zM153 465l-47 -43q-46 48 -46 115v128q0 68 45 113l48 -46v-267zM160 91h200l48 -46q-47 -45 -113 -45h-70
q-66 0 -113 45zM367 365l47 43q46 -48 46 -115v-128q0 -68 -45 -113l-48 46v267zM106 408l47 -43v-267l-48 -46q-45 45 -45 113v128q0 67 46 115zM60 830h112q-57 -20 -91 -68h-21v68zM60 0v68h21q34 -48 91 -68h-112z" />
    <glyph glyph-name="C" unicode="C" 
d="M160 91h200l48 -46q-47 -45 -113 -45h-70q-66 0 -113 45zM360 739h-200l-48 46q47 45 113 45h70q66 0 113 -45zM153 465l-47 -43q-46 48 -46 115v128q0 68 45 113l48 -46v-267zM106 408l47 -43v-267l-48 -46q-45 45 -45 113v128q0 67 46 115z" />
    <glyph glyph-name="D" unicode="D" 
d="M153 465l-47 -43q-46 48 -46 115v128q0 68 45 113l48 -46v-267zM360 739h-200l-48 46q47 45 113 45h70q66 0 113 -45zM414 422l-47 43v267l48 46q45 -45 45 -113v-128q0 -67 -46 -115zM160 91h200l48 -46q-47 -45 -113 -45h-70q-66 0 -113 45zM367 365l47 43
q46 -48 46 -115v-128q0 -68 -45 -113l-48 46v267zM106 408l47 -43v-267l-48 -46q-45 45 -45 113v128q0 67 46 115zM60 830h112q-57 -20 -91 -68h-21v68zM60 0v68h21q34 -48 91 -68h-112z" />
    <glyph glyph-name="E" unicode="E" 
d="M160 91h200l48 -46q-47 -45 -113 -45h-70q-66 0 -113 45zM360 739h-200l-48 46q47 45 113 45h70q66 0 113 -45zM153 465l-47 -43q-46 48 -46 115v128q0 68 45 113l48 -46v-267zM106 408l47 -43v-267l-48 -46q-45 45 -45 113v128q0 67 46 115zM162 461h196l50 -46l-50 -46
h-196l-50 46z" />
    <glyph glyph-name="F" unicode="F" 
d="M106 408l47 -43v-267l-48 -46q-45 45 -45 113v128q0 67 46 115zM360 739h-200l-48 46q47 45 113 45h70q66 0 113 -45zM162 461h196l50 -46l-50 -46h-196l-50 46zM153 465l-47 -43q-46 48 -46 115v128q0 68 45 113l48 -46v-267z" />
    <glyph glyph-name="G" unicode="G" 
d="M360 739h-200l-48 46q47 45 113 45h70q66 0 113 -45zM153 465l-47 -43q-46 48 -46 115v128q0 68 45 113l48 -46v-267zM160 91h200l48 -46q-47 -45 -113 -45h-70q-66 0 -113 45zM367 365l47 43q46 -48 46 -115v-128q0 -68 -45 -113l-48 46v267zM106 408l47 -43v-267
l-48 -46q-45 45 -45 113v128q0 67 46 115z" />
    <glyph glyph-name="H" unicode="H" 
d="M414 422l-47 43v267l48 46q45 -45 45 -113v-128q0 -67 -46 -115zM162 461h196l50 -46l-50 -46h-196l-50 46zM153 465l-47 -43q-46 48 -46 115v128q0 68 45 113l48 -46v-267zM367 365l47 43q46 -48 46 -115v-128q0 -68 -45 -113l-48 46v267zM106 408l47 -43v-267l-48 -46
q-45 45 -45 113v128q0 67 46 115z" />
    <glyph glyph-name="I" unicode="I" 
d="M360 739h-200l-48 46q47 45 113 45h70q66 0 113 -45zM260 441l-43 27v261h86v-261zM217 362l43 27l43 -27v-261h-86v261zM160 91h200l48 -46q-47 -45 -113 -45h-70q-66 0 -113 45z" />
    <glyph glyph-name="J" unicode="J" 
d="M414 422l-47 43v267l48 46q45 -45 45 -113v-128q0 -67 -46 -115zM160 91h200l48 -46q-47 -45 -113 -45h-70q-66 0 -113 45zM367 365l47 43q46 -48 46 -115v-128q0 -68 -45 -113l-48 46v267zM106 408l47 -43v-267l-48 -46q-45 45 -45 113v128q0 67 46 115z" />
    <glyph glyph-name="K" unicode="K" 
d="M106 408l47 -43v-267l-48 -46q-45 45 -45 113v128q0 67 46 115zM153 465l-47 -43q-46 48 -46 115v128q0 68 45 113l48 -46v-267zM394 744l-146 -273h-85v23l146 270h85v-20zM162 461h196l50 -46l-50 -46h-196l-50 46zM367 365l47 43q46 -48 46 -115v-128q0 -68 -45 -113
l-48 46v267z" />
    <glyph glyph-name="L" unicode="L" 
d="M160 91h200l48 -46q-47 -45 -113 -45h-70q-66 0 -113 45zM153 465l-47 -43q-46 48 -46 115v128q0 68 45 113l48 -46v-267zM106 408l47 -43v-267l-48 -46q-45 45 -45 113v128q0 67 46 115z" />
    <glyph glyph-name="M" unicode="M" 
d="M106 408l47 -43v-267l-48 -46q-45 45 -45 113v128q0 67 46 115zM414 422l-47 43v165l48 148q45 -45 45 -113v-128q0 -67 -46 -115zM153 465l-47 -43q-46 48 -46 115v128q0 68 45 113l48 -148v-165zM367 365l47 43q46 -48 46 -115v-128q0 -68 -45 -113l-48 46v267z
M265 420v186l73 217q41 -10 69 -37l-121 -366h-21zM255 420h-21l-121 366q28 27 69 37l73 -217v-186z" />
    <glyph glyph-name="N" unicode="N" 
d="M414 422l-47 43v267l48 46q45 -45 45 -113v-128q0 -67 -46 -115zM106 408l47 -43v-267l-48 -46q-45 45 -45 113v128q0 67 46 115zM153 465l-47 -43q-46 48 -46 115v128q0 68 45 113l48 -148v-165zM255 420h-21l-121 366q28 27 69 37l73 -217v-186zM367 365l47 43
q46 -48 46 -115v-128q0 -68 -45 -113l-48 148v165zM265 410h21l121 -366q-28 -27 -69 -37l-73 217v186z" />
    <glyph glyph-name="O" unicode="O" 
d="M360 739h-200l-48 46q47 45 113 45h70q66 0 113 -45zM414 422l-47 43v267l48 46q45 -45 45 -113v-128q0 -67 -46 -115zM153 465l-47 -43q-46 48 -46 115v128q0 68 45 113l48 -46v-267zM367 365l47 43q46 -48 46 -115v-128q0 -68 -45 -113l-48 46v267zM106 408l47 -43
v-267l-48 -46q-45 45 -45 113v128q0 67 46 115zM160 91h200l48 -46q-47 -45 -113 -45h-70q-66 0 -113 45z" />
    <glyph glyph-name="P" unicode="P" 
d="M106 408l47 -43v-267l-48 -46q-45 45 -45 113v128q0 67 46 115zM360 739h-200l-48 46q47 45 113 45h70q66 0 113 -45zM414 422l-47 43v267l48 46q45 -45 45 -113v-128q0 -67 -46 -115zM162 461h196l50 -46l-50 -46h-196l-50 46zM153 465l-47 -43q-46 48 -46 115v128
q0 68 45 113l48 -46v-267z" />
    <glyph glyph-name="Q" unicode="Q" 
d="M106 408l47 -43v-267l-48 -46q-45 45 -45 113v128q0 67 46 115zM360 739h-200l-48 46q47 45 113 45h70q66 0 113 -45zM414 422l-47 43v267l48 46q45 -45 45 -113v-128q0 -67 -46 -115zM153 465l-47 -43q-46 48 -46 115v128q0 68 45 113l48 -46v-267zM160 91h200l48 -46
q-47 -45 -113 -45h-70q-66 0 -113 45zM367 365l47 43q46 -48 46 -115v-128q0 -68 -45 -113l-48 46v267zM321 -73v63h57l82 -82v-28h-57q-25 0 -35.5 4.5t-25.5 20.5z" />
    <glyph glyph-name="R" unicode="R" 
d="M414 422l-47 43v267l48 46q45 -45 45 -113v-128q0 -67 -46 -115zM360 739h-200l-48 46q47 45 113 45h70q66 0 113 -45zM162 461h196l50 -46l-50 -46h-196l-50 46zM153 465l-47 -43q-46 48 -46 115v128q0 68 45 113l48 -46v-267zM106 408l47 -43v-267l-48 -46
q-45 45 -45 113v128q0 67 46 115zM394 86v-20h-86l-145 270v23h86z" />
    <glyph glyph-name="S" unicode="S" 
d="M160 91h200l48 -46q-47 -45 -113 -45h-70q-66 0 -113 45zM360 739h-200l-48 46q47 45 113 45h70q66 0 113 -45zM162 461h196l50 -46l-50 -46h-196l-50 46zM153 465l-47 -43q-46 48 -46 115v128q0 68 45 113l48 -46v-267zM367 365l47 43q46 -48 46 -115v-128
q0 -68 -45 -113l-48 46v267z" />
    <glyph glyph-name="T" unicode="T" 
d="M360 739h-200l-48 46q47 45 113 45h70q66 0 113 -45zM414 422l-47 43v267l48 46q45 -45 45 -113v-128q0 -67 -46 -115zM153 465l-47 -43q-46 48 -46 115v128q0 68 45 113l48 -46v-267zM260 441l-43 27v261h86v-261zM217 362l43 27l43 -27v-296h-86v296z" />
    <glyph glyph-name="U" unicode="U" 
d="M160 91h200l48 -46q-47 -45 -113 -45h-70q-66 0 -113 45zM414 422l-47 43v267l48 46q45 -45 45 -113v-128q0 -67 -46 -115zM153 465l-47 -43q-46 48 -46 115v128q0 68 45 113l48 -46v-267zM367 365l47 43q46 -48 46 -115v-128q0 -68 -45 -113l-48 46v267zM106 408l47 -43
v-267l-48 -46q-45 45 -45 113v128q0 67 46 115z" />
    <glyph glyph-name="V" unicode="V" 
d="M181 0l-90 276q-23 72 15 132l47 -43l102 -303v-62h-74zM153 465l-47 -43q-46 48 -46 115v128q0 68 45 113l48 -46v-267zM414 422l-47 43v267l48 46q45 -45 45 -113v-128q0 -67 -46 -115zM339 0h-74v62l102 303l47 43q38 -60 15 -132z" />
    <glyph glyph-name="W" unicode="W" 
d="M106 408l47 -43v-165l-48 -148q-45 45 -45 113v128q0 67 46 115zM367 365l47 43q46 -48 46 -115v-128q0 -68 -45 -113l-48 148v165zM153 465l-47 -43q-46 48 -46 115v128q0 68 45 113l48 -46v-267zM414 422l-47 43v267l48 46q45 -45 45 -113v-128q0 -67 -46 -115z
M255 410v-186l-73 -217q-41 10 -69 37l121 366h21zM265 410h21l121 -366q-28 -27 -69 -37l-73 217v186z" />
    <glyph glyph-name="X" unicode="X" 
d="M255 410v-20l-90 -324h-82v20l92 324h80zM255 420h-80l-92 324v20h82l90 -324v-20zM265 420v20l90 324h82v-20l-92 -324h-80zM265 410h80l92 -324v-20h-82l-90 324v20z" />
    <glyph glyph-name="Y" unicode="Y" 
d="M414 422l-47 43v267l48 46q45 -45 45 -113v-128q0 -67 -46 -115zM162 461h196l50 -46l-50 -46h-196l-50 46zM153 465l-47 -43q-46 48 -46 115v128q0 68 45 113l48 -46v-267zM367 365l47 43q46 -48 46 -115v-128q0 -68 -45 -113l-48 46v267zM160 91h200l48 -46
q-47 -45 -113 -45h-70q-66 0 -113 45z" />
    <glyph glyph-name="Z" unicode="Z" 
d="M160 91h200l48 -46q-47 -45 -113 -45h-70q-66 0 -113 45zM360 739h-200l-48 46q47 45 113 45h70q66 0 113 -45zM414 422l-47 43v267l48 46q45 -45 45 -113v-128q0 -67 -46 -115zM162 461h196l50 -46l-50 -46h-196l-50 46zM106 408l47 -43v-267l-48 -46q-45 45 -45 113
v128q0 67 46 115z" />
    <glyph glyph-name="bracketleft" unicode="[" 
d="M382 830v-91h-132v-274l-47 -43q-46 48 -46 115v128q0 68 48.5 116.5t116.5 48.5h60zM382 0h-60q-68 0 -116.5 48.5t-48.5 116.5v128q0 67 46 115l47 -43v-274h132v-91z" />
    <glyph glyph-name="backslash" unicode="\" 
d="M206 764l188 -678v-20h-80l-188 678v20h80z" />
    <glyph glyph-name="bracketright" unicode="]" 
d="M138 739v91h60q68 0 116.5 -48.5t48.5 -116.5v-128q0 -67 -46 -115l-47 43v274h-132zM198 0h-60v91h132v274l47 43q46 -48 46 -115v-128q0 -68 -48.5 -116.5t-116.5 -48.5z" />
    <glyph glyph-name="asciicircum" unicode="^" 
d="M204 830h74v-62l-102 -303l-47 -43q-38 60 -15 132zM362 830l90 -276q23 -72 -15 -132l-47 43l-102 303v62h74z" />
    <glyph glyph-name="underscore" unicode="_" 
d="M160 91h200l48 -46q-47 -45 -113 -45h-70q-66 0 -113 45z" />
    <glyph glyph-name="grave" unicode="`" 
d="M255 840h-57l-82 82v28h57q25 0 35.5 -4.5t25.5 -20.5l21 -22v-63z" />
    <glyph glyph-name="a" unicode="a" 
d="M360 739h-200l-48 46q47 45 113 45h70q66 0 113 -45zM414 422l-47 43v267l48 46q45 -45 45 -113v-128q0 -67 -46 -115zM162 461h196l50 -46l-50 -46h-196l-50 46zM160 91h200l48 -46q-47 -45 -113 -45h-70q-66 0 -113 45zM367 365l47 43q46 -48 46 -115v-128
q0 -68 -45 -113l-48 46v267zM106 408l47 -43v-267l-48 -46q-45 45 -45 113v128q0 67 46 115z" />
    <glyph glyph-name="b" unicode="b" 
d="M162 461h196l50 -46l-50 -46h-196l-50 46zM153 465l-47 -43q-46 48 -46 115v128q0 68 45 113l48 -46v-267zM160 91h200l48 -46q-47 -45 -113 -45h-70q-66 0 -113 45zM367 365l47 43q46 -48 46 -115v-128q0 -68 -45 -113l-48 46v267zM106 408l47 -43v-267l-48 -46
q-45 45 -45 113v128q0 67 46 115z" />
    <glyph glyph-name="c" unicode="c" 
d="M360 739h-200l-48 46q47 45 113 45h70q66 0 113 -45zM153 465l-47 -43q-46 48 -46 115v128q0 68 45 113l48 -46v-267zM160 91h200l48 -46q-47 -45 -113 -45h-70q-66 0 -113 45zM106 408l47 -43v-267l-48 -46q-45 45 -45 113v128q0 67 46 115z" />
    <glyph glyph-name="d" unicode="d" 
d="M414 422l-47 43v267l48 46q45 -45 45 -113v-128q0 -67 -46 -115zM162 461h196l50 -46l-50 -46h-196l-50 46zM160 91h200l48 -46q-47 -45 -113 -45h-70q-66 0 -113 45zM367 365l47 43q46 -48 46 -115v-128q0 -68 -45 -113l-48 46v267zM106 408l47 -43v-267l-48 -46
q-45 45 -45 113v128q0 67 46 115z" />
    <glyph glyph-name="e" unicode="e" 
d="M360 739h-200l-48 46q47 45 113 45h70q66 0 113 -45zM414 422l-47 43v267l48 46q45 -45 45 -113v-128q0 -67 -46 -115zM162 461h196l50 -46l-50 -46h-196l-50 46zM153 465l-47 -43q-46 48 -46 115v128q0 68 45 113l48 -46v-267zM160 91h200l48 -46q-47 -45 -113 -45h-70
q-66 0 -113 45zM106 408l47 -43v-267l-48 -46q-45 45 -45 113v128q0 67 46 115z" />
    <glyph glyph-name="f" unicode="f" 
d="M360 739h-200l-48 46q47 45 113 45h70q66 0 113 -45zM162 461h196l50 -46l-50 -46h-196l-50 46zM153 465l-47 -43q-46 48 -46 115v128q0 68 45 113l48 -46v-267zM106 408l47 -43v-267l-48 -46q-45 45 -45 113v128q0 67 46 115z" />
    <glyph glyph-name="g" unicode="g" 
d="M360 739h-200l-48 46q47 45 113 45h70q66 0 113 -45zM414 422l-47 43v267l48 46q45 -45 45 -113v-128q0 -67 -46 -115zM162 461h196l50 -46l-50 -46h-196l-50 46zM153 465l-47 -43q-46 48 -46 115v128q0 68 45 113l48 -46v-267zM160 91h200l48 -46q-47 -45 -113 -45h-70
q-66 0 -113 45zM367 365l47 43q46 -48 46 -115v-128q0 -68 -45 -113l-48 46v267z" />
    <glyph glyph-name="h" unicode="h" 
d="M162 461h196l50 -46l-50 -46h-196l-50 46zM153 465l-47 -43q-46 48 -46 115v128q0 68 45 113l48 -46v-267zM367 365l47 43q46 -48 46 -115v-128q0 -68 -45 -113l-48 46v267zM106 408l47 -43v-267l-48 -46q-45 45 -45 113v128q0 67 46 115z" />
    <glyph glyph-name="i" unicode="i" 
d="M260 441l-43 27v296h86v-296zM217 362l43 27l43 -27v-296h-86v296z" />
    <glyph glyph-name="j" unicode="j" 
d="M414 422l-47 43v267l48 46q45 -45 45 -113v-128q0 -67 -46 -115zM160 91h200l48 -46q-47 -45 -113 -45h-70q-66 0 -113 45zM367 365l47 43q46 -48 46 -115v-128q0 -68 -45 -113l-48 46v267z" />
    <glyph glyph-name="k" unicode="k" 
d="M153 465l-47 -43q-46 48 -46 115v128q0 68 45 113l48 -46v-267zM106 408l47 -43v-267l-48 -46q-45 45 -45 113v128q0 67 46 115zM394 744l-146 -273h-85v23l146 270h85v-20zM162 461h196l50 -46l-50 -46h-196l-50 46zM367 365l47 43q46 -48 46 -115v-128q0 -68 -45 -113
l-48 46v267z" />
    <glyph glyph-name="l" unicode="l" 
d="M153 465l-47 -43q-46 48 -46 115v128q0 68 45 113l48 -46v-267zM160 91h200l48 -46q-47 -45 -113 -45h-70q-66 0 -113 45zM106 408l47 -43v-267l-48 -46q-45 45 -45 113v128q0 67 46 115z" />
    <glyph glyph-name="m" unicode="m" 
d="M367 365l47 43q46 -48 46 -115v-128q0 -68 -45 -113l-48 46v267zM106 408l47 -43v-267l-48 -46q-45 45 -45 113v128q0 67 46 115zM260 441l-43 27v261h86v-261zM360 739h-200l-48 46q47 45 113 45h70q66 0 113 -45zM217 362l43 27l43 -27v-261h-86v261zM414 422l-47 43
v267l48 46q45 -45 45 -113v-128q0 -67 -46 -115zM153 465l-47 -43q-46 48 -46 115v128q0 68 45 113l48 -46v-267z" />
    <glyph glyph-name="n" unicode="n" 
d="M360 739h-200l-48 46q47 45 113 45h70q66 0 113 -45zM414 422l-47 43v267l48 46q45 -45 45 -113v-128q0 -67 -46 -115zM153 465l-47 -43q-46 48 -46 115v128q0 68 45 113l48 -46v-267zM367 365l47 43q46 -48 46 -115v-128q0 -68 -45 -113l-48 46v267zM106 408l47 -43
v-267l-48 -46q-45 45 -45 113v128q0 67 46 115z" />
    <glyph glyph-name="o" unicode="o" 
d="M360 739h-200l-48 46q47 45 113 45h70q66 0 113 -45zM414 422l-47 43v267l48 46q45 -45 45 -113v-128q0 -67 -46 -115zM153 465l-47 -43q-46 48 -46 115v128q0 68 45 113l48 -46v-267zM160 91h200l48 -46q-47 -45 -113 -45h-70q-66 0 -113 45zM367 365l47 43
q46 -48 46 -115v-128q0 -68 -45 -113l-48 46v267zM106 408l47 -43v-267l-48 -46q-45 45 -45 113v128q0 67 46 115z" />
    <glyph glyph-name="p" unicode="p" 
d="M360 739h-200l-48 46q47 45 113 45h70q66 0 113 -45zM414 422l-47 43v267l48 46q45 -45 45 -113v-128q0 -67 -46 -115zM162 461h196l50 -46l-50 -46h-196l-50 46zM153 465l-47 -43q-46 48 -46 115v128q0 68 45 113l48 -46v-267zM106 408l47 -43v-267l-48 -46
q-45 45 -45 113v128q0 67 46 115z" />
    <glyph glyph-name="q" unicode="q" 
d="M360 739h-200l-48 46q47 45 113 45h70q66 0 113 -45zM414 422l-47 43v267l48 46q45 -45 45 -113v-128q0 -67 -46 -115zM162 461h196l50 -46l-50 -46h-196l-50 46zM153 465l-47 -43q-46 48 -46 115v128q0 68 45 113l48 -46v-267zM367 365l47 43q46 -48 46 -115v-128
q0 -68 -45 -113l-48 46v267z" />
    <glyph glyph-name="r" unicode="r" 
d="M360 739h-200l-48 46q47 45 113 45h70q66 0 113 -45zM414 422l-47 43v267l48 46q45 -45 45 -113v-128q0 -67 -46 -115zM153 465l-47 -43q-46 48 -46 115v128q0 68 45 113l48 -46v-267zM106 408l47 -43v-267l-48 -46q-45 45 -45 113v128q0 67 46 115z" />
    <glyph glyph-name="s" unicode="s" 
d="M360 739h-200l-48 46q47 45 113 45h70q66 0 113 -45zM162 461h196l50 -46l-50 -46h-196l-50 46zM153 465l-47 -43q-46 48 -46 115v128q0 68 45 113l48 -46v-267zM160 91h200l48 -46q-47 -45 -113 -45h-70q-66 0 -113 45zM367 365l47 43q46 -48 46 -115v-128
q0 -68 -45 -113l-48 46v267z" />
    <glyph glyph-name="t" unicode="t" 
d="M153 465l-47 -43q-46 48 -46 115v128q0 68 45 113l48 -46v-267zM160 91h200l48 -46q-47 -45 -113 -45h-70q-66 0 -113 45zM106 408l47 -43v-267l-48 -46q-45 45 -45 113v128q0 67 46 115zM162 461h196l50 -46l-50 -46h-196l-50 46z" />
    <glyph glyph-name="u" unicode="u" 
d="M106 408l47 -43v-267l-48 -46q-45 45 -45 113v128q0 67 46 115zM414 422l-47 43v267l48 46q45 -45 45 -113v-128q0 -67 -46 -115zM153 465l-47 -43q-46 48 -46 115v128q0 68 45 113l48 -46v-267zM160 91h200l48 -46q-47 -45 -113 -45h-70q-66 0 -113 45zM367 365l47 43
q46 -48 46 -115v-128q0 -68 -45 -113l-48 46v267z" />
    <glyph glyph-name="v" unicode="v" 
d="M153 465l-47 -43q-46 48 -46 115v128q0 68 45 113l48 -46v-267zM414 422l-47 43v267l48 46q45 -45 45 -113v-128q0 -67 -46 -115zM339 0h-74v62l102 303l47 43q38 -60 15 -132zM181 0l-90 276q-23 72 15 132l47 -43l102 -303v-62h-74z" />
    <glyph glyph-name="w" unicode="w" 
d="M153 465l-47 -43q-46 48 -46 115v128q0 68 45 113l48 -46v-267zM106 408l47 -43v-165l-48 -148q-45 45 -45 113v128q0 67 46 115zM367 365l47 43q46 -48 46 -115v-128q0 -68 -45 -113l-48 148v165zM414 422l-47 43v267l48 46q45 -45 45 -113v-128q0 -67 -46 -115z
M255 410v-186l-73 -217q-41 10 -69 37l121 366h21zM265 410h21l121 -366q-28 -27 -69 -37l-73 217v186z" />
    <glyph glyph-name="x" unicode="x" 
d="M255 420h-80l-92 324v20h82l90 -324v-20zM255 410v-20l-90 -324h-82v20l92 324h80zM265 420v20l90 324h82v-20l-92 -324h-80zM265 410h80l92 -324v-20h-82l-90 324v20z" />
    <glyph glyph-name="y" unicode="y" 
d="M414 422l-47 43v267l48 46q45 -45 45 -113v-128q0 -67 -46 -115zM162 461h196l50 -46l-50 -46h-196l-50 46zM153 465l-47 -43q-46 48 -46 115v128q0 68 45 113l48 -46v-267zM160 91h200l48 -46q-47 -45 -113 -45h-70q-66 0 -113 45zM367 365l47 43q46 -48 46 -115v-128
q0 -68 -45 -113l-48 46v267z" />
    <glyph glyph-name="z" unicode="z" 
d="M360 739h-200l-48 46q47 45 113 45h70q66 0 113 -45zM414 422l-47 43v267l48 46q45 -45 45 -113v-128q0 -67 -46 -115zM162 461h196l50 -46l-50 -46h-196l-50 46zM160 91h200l48 -46q-47 -45 -113 -45h-70q-66 0 -113 45zM106 408l47 -43v-267l-48 -46q-45 45 -45 113
v128q0 67 46 115z" />
    <glyph glyph-name="braceleft" unicode="{" 
d="M382 830v-91h-74q-24 0 -41 -17t-17 -40v-217l-47 -43q-46 48 -46 115v128q0 68 48.5 116.5t116.5 48.5h60zM382 0h-60q-68 0 -116.5 48.5t-48.5 116.5v128q0 67 46 115l47 -43v-217q0 -23 17 -40t41 -17h74v-91zM107 461h57l30 -46l-30 -46h-57v92z" />
    <glyph glyph-name="bar" unicode="|" 
d="M303 0h-86v830h86v-830z" />
    <glyph glyph-name="braceright" unicode="}" 
d="M137 739v91h60q68 0 116.5 -48.5t48.5 -116.5v-128q0 -67 -46 -115l-47 43v217q0 23 -17 40t-41 17h-74zM197 0h-60v91h74q24 0 41 17t17 40v217l47 43q46 -48 46 -115v-128q0 -68 -48.5 -116.5t-116.5 -48.5zM355 461h57v-92h-57l-30 46z" />
    <glyph glyph-name="exclamdown" unicode="&#xa1;" 
d="M318 772q0 -23 -17 -40t-41 -17t-41 17t-17 40q0 24 17 41t41 17t41 -17t17 -41zM217 543h86v-512h-86v512z" />
    <glyph glyph-name="cent" unicode="&#xa2;" 
d="M160 91h200l48 -46q-47 -45 -113 -45h-70q-66 0 -113 45zM106 408l47 -43v-267l-48 -46q-45 45 -45 113v128q0 67 46 115zM162 461h196l50 -46l-50 -46h-196l-50 46zM216 -10h88v-65h-88v65zM216 536h88v-65h-88v65z" />
    <glyph glyph-name="sterling" unicode="&#xa3;" 
d="M10 461h57l30 -46l-30 -46h-57v92zM367 365l47 43q46 -48 46 -115v-128q0 -68 -45 -113l-48 46v267zM160 91h200l48 -46q-47 -45 -113 -45h-70q-66 0 -113 45zM153 465l-47 -43q-46 48 -46 115v128q0 68 45 113l48 -46v-267zM106 408l47 -43v-267l-48 -46q-45 45 -45 113
v128q0 67 46 115z" />
    <glyph glyph-name="yen" unicode="&#xa5;" 
d="M510 461v-92h-57l-30 46l30 46h57zM160 91h200l48 -46q-47 -45 -113 -45h-70q-66 0 -113 45zM414 422l-47 43v267l48 46q45 -45 45 -113v-128q0 -67 -46 -115zM162 461h196l50 -46l-50 -46h-196l-50 46zM153 465l-47 -43q-46 48 -46 115v128q0 68 45 113l48 -46v-267z
M367 365l47 43q46 -48 46 -115v-128q0 -68 -45 -113l-48 46v267z" />
    <glyph glyph-name="brokenbar" unicode="&#xa6;" 
d="M260 441l-43 27v362h86v-362zM217 362l43 27l43 -27v-362h-86v362z" />
    <glyph glyph-name="section" unicode="&#xa7;" 
d="M60 658v7q0 68 48.5 116.5t116.5 48.5h70q66 0 113 -45l-48 -46h-149q-24 0 -41 -17t-17 -40v-95l-47 -42q-46 46 -46 113zM460 414q0 -67 -46 -115l-47 42v95q0 23 -17 39.5t-41 16.5h-147l-50 46l50 46h133q69 0 117 -45t48 -113v-12zM460 172v-7q0 -68 -48.5 -116.5
t-116.5 -48.5h-70q-66 0 -113 45l48 46h149q24 0 41 17t17 40v95l47 42q46 -46 46 -113zM60 416q0 67 46 115l47 -42v-95q0 -23 17 -39.5t41 -16.5h147l50 -46l-50 -46h-133q-69 0 -117 45t-48 113v12z" />
    <glyph glyph-name="dieresis" unicode="&#xa8;" 
d="M295 895q0 19 13 32t32 13t32 -13t13 -32t-13 -32t-32 -13t-32 13t-13 32zM135 895q0 19 13 32t32 13t32 -13t13 -32t-13 -32t-32 -13t-32 13t-13 32z" />
    <glyph glyph-name="copyright" unicode="&#xa9;" 
d="M360 739h-149q-24 0 -41 -17t-17 -40v-39l-32 -39h-45q-16 19 -16 61q0 68 48.5 116.5t116.5 48.5h70q66 0 113 -45zM360 460l48 -46q-47 -45 -113 -45h-70q-68 0 -116.5 48.5t-48.5 116.5q0 19 4 34t8 20l4 6h45l32 -38v-39q0 -24 17 -40.5t41 -16.5h149z" />
    <glyph glyph-name="ordfeminine" unicode="&#xaa;" 
d="M399 581h40q21 -28 21 -75q0 -68 -48.5 -116.5t-116.5 -48.5h-70q-68 0 -116.5 48.5t-48.5 116.5q0 21 5 39.5t11 26.5l5 9h40l32 -42v-50q0 -23 17 -40t41 -17h98q24 0 41 17t17 40v50zM160 739l-48 46q47 45 113 45h70q68 0 116.5 -48.5t48.5 -116.5q0 -21 -5 -39.5
t-11 -26.5l-5 -8h-40l-32 41v50q0 23 -17 40t-41 17h-149zM129 586l35 43h192l35 -43l-35 -44h-192z" />
    <glyph glyph-name="guillemotleft" unicode="&#xab;" 
d="M359 464l-69 -13l15 70l98 98l56 -56zM403 211l-98 98l-15 70l69 -13l100 -99zM159 464l-69 -13l15 70l98 98l56 -56zM203 211l-98 98l-15 70l69 -13l100 -99z" />
    <glyph glyph-name="registered" unicode="&#xae;" 
d="M129 599l37 44h188l37 -44l-37 -43h-188zM399 604l-32 39v39q0 23 -17 40t-41 17h-98q-24 0 -41 -17t-17 -40v-39l-32 -39h-45q-16 19 -16 61q0 68 48.5 116.5t116.5 48.5h70q68 0 116.5 -48.5t48.5 -116.5q0 -19 -4 -34t-8 -21l-4 -6h-45zM356 546l71 -157v-20h-94
l-68 157v20h91zM60 369v165q0 19 4 34t8 20l4 6h45l32 -38v-187h-93z" />
    <glyph glyph-name="macron" unicode="&#xaf;" 
d="M118 849v11q20 33 55 53t77 20h20q42 0 77 -20t55 -53v-11h-284z" />
    <glyph glyph-name="degree" unicode="&#xb0;" 
d="M60 630q0 82 59 141t141 59t141 -59t59 -141t-59 -141t-141 -59t-141 59t-59 141zM143 630q0 -49 34 -83t83 -34t83 34t34 83t-34 83t-83 34t-83 -34t-34 -83z" />
    <glyph glyph-name="plusminus" unicode="&#xb1;" 
d="M456 370h-96l-69 13h-62l-69 -13h-96v90h96l69 -13h62l69 13h96v-90zM297 542h-74l-4 24v65h82v-65zM286 451h-52l-10 87h72zM301 199h-82v65l4 24h74l4 -24v-65zM296 292h-72l10 87h52zM64 0v79h392v-79h-392z" />
    <glyph glyph-name="twosuperior" unicode="&#xb2;" 
d="M160 739l-48 46q47 45 113 45h70q68 0 116.5 -48.5t48.5 -116.5q0 -19 -4 -34t-8 -21l-4 -6h-45l-32 39v39q0 23 -17 40t-41 17h-149zM360 460l48 -46q-47 -45 -113 -45h-70q-68 0 -116.5 48.5t-48.5 116.5q0 19 4 34t8 20l4 6h45l32 -38v-39q0 -24 17 -40.5t41 -16.5
h149zM391 599l-37 -43h-188l-37 43l37 44h188z" />
    <glyph glyph-name="threesuperior" unicode="&#xb3;" 
d="M160 739l-48 46q47 45 113 45h70q68 0 116.5 -48.5t48.5 -116.5q0 -19 -4 -34t-8 -21l-4 -6h-45l-32 39v39q0 23 -17 40t-41 17h-149zM160 460h149q24 0 41 16.5t17 40.5v39l32 38h45q16 -18 16 -60q0 -68 -48.5 -116.5t-116.5 -48.5h-70q-66 0 -113 45zM391 599l-37 -43
h-188l-37 43l37 44h188z" />
    <glyph glyph-name="acute" unicode="&#xb4;" 
d="M322 840h-57v63l21 22q15 16 25.5 20.5t35.5 4.5h57v-28z" />
    <glyph glyph-name="paragraph" unicode="&#xb6;" 
d="M284 830v-462h-59q-68 0 -116.5 48.5t-48.5 116.5v132q0 68 48.5 116.5t116.5 48.5h59zM294 830h1q68 0 116.5 -48.5t48.5 -116.5v-128q0 -67 -46 -115l-47 43v199q0 24 -17 41t-41 17h-15v108zM367 365l47 43q46 -48 46 -115v-293h-93v365zM198 358h86v-358h-86v358z
" />
    <glyph glyph-name="periodcentered" unicode="&#xb7;" 
d="M202 415q0 23 17 40t41 17t41 -17t17 -40q0 -24 -17 -41t-41 -17t-41 17t-17 41z" />
    <glyph glyph-name="cedilla" unicode="&#xb8;" 
d="M255 -73l-21 -22q-15 -16 -25.5 -20.5t-35.5 -4.5h-57v28l82 82h57v-63z" />
    <glyph glyph-name="onesuperior" unicode="&#xb9;" 
d="M460 830v-165q0 -19 -4 -34t-8 -21l-4 -6h-45l-32 39v187h93zM460 369h-93v187l32 38h45q16 -18 16 -60v-165z" />
    <glyph glyph-name="ordmasculine" unicode="&#xba;" 
d="M399 591l-32 41v50q0 23 -17 40t-41 17h-98q-24 0 -41 -17t-17 -40v-50l-32 -41h-40q-21 27 -21 74q0 68 48.5 116.5t116.5 48.5h70q68 0 116.5 -48.5t48.5 -116.5q0 -21 -5 -39.5t-11 -26.5l-5 -8h-40zM399 581h40q21 -28 21 -75q0 -68 -48.5 -116.5t-116.5 -48.5h-70
q-68 0 -116.5 48.5t-48.5 116.5q0 21 5 39.5t11 26.5l5 9h40l32 -42v-50q0 -23 17 -40t41 -17h98q24 0 41 17t17 40v50z" />
    <glyph glyph-name="guillemotright" unicode="&#xbb;" 
d="M449 451l-69 13l-100 99l56 56l98 -98zM434 309l-98 -98l-56 56l100 99l69 13zM249 451l-69 13l-100 99l56 56l98 -98zM234 309l-98 -98l-56 56l100 99l69 13z" />
    <glyph glyph-name="questiondown" unicode="&#xbf;" 
d="M318 772q0 -23 -17 -40t-41 -17t-41 17t-17 40q0 24 17 41t41 17t41 -17t17 -41zM160 91h200l48 -46q-47 -45 -113 -45h-70q-66 0 -113 45zM106 408l47 -43v-267l-48 -46q-45 45 -45 113v128q0 67 46 115zM358 369h-196l-50 46l50 46h196l50 -46z" />
    <glyph glyph-name="Agrave" unicode="&#xc0;" 
d="M367 365l47 43q46 -48 46 -115v-128q0 -68 -45 -113l-48 46v267zM106 408l47 -43v-267l-48 -46q-45 45 -45 113v128q0 67 46 115zM255 830v-62l-102 -303l-47 -43q-38 60 -15 132l90 276h74zM162 461h196l50 -46l-50 -46h-196l-50 46zM339 830l90 -276q23 -72 -15 -132
l-47 43l-102 303v62h74zM255 840h-57l-82 82v28h57q25 0 35.5 -4.5t25.5 -20.5l21 -22v-63z" />
    <glyph glyph-name="Aacute" unicode="&#xc1;" 
d="M367 365l47 43q46 -48 46 -115v-128q0 -68 -45 -113l-48 46v267zM106 408l47 -43v-267l-48 -46q-45 45 -45 113v128q0 67 46 115zM255 830v-62l-102 -303l-47 -43q-38 60 -15 132l90 276h74zM162 461h196l50 -46l-50 -46h-196l-50 46zM339 830l90 -276q23 -72 -15 -132
l-47 43l-102 303v62h74zM322 840h-57v63l21 22q15 16 25.5 20.5t35.5 4.5h57v-28z" />
    <glyph glyph-name="Acircumflex" unicode="&#xc2;" 
d="M367 365l47 43q46 -48 46 -115v-128q0 -68 -45 -113l-48 46v267zM106 408l47 -43v-267l-48 -46q-45 45 -45 113v128q0 67 46 115zM255 830v-62l-102 -303l-47 -43q-38 60 -15 132l90 276h74zM162 461h196l50 -46l-50 -46h-196l-50 46zM339 830l90 -276q23 -72 -15 -132
l-47 43l-102 303v62h74zM255 950v-63l-21 -22q-15 -16 -25.5 -20.5t-35.5 -4.5h-57v28l82 82h57zM322 950l82 -82v-28h-57q-25 0 -35.5 4.5t-25.5 20.5l-21 22v63h57z" />
    <glyph glyph-name="Atilde" unicode="&#xc3;" 
d="M367 365l47 43q46 -48 46 -115v-128q0 -68 -45 -113l-48 46v267zM106 408l47 -43v-267l-48 -46q-45 45 -45 113v128q0 67 46 115zM255 830v-62l-102 -303l-47 -43q-38 60 -15 132l90 276h74zM162 461h196l50 -46l-50 -46h-196l-50 46zM339 830l90 -276q23 -72 -15 -132
l-47 43l-102 303v62h74zM118 849v11q20 33 55 53t77 20h152v-11q-20 -33 -55.5 -53t-76.5 -20h-152z" />
    <glyph glyph-name="Adieresis" unicode="&#xc4;" 
d="M367 365l47 43q46 -48 46 -115v-128q0 -68 -45 -113l-48 46v267zM106 408l47 -43v-267l-48 -46q-45 45 -45 113v128q0 67 46 115zM255 830v-62l-102 -303l-47 -43q-38 60 -15 132l90 276h74zM162 461h196l50 -46l-50 -46h-196l-50 46zM339 830l90 -276q23 -72 -15 -132
l-47 43l-102 303v62h74zM295 895q0 19 13 32t32 13t32 -13t13 -32t-13 -32t-32 -13t-32 13t-13 32zM135 895q0 19 13 32t32 13t32 -13t13 -32t-13 -32t-32 -13t-32 13t-13 32z" />
    <glyph glyph-name="Aring" unicode="&#xc5;" 
d="M367 365l47 43q46 -48 46 -115v-128q0 -68 -45 -113l-48 46v267zM106 408l47 -43v-267l-48 -46q-45 45 -45 113v128q0 67 46 115zM255 830v-62l-102 -303l-47 -43q-38 60 -15 132l90 276h74zM162 461h196l50 -46l-50 -46h-196l-50 46zM339 830l90 -276q23 -72 -15 -132
l-47 43l-102 303v62h74zM205 895q0 23 16.5 39t38.5 16t38.5 -16t16.5 -39t-16.5 -39t-38.5 -16t-38.5 16t-16.5 39zM244 895q0 -16 16 -16t16 16t-16 16t-16 -16z" />
    <glyph glyph-name="AE" unicode="&#xc6;" horiz-adv-x="1040" 
d="M339 830l90 -276q23 -72 -15 -132l-47 43l-102 303v62h74zM682 461h196l50 -46l-50 -46h-196l-50 46zM673 465l-47 -43q-46 48 -46 115v128q0 68 45 113l48 -46v-267zM680 91h200l48 -46q-47 -45 -113 -45h-70q-66 0 -113 45zM626 408l47 -43v-267l-48 -46
q-45 45 -45 113v128q0 67 46 115zM367 365l47 43q46 -48 46 -115v-128q0 -68 -45 -113l-48 46v267zM106 408l47 -43v-267l-48 -46q-45 45 -45 113v128q0 67 46 115zM181 830h74v-62l-102 -303l-47 -43q-38 60 -15 132zM162 461h196l50 -46l-50 -46h-196l-50 46zM880 739
h-200l-48 46q47 45 113 45h70q66 0 113 -45z" />
    <glyph glyph-name="Ccedilla" unicode="&#xc7;" 
d="M160 91h200l48 -46q-47 -45 -113 -45h-70q-66 0 -113 45zM360 739h-200l-48 46q47 45 113 45h70q66 0 113 -45zM153 465l-47 -43q-46 48 -46 115v128q0 68 45 113l48 -46v-267zM106 408l47 -43v-267l-48 -46q-45 45 -45 113v128q0 67 46 115zM255 -73l-21 -22
q-15 -16 -25.5 -20.5t-35.5 -4.5h-57v28l82 82h57v-63z" />
    <glyph glyph-name="Egrave" unicode="&#xc8;" 
d="M162 461h196l50 -46l-50 -46h-196l-50 46zM160 91h200l48 -46q-47 -45 -113 -45h-70q-66 0 -113 45zM360 739h-200l-48 46q47 45 113 45h70q66 0 113 -45zM153 465l-47 -43q-46 48 -46 115v128q0 68 45 113l48 -46v-267zM106 408l47 -43v-267l-48 -46q-45 45 -45 113v128
q0 67 46 115zM255 840h-57l-82 82v28h57q25 0 35.5 -4.5t25.5 -20.5l21 -22v-63z" />
    <glyph glyph-name="Eacute" unicode="&#xc9;" 
d="M322 840h-57v63l21 22q15 16 25.5 20.5t35.5 4.5h57v-28zM162 461h196l50 -46l-50 -46h-196l-50 46zM160 91h200l48 -46q-47 -45 -113 -45h-70q-66 0 -113 45zM360 739h-200l-48 46q47 45 113 45h70q66 0 113 -45zM153 465l-47 -43q-46 48 -46 115v128q0 68 45 113
l48 -46v-267zM106 408l47 -43v-267l-48 -46q-45 45 -45 113v128q0 67 46 115z" />
    <glyph glyph-name="Ecircumflex" unicode="&#xca;" 
d="M255 950v-63l-21 -22q-15 -16 -25.5 -20.5t-35.5 -4.5h-57v28l82 82h57zM322 950l82 -82v-28h-57q-25 0 -35.5 4.5t-25.5 20.5l-21 22v63h57zM162 461h196l50 -46l-50 -46h-196l-50 46zM160 91h200l48 -46q-47 -45 -113 -45h-70q-66 0 -113 45zM360 739h-200l-48 46
q47 45 113 45h70q66 0 113 -45zM153 465l-47 -43q-46 48 -46 115v128q0 68 45 113l48 -46v-267zM106 408l47 -43v-267l-48 -46q-45 45 -45 113v128q0 67 46 115z" />
    <glyph glyph-name="Edieresis" unicode="&#xcb;" 
d="M295 895q0 19 13 32t32 13t32 -13t13 -32t-13 -32t-32 -13t-32 13t-13 32zM135 895q0 19 13 32t32 13t32 -13t13 -32t-13 -32t-32 -13t-32 13t-13 32zM162 461h196l50 -46l-50 -46h-196l-50 46zM160 91h200l48 -46q-47 -45 -113 -45h-70q-66 0 -113 45zM360 739h-200
l-48 46q47 45 113 45h70q66 0 113 -45zM153 465l-47 -43q-46 48 -46 115v128q0 68 45 113l48 -46v-267zM106 408l47 -43v-267l-48 -46q-45 45 -45 113v128q0 67 46 115z" />
    <glyph glyph-name="Igrave" unicode="&#xcc;" 
d="M360 739h-200l-48 46q47 45 113 45h70q66 0 113 -45zM260 441l-43 27v261h86v-261zM217 362l43 27l43 -27v-261h-86v261zM160 91h200l48 -46q-47 -45 -113 -45h-70q-66 0 -113 45zM255 840h-57l-82 82v28h57q25 0 35.5 -4.5t25.5 -20.5l21 -22v-63z" />
    <glyph glyph-name="Iacute" unicode="&#xcd;" 
d="M360 739h-200l-48 46q47 45 113 45h70q66 0 113 -45zM260 441l-43 27v261h86v-261zM217 362l43 27l43 -27v-261h-86v261zM160 91h200l48 -46q-47 -45 -113 -45h-70q-66 0 -113 45zM322 840h-57v63l21 22q15 16 25.5 20.5t35.5 4.5h57v-28z" />
    <glyph glyph-name="Icircumflex" unicode="&#xce;" 
d="M360 739h-200l-48 46q47 45 113 45h70q66 0 113 -45zM260 441l-43 27v261h86v-261zM217 362l43 27l43 -27v-261h-86v261zM160 91h200l48 -46q-47 -45 -113 -45h-70q-66 0 -113 45zM255 950v-63l-21 -22q-15 -16 -25.5 -20.5t-35.5 -4.5h-57v28l82 82h57zM322 950l82 -82
v-28h-57q-25 0 -35.5 4.5t-25.5 20.5l-21 22v63h57z" />
    <glyph glyph-name="Idieresis" unicode="&#xcf;" 
d="M360 739h-200l-48 46q47 45 113 45h70q66 0 113 -45zM260 441l-43 27v261h86v-261zM217 362l43 27l43 -27v-261h-86v261zM160 91h200l48 -46q-47 -45 -113 -45h-70q-66 0 -113 45zM295 895q0 19 13 32t32 13t32 -13t13 -32t-13 -32t-32 -13t-32 13t-13 32zM135 895
q0 19 13 32t32 13t32 -13t13 -32t-13 -32t-32 -13t-32 13t-13 32z" />
    <glyph glyph-name="Eth" unicode="&#xd0;" 
d="M360 739h-200l-48 46q47 45 113 45h70q66 0 113 -45zM414 422l-47 43v267l48 46q45 -45 45 -113v-128q0 -67 -46 -115zM153 465l-47 -43q-46 48 -46 115v128q0 68 45 113l48 -46v-267zM160 91h200l48 -46q-47 -45 -113 -45h-70q-66 0 -113 45zM367 365l47 43
q46 -48 46 -115v-128q0 -68 -45 -113l-48 46v267zM106 408l47 -43v-267l-48 -46q-45 45 -45 113v128q0 67 46 115zM10 461h57l30 -46l-30 -46h-57v92zM60 830h112q-57 -20 -91 -68h-21v68zM60 0v68h21q34 -48 91 -68h-112z" />
    <glyph glyph-name="Ntilde" unicode="&#xd1;" 
d="M414 422l-47 43v267l48 46q45 -45 45 -113v-128q0 -67 -46 -115zM106 408l47 -43v-267l-48 -46q-45 45 -45 113v128q0 67 46 115zM153 465l-47 -43q-46 48 -46 115v128q0 68 45 113l48 -148v-165zM255 420h-21l-121 366q28 27 69 37l73 -217v-186zM367 365l47 43
q46 -48 46 -115v-128q0 -68 -45 -113l-48 148v165zM265 410h21l121 -366q-28 -27 -69 -37l-73 217v186zM118 849v11q20 33 55 53t77 20h152v-11q-20 -33 -55.5 -53t-76.5 -20h-152z" />
    <glyph glyph-name="Ograve" unicode="&#xd2;" 
d="M160 91h200l48 -46q-47 -45 -113 -45h-70q-66 0 -113 45zM360 739h-200l-48 46q47 45 113 45h70q66 0 113 -45zM414 422l-47 43v267l48 46q45 -45 45 -113v-128q0 -67 -46 -115zM153 465l-47 -43q-46 48 -46 115v128q0 68 45 113l48 -46v-267zM367 365l47 43
q46 -48 46 -115v-128q0 -68 -45 -113l-48 46v267zM106 408l47 -43v-267l-48 -46q-45 45 -45 113v128q0 67 46 115zM255 840h-57l-82 82v28h57q25 0 35.5 -4.5t25.5 -20.5l21 -22v-63z" />
    <glyph glyph-name="Oacute" unicode="&#xd3;" 
d="M322 840h-57v63l21 22q15 16 25.5 20.5t35.5 4.5h57v-28zM160 91h200l48 -46q-47 -45 -113 -45h-70q-66 0 -113 45zM360 739h-200l-48 46q47 45 113 45h70q66 0 113 -45zM414 422l-47 43v267l48 46q45 -45 45 -113v-128q0 -67 -46 -115zM153 465l-47 -43q-46 48 -46 115
v128q0 68 45 113l48 -46v-267zM367 365l47 43q46 -48 46 -115v-128q0 -68 -45 -113l-48 46v267zM106 408l47 -43v-267l-48 -46q-45 45 -45 113v128q0 67 46 115z" />
    <glyph glyph-name="Ocircumflex" unicode="&#xd4;" 
d="M255 950v-63l-21 -22q-15 -16 -25.5 -20.5t-35.5 -4.5h-57v28l82 82h57zM322 950l82 -82v-28h-57q-25 0 -35.5 4.5t-25.5 20.5l-21 22v63h57zM160 91h200l48 -46q-47 -45 -113 -45h-70q-66 0 -113 45zM360 739h-200l-48 46q47 45 113 45h70q66 0 113 -45zM414 422l-47 43
v267l48 46q45 -45 45 -113v-128q0 -67 -46 -115zM153 465l-47 -43q-46 48 -46 115v128q0 68 45 113l48 -46v-267zM367 365l47 43q46 -48 46 -115v-128q0 -68 -45 -113l-48 46v267zM106 408l47 -43v-267l-48 -46q-45 45 -45 113v128q0 67 46 115z" />
    <glyph glyph-name="Otilde" unicode="&#xd5;" 
d="M160 91h200l48 -46q-47 -45 -113 -45h-70q-66 0 -113 45zM360 739h-200l-48 46q47 45 113 45h70q66 0 113 -45zM414 422l-47 43v267l48 46q45 -45 45 -113v-128q0 -67 -46 -115zM153 465l-47 -43q-46 48 -46 115v128q0 68 45 113l48 -46v-267zM367 365l47 43
q46 -48 46 -115v-128q0 -68 -45 -113l-48 46v267zM106 408l47 -43v-267l-48 -46q-45 45 -45 113v128q0 67 46 115zM118 849v11q20 33 55 53t77 20h152v-11q-20 -33 -55.5 -53t-76.5 -20h-152z" />
    <glyph glyph-name="Odieresis" unicode="&#xd6;" 
d="M295 895q0 19 13 32t32 13t32 -13t13 -32t-13 -32t-32 -13t-32 13t-13 32zM135 895q0 19 13 32t32 13t32 -13t13 -32t-13 -32t-32 -13t-32 13t-13 32zM160 91h200l48 -46q-47 -45 -113 -45h-70q-66 0 -113 45zM360 739h-200l-48 46q47 45 113 45h70q66 0 113 -45z
M414 422l-47 43v267l48 46q45 -45 45 -113v-128q0 -67 -46 -115zM153 465l-47 -43q-46 48 -46 115v128q0 68 45 113l48 -46v-267zM367 365l47 43q46 -48 46 -115v-128q0 -68 -45 -113l-48 46v267zM106 408l47 -43v-267l-48 -46q-45 45 -45 113v128q0 67 46 115z" />
    <glyph glyph-name="multiply" unicode="&#xd7;" 
d="M360 464l-70 -13l15 70l98 98l56 -56zM230 451l-70 13l-99 99l56 56l98 -98zM403 211l-98 98l-15 70l70 -13l99 -99zM215 309l-98 -98l-56 56l99 99l70 13z" />
    <glyph glyph-name="Oslash" unicode="&#xd8;" 
d="M414 422l-47 43v267l48 46q45 -45 45 -113v-128q0 -67 -46 -115zM360 739h-200l-48 46q47 45 113 45h70q66 0 113 -45zM153 465l-47 -43q-46 48 -46 115v128q0 68 45 113l48 -46v-267zM160 91h200l48 -46q-47 -45 -113 -45h-70q-66 0 -113 45zM367 365l47 43
q46 -48 46 -115v-128q0 -68 -45 -113l-48 46v267zM106 408l47 -43v-267l-48 -46q-45 45 -45 113v128q0 67 46 115zM163 121l142 608h52v-20l-142 -608h-52v20z" />
    <glyph glyph-name="Ugrave" unicode="&#xd9;" 
d="M160 91h200l48 -46q-47 -45 -113 -45h-70q-66 0 -113 45zM414 422l-47 43v267l48 46q45 -45 45 -113v-128q0 -67 -46 -115zM153 465l-47 -43q-46 48 -46 115v128q0 68 45 113l48 -46v-267zM367 365l47 43q46 -48 46 -115v-128q0 -68 -45 -113l-48 46v267zM106 408l47 -43
v-267l-48 -46q-45 45 -45 113v128q0 67 46 115zM255 840h-57l-82 82v28h57q25 0 35.5 -4.5t25.5 -20.5l21 -22v-63z" />
    <glyph glyph-name="Uacute" unicode="&#xda;" 
d="M160 91h200l48 -46q-47 -45 -113 -45h-70q-66 0 -113 45zM414 422l-47 43v267l48 46q45 -45 45 -113v-128q0 -67 -46 -115zM153 465l-47 -43q-46 48 -46 115v128q0 68 45 113l48 -46v-267zM367 365l47 43q46 -48 46 -115v-128q0 -68 -45 -113l-48 46v267zM106 408l47 -43
v-267l-48 -46q-45 45 -45 113v128q0 67 46 115zM322 840h-57v63l21 22q15 16 25.5 20.5t35.5 4.5h57v-28z" />
    <glyph glyph-name="Ucircumflex" unicode="&#xdb;" 
d="M160 91h200l48 -46q-47 -45 -113 -45h-70q-66 0 -113 45zM414 422l-47 43v267l48 46q45 -45 45 -113v-128q0 -67 -46 -115zM153 465l-47 -43q-46 48 -46 115v128q0 68 45 113l48 -46v-267zM367 365l47 43q46 -48 46 -115v-128q0 -68 -45 -113l-48 46v267zM106 408l47 -43
v-267l-48 -46q-45 45 -45 113v128q0 67 46 115zM255 950v-63l-21 -22q-15 -16 -25.5 -20.5t-35.5 -4.5h-57v28l82 82h57zM322 950l82 -82v-28h-57q-25 0 -35.5 4.5t-25.5 20.5l-21 22v63h57z" />
    <glyph glyph-name="Udieresis" unicode="&#xdc;" 
d="M295 895q0 19 13 32t32 13t32 -13t13 -32t-13 -32t-32 -13t-32 13t-13 32zM135 895q0 19 13 32t32 13t32 -13t13 -32t-13 -32t-32 -13t-32 13t-13 32zM160 91h200l48 -46q-47 -45 -113 -45h-70q-66 0 -113 45zM414 422l-47 43v267l48 46q45 -45 45 -113v-128
q0 -67 -46 -115zM153 465l-47 -43q-46 48 -46 115v128q0 68 45 113l48 -46v-267zM367 365l47 43q46 -48 46 -115v-128q0 -68 -45 -113l-48 46v267zM106 408l47 -43v-267l-48 -46q-45 45 -45 113v128q0 67 46 115z" />
    <glyph glyph-name="Yacute" unicode="&#xdd;" 
d="M160 91h200l48 -46q-47 -45 -113 -45h-70q-66 0 -113 45zM414 422l-47 43v267l48 46q45 -45 45 -113v-128q0 -67 -46 -115zM162 461h196l50 -46l-50 -46h-196l-50 46zM153 465l-47 -43q-46 48 -46 115v128q0 68 45 113l48 -46v-267zM367 365l47 43q46 -48 46 -115v-128
q0 -68 -45 -113l-48 46v267zM322 840h-57v63l21 22q15 16 25.5 20.5t35.5 4.5h57v-28z" />
    <glyph glyph-name="Thorn" unicode="&#xde;" 
d="M414 422l-47 43v267l48 46q45 -45 45 -113v-128q0 -67 -46 -115zM360 739h-200l-48 46q47 45 113 45h70q66 0 113 -45zM162 461h196l50 -46l-50 -46h-196l-50 46zM153 465l-47 -43q-46 48 -46 115v128q0 68 45 113l48 -46v-267zM106 408l47 -43v-267l-48 -46
q-45 45 -45 113v128q0 67 46 115z" />
    <glyph glyph-name="germandbls" unicode="&#xdf;" 
d="M408 739h-248l-48 46q47 45 113 45h70q66 0 113 -45v-46zM232 369v92h126l50 -46l-50 -46h-126zM153 465l-47 -43q-46 48 -46 115v128q0 68 45 113l48 -46v-267zM232 0v91h128l48 -46q-47 -45 -113 -45h-63zM367 365l47 43q46 -48 46 -115v-128q0 -68 -45 -113l-48 46
v267zM106 408l47 -43v-267l-48 -46q-45 45 -45 113v128q0 67 46 115zM232 493l91 236h85v-20l-90 -238h-86v22z" />
    <glyph glyph-name="agrave" unicode="&#xe0;" 
d="M360 739h-200l-48 46q47 45 113 45h70q66 0 113 -45zM414 422l-47 43v267l48 46q45 -45 45 -113v-128q0 -67 -46 -115zM162 461h196l50 -46l-50 -46h-196l-50 46zM160 91h200l48 -46q-47 -45 -113 -45h-70q-66 0 -113 45zM367 365l47 43q46 -48 46 -115v-128
q0 -68 -45 -113l-48 46v267zM106 408l47 -43v-267l-48 -46q-45 45 -45 113v128q0 67 46 115zM255 840h-57l-82 82v28h57q25 0 35.5 -4.5t25.5 -20.5l21 -22v-63z" />
    <glyph glyph-name="aacute" unicode="&#xe1;" 
d="M360 739h-200l-48 46q47 45 113 45h70q66 0 113 -45zM414 422l-47 43v267l48 46q45 -45 45 -113v-128q0 -67 -46 -115zM162 461h196l50 -46l-50 -46h-196l-50 46zM160 91h200l48 -46q-47 -45 -113 -45h-70q-66 0 -113 45zM367 365l47 43q46 -48 46 -115v-128
q0 -68 -45 -113l-48 46v267zM106 408l47 -43v-267l-48 -46q-45 45 -45 113v128q0 67 46 115zM322 840h-57v63l21 22q15 16 25.5 20.5t35.5 4.5h57v-28z" />
    <glyph glyph-name="acircumflex" unicode="&#xe2;" 
d="M360 739h-200l-48 46q47 45 113 45h70q66 0 113 -45zM414 422l-47 43v267l48 46q45 -45 45 -113v-128q0 -67 -46 -115zM162 461h196l50 -46l-50 -46h-196l-50 46zM160 91h200l48 -46q-47 -45 -113 -45h-70q-66 0 -113 45zM367 365l47 43q46 -48 46 -115v-128
q0 -68 -45 -113l-48 46v267zM106 408l47 -43v-267l-48 -46q-45 45 -45 113v128q0 67 46 115zM255 950v-63l-21 -22q-15 -16 -25.5 -20.5t-35.5 -4.5h-57v28l82 82h57zM322 950l82 -82v-28h-57q-25 0 -35.5 4.5t-25.5 20.5l-21 22v63h57z" />
    <glyph glyph-name="atilde" unicode="&#xe3;" 
d="M360 739h-200l-48 46q47 45 113 45h70q66 0 113 -45zM414 422l-47 43v267l48 46q45 -45 45 -113v-128q0 -67 -46 -115zM162 461h196l50 -46l-50 -46h-196l-50 46zM160 91h200l48 -46q-47 -45 -113 -45h-70q-66 0 -113 45zM367 365l47 43q46 -48 46 -115v-128
q0 -68 -45 -113l-48 46v267zM106 408l47 -43v-267l-48 -46q-45 45 -45 113v128q0 67 46 115zM118 849v11q20 33 55 53t77 20h152v-11q-20 -33 -55.5 -53t-76.5 -20h-152z" />
    <glyph glyph-name="adieresis" unicode="&#xe4;" 
d="M360 739h-200l-48 46q47 45 113 45h70q66 0 113 -45zM414 422l-47 43v267l48 46q45 -45 45 -113v-128q0 -67 -46 -115zM162 461h196l50 -46l-50 -46h-196l-50 46zM160 91h200l48 -46q-47 -45 -113 -45h-70q-66 0 -113 45zM367 365l47 43q46 -48 46 -115v-128
q0 -68 -45 -113l-48 46v267zM106 408l47 -43v-267l-48 -46q-45 45 -45 113v128q0 67 46 115zM295 895q0 19 13 32t32 13t32 -13t13 -32t-13 -32t-32 -13t-32 13t-13 32zM135 895q0 19 13 32t32 13t32 -13t13 -32t-13 -32t-32 -13t-32 13t-13 32z" />
    <glyph glyph-name="aring" unicode="&#xe5;" 
d="M360 739h-200l-48 46q47 45 113 45h70q66 0 113 -45zM414 422l-47 43v267l48 46q45 -45 45 -113v-128q0 -67 -46 -115zM162 461h196l50 -46l-50 -46h-196l-50 46zM160 91h200l48 -46q-47 -45 -113 -45h-70q-66 0 -113 45zM367 365l47 43q46 -48 46 -115v-128
q0 -68 -45 -113l-48 46v267zM106 408l47 -43v-267l-48 -46q-45 45 -45 113v128q0 67 46 115zM205 895q0 23 16.5 39t38.5 16t38.5 -16t16.5 -39t-16.5 -39t-38.5 -16t-38.5 16t-16.5 39zM244 895q0 -16 16 -16t16 16t-16 16t-16 -16z" />
    <glyph glyph-name="ae" unicode="&#xe6;" horiz-adv-x="1040" 
d="M414 422l-47 43v267l48 46q45 -45 45 -113v-128q0 -67 -46 -115zM360 739h-200l-48 46q47 45 113 45h70q66 0 113 -45zM162 461h196l50 -46l-50 -46h-196l-50 46zM160 91h200l48 -46q-47 -45 -113 -45h-70q-66 0 -113 45zM367 365l47 43q46 -48 46 -115v-128
q0 -68 -45 -113l-48 46v267zM106 408l47 -43v-267l-48 -46q-45 45 -45 113v128q0 67 46 115zM880 739h-200l-48 46q47 45 113 45h70q66 0 113 -45zM682 461h196l50 -46l-50 -46h-196l-50 46zM673 465l-47 -43q-46 48 -46 115v128q0 68 45 113l48 -46v-267zM680 91h200
l48 -46q-47 -45 -113 -45h-70q-66 0 -113 45zM626 408l47 -43v-267l-48 -46q-45 45 -45 113v128q0 67 46 115zM934 422l-47 43v267l48 46q45 -45 45 -113v-128q0 -67 -46 -115z" />
    <glyph glyph-name="ccedilla" unicode="&#xe7;" 
d="M360 739h-200l-48 46q47 45 113 45h70q66 0 113 -45zM153 465l-47 -43q-46 48 -46 115v128q0 68 45 113l48 -46v-267zM160 91h200l48 -46q-47 -45 -113 -45h-70q-66 0 -113 45zM106 408l47 -43v-267l-48 -46q-45 45 -45 113v128q0 67 46 115zM255 -73l-21 -22
q-15 -16 -25.5 -20.5t-35.5 -4.5h-57v28l82 82h57v-63z" />
    <glyph glyph-name="egrave" unicode="&#xe8;" 
d="M360 739h-200l-48 46q47 45 113 45h70q66 0 113 -45zM414 422l-47 43v267l48 46q45 -45 45 -113v-128q0 -67 -46 -115zM162 461h196l50 -46l-50 -46h-196l-50 46zM153 465l-47 -43q-46 48 -46 115v128q0 68 45 113l48 -46v-267zM160 91h200l48 -46q-47 -45 -113 -45h-70
q-66 0 -113 45zM106 408l47 -43v-267l-48 -46q-45 45 -45 113v128q0 67 46 115zM255 840h-57l-82 82v28h57q25 0 35.5 -4.5t25.5 -20.5l21 -22v-63z" />
    <glyph glyph-name="eacute" unicode="&#xe9;" 
d="M360 739h-200l-48 46q47 45 113 45h70q66 0 113 -45zM414 422l-47 43v267l48 46q45 -45 45 -113v-128q0 -67 -46 -115zM162 461h196l50 -46l-50 -46h-196l-50 46zM153 465l-47 -43q-46 48 -46 115v128q0 68 45 113l48 -46v-267zM160 91h200l48 -46q-47 -45 -113 -45h-70
q-66 0 -113 45zM106 408l47 -43v-267l-48 -46q-45 45 -45 113v128q0 67 46 115zM322 840h-57v63l21 22q15 16 25.5 20.5t35.5 4.5h57v-28z" />
    <glyph glyph-name="ecircumflex" unicode="&#xea;" 
d="M360 739h-200l-48 46q47 45 113 45h70q66 0 113 -45zM414 422l-47 43v267l48 46q45 -45 45 -113v-128q0 -67 -46 -115zM162 461h196l50 -46l-50 -46h-196l-50 46zM153 465l-47 -43q-46 48 -46 115v128q0 68 45 113l48 -46v-267zM160 91h200l48 -46q-47 -45 -113 -45h-70
q-66 0 -113 45zM106 408l47 -43v-267l-48 -46q-45 45 -45 113v128q0 67 46 115zM255 950v-63l-21 -22q-15 -16 -25.5 -20.5t-35.5 -4.5h-57v28l82 82h57zM322 950l82 -82v-28h-57q-25 0 -35.5 4.5t-25.5 20.5l-21 22v63h57z" />
    <glyph glyph-name="edieresis" unicode="&#xeb;" 
d="M295 895q0 19 13 32t32 13t32 -13t13 -32t-13 -32t-32 -13t-32 13t-13 32zM135 895q0 19 13 32t32 13t32 -13t13 -32t-13 -32t-32 -13t-32 13t-13 32zM360 739h-200l-48 46q47 45 113 45h70q66 0 113 -45zM414 422l-47 43v267l48 46q45 -45 45 -113v-128q0 -67 -46 -115z
M162 461h196l50 -46l-50 -46h-196l-50 46zM153 465l-47 -43q-46 48 -46 115v128q0 68 45 113l48 -46v-267zM160 91h200l48 -46q-47 -45 -113 -45h-70q-66 0 -113 45zM106 408l47 -43v-267l-48 -46q-45 45 -45 113v128q0 67 46 115z" />
    <glyph glyph-name="igrave" unicode="&#xec;" 
d="M260 441l-43 27v296h86v-296zM217 362l43 27l43 -27v-296h-86v296zM255 840h-57l-82 82v28h57q25 0 35.5 -4.5t25.5 -20.5l21 -22v-63z" />
    <glyph glyph-name="iacute" unicode="&#xed;" 
d="M260 441l-43 27v296h86v-296zM217 362l43 27l43 -27v-296h-86v296zM322 840h-57v63l21 22q15 16 25.5 20.5t35.5 4.5h57v-28z" />
    <glyph glyph-name="icircumflex" unicode="&#xee;" 
d="M255 950v-63l-21 -22q-15 -16 -25.5 -20.5t-35.5 -4.5h-57v28l82 82h57zM322 950l82 -82v-28h-57q-25 0 -35.5 4.5t-25.5 20.5l-21 22v63h57zM260 441l-43 27v296h86v-296zM217 362l43 27l43 -27v-296h-86v296z" />
    <glyph glyph-name="idieresis" unicode="&#xef;" 
d="M260 441l-43 27v296h86v-296zM217 362l43 27l43 -27v-296h-86v296zM295 895q0 19 13 32t32 13t32 -13t13 -32t-13 -32t-32 -13t-32 13t-13 32zM135 895q0 19 13 32t32 13t32 -13t13 -32t-13 -32t-32 -13t-32 13t-13 32z" />
    <glyph glyph-name="eth" unicode="&#xf0;" 
d="M510 461v-92h-57l-30 46l30 46h57zM414 422l-47 43v267l48 46q45 -45 45 -113v-128q0 -67 -46 -115zM162 461h196l50 -46l-50 -46h-196l-50 46zM160 91h200l48 -46q-47 -45 -113 -45h-70q-66 0 -113 45zM367 365l47 43q46 -48 46 -115v-128q0 -68 -45 -113l-48 46v267z
M106 408l47 -43v-267l-48 -46q-45 45 -45 113v128q0 67 46 115z" />
    <glyph glyph-name="ntilde" unicode="&#xf1;" 
d="M360 739h-200l-48 46q47 45 113 45h70q66 0 113 -45zM414 422l-47 43v267l48 46q45 -45 45 -113v-128q0 -67 -46 -115zM153 465l-47 -43q-46 48 -46 115v128q0 68 45 113l48 -46v-267zM367 365l47 43q46 -48 46 -115v-128q0 -68 -45 -113l-48 46v267zM106 408l47 -43
v-267l-48 -46q-45 45 -45 113v128q0 67 46 115zM118 849v11q20 33 55 53t77 20h152v-11q-20 -33 -55.5 -53t-76.5 -20h-152z" />
    <glyph glyph-name="ograve" unicode="&#xf2;" 
d="M360 739h-200l-48 46q47 45 113 45h70q66 0 113 -45zM414 422l-47 43v267l48 46q45 -45 45 -113v-128q0 -67 -46 -115zM153 465l-47 -43q-46 48 -46 115v128q0 68 45 113l48 -46v-267zM160 91h200l48 -46q-47 -45 -113 -45h-70q-66 0 -113 45zM367 365l47 43
q46 -48 46 -115v-128q0 -68 -45 -113l-48 46v267zM106 408l47 -43v-267l-48 -46q-45 45 -45 113v128q0 67 46 115zM255 840h-57l-82 82v28h57q25 0 35.5 -4.5t25.5 -20.5l21 -22v-63z" />
    <glyph glyph-name="oacute" unicode="&#xf3;" 
d="M360 739h-200l-48 46q47 45 113 45h70q66 0 113 -45zM414 422l-47 43v267l48 46q45 -45 45 -113v-128q0 -67 -46 -115zM153 465l-47 -43q-46 48 -46 115v128q0 68 45 113l48 -46v-267zM160 91h200l48 -46q-47 -45 -113 -45h-70q-66 0 -113 45zM367 365l47 43
q46 -48 46 -115v-128q0 -68 -45 -113l-48 46v267zM106 408l47 -43v-267l-48 -46q-45 45 -45 113v128q0 67 46 115zM322 840h-57v63l21 22q15 16 25.5 20.5t35.5 4.5h57v-28z" />
    <glyph glyph-name="ocircumflex" unicode="&#xf4;" 
d="M360 739h-200l-48 46q47 45 113 45h70q66 0 113 -45zM414 422l-47 43v267l48 46q45 -45 45 -113v-128q0 -67 -46 -115zM153 465l-47 -43q-46 48 -46 115v128q0 68 45 113l48 -46v-267zM160 91h200l48 -46q-47 -45 -113 -45h-70q-66 0 -113 45zM367 365l47 43
q46 -48 46 -115v-128q0 -68 -45 -113l-48 46v267zM106 408l47 -43v-267l-48 -46q-45 45 -45 113v128q0 67 46 115zM255 950v-63l-21 -22q-15 -16 -25.5 -20.5t-35.5 -4.5h-57v28l82 82h57zM322 950l82 -82v-28h-57q-25 0 -35.5 4.5t-25.5 20.5l-21 22v63h57z" />
    <glyph glyph-name="otilde" unicode="&#xf5;" 
d="M360 739h-200l-48 46q47 45 113 45h70q66 0 113 -45zM414 422l-47 43v267l48 46q45 -45 45 -113v-128q0 -67 -46 -115zM153 465l-47 -43q-46 48 -46 115v128q0 68 45 113l48 -46v-267zM160 91h200l48 -46q-47 -45 -113 -45h-70q-66 0 -113 45zM367 365l47 43
q46 -48 46 -115v-128q0 -68 -45 -113l-48 46v267zM106 408l47 -43v-267l-48 -46q-45 45 -45 113v128q0 67 46 115zM118 849v11q20 33 55 53t77 20h152v-11q-20 -33 -55.5 -53t-76.5 -20h-152z" />
    <glyph glyph-name="odieresis" unicode="&#xf6;" 
d="M295 895q0 19 13 32t32 13t32 -13t13 -32t-13 -32t-32 -13t-32 13t-13 32zM135 895q0 19 13 32t32 13t32 -13t13 -32t-13 -32t-32 -13t-32 13t-13 32zM360 739h-200l-48 46q47 45 113 45h70q66 0 113 -45zM414 422l-47 43v267l48 46q45 -45 45 -113v-128q0 -67 -46 -115z
M153 465l-47 -43q-46 48 -46 115v128q0 68 45 113l48 -46v-267zM160 91h200l48 -46q-47 -45 -113 -45h-70q-66 0 -113 45zM367 365l47 43q46 -48 46 -115v-128q0 -68 -45 -113l-48 46v267zM106 408l47 -43v-267l-48 -46q-45 45 -45 113v128q0 67 46 115z" />
    <glyph glyph-name="divide" unicode="&#xf7;" 
d="M456 370h-96l-69 13h-62l-69 -13h-96v90h96l69 -13h62l69 13h96v-90zM297 542h-74l-4 24v65h82v-65zM301 199h-82v65l4 24h74l4 -24v-65z" />
    <glyph glyph-name="oslash" unicode="&#xf8;" 
d="M360 739h-200l-48 46q47 45 113 45h70q66 0 113 -45zM414 422l-47 43v267l48 46q45 -45 45 -113v-128q0 -67 -46 -115zM153 465l-47 -43q-46 48 -46 115v128q0 68 45 113l48 -46v-267zM160 91h200l48 -46q-47 -45 -113 -45h-70q-66 0 -113 45zM367 365l47 43
q46 -48 46 -115v-128q0 -68 -45 -113l-48 46v267zM106 408l47 -43v-267l-48 -46q-45 45 -45 113v128q0 67 46 115zM163 121l142 608h52v-20l-142 -608h-52v20z" />
    <glyph glyph-name="ugrave" unicode="&#xf9;" 
d="M106 408l47 -43v-267l-48 -46q-45 45 -45 113v128q0 67 46 115zM414 422l-47 43v267l48 46q45 -45 45 -113v-128q0 -67 -46 -115zM153 465l-47 -43q-46 48 -46 115v128q0 68 45 113l48 -46v-267zM160 91h200l48 -46q-47 -45 -113 -45h-70q-66 0 -113 45zM367 365l47 43
q46 -48 46 -115v-128q0 -68 -45 -113l-48 46v267zM255 840h-57l-82 82v28h57q25 0 35.5 -4.5t25.5 -20.5l21 -22v-63z" />
    <glyph glyph-name="uacute" unicode="&#xfa;" 
d="M106 408l47 -43v-267l-48 -46q-45 45 -45 113v128q0 67 46 115zM414 422l-47 43v267l48 46q45 -45 45 -113v-128q0 -67 -46 -115zM153 465l-47 -43q-46 48 -46 115v128q0 68 45 113l48 -46v-267zM160 91h200l48 -46q-47 -45 -113 -45h-70q-66 0 -113 45zM367 365l47 43
q46 -48 46 -115v-128q0 -68 -45 -113l-48 46v267zM322 840h-57v63l21 22q15 16 25.5 20.5t35.5 4.5h57v-28z" />
    <glyph glyph-name="ucircumflex" unicode="&#xfb;" 
d="M106 408l47 -43v-267l-48 -46q-45 45 -45 113v128q0 67 46 115zM414 422l-47 43v267l48 46q45 -45 45 -113v-128q0 -67 -46 -115zM153 465l-47 -43q-46 48 -46 115v128q0 68 45 113l48 -46v-267zM160 91h200l48 -46q-47 -45 -113 -45h-70q-66 0 -113 45zM367 365l47 43
q46 -48 46 -115v-128q0 -68 -45 -113l-48 46v267zM255 950v-63l-21 -22q-15 -16 -25.5 -20.5t-35.5 -4.5h-57v28l82 82h57zM322 950l82 -82v-28h-57q-25 0 -35.5 4.5t-25.5 20.5l-21 22v63h57z" />
    <glyph glyph-name="udieresis" unicode="&#xfc;" 
d="M295 895q0 19 13 32t32 13t32 -13t13 -32t-13 -32t-32 -13t-32 13t-13 32zM135 895q0 19 13 32t32 13t32 -13t13 -32t-13 -32t-32 -13t-32 13t-13 32zM106 408l47 -43v-267l-48 -46q-45 45 -45 113v128q0 67 46 115zM414 422l-47 43v267l48 46q45 -45 45 -113v-128
q0 -67 -46 -115zM153 465l-47 -43q-46 48 -46 115v128q0 68 45 113l48 -46v-267zM160 91h200l48 -46q-47 -45 -113 -45h-70q-66 0 -113 45zM367 365l47 43q46 -48 46 -115v-128q0 -68 -45 -113l-48 46v267z" />
    <glyph glyph-name="yacute" unicode="&#xfd;" 
d="M414 422l-47 43v267l48 46q45 -45 45 -113v-128q0 -67 -46 -115zM162 461h196l50 -46l-50 -46h-196l-50 46zM153 465l-47 -43q-46 48 -46 115v128q0 68 45 113l48 -46v-267zM160 91h200l48 -46q-47 -45 -113 -45h-70q-66 0 -113 45zM367 365l47 43q46 -48 46 -115v-128
q0 -68 -45 -113l-48 46v267zM322 840h-57v63l21 22q15 16 25.5 20.5t35.5 4.5h57v-28z" />
    <glyph glyph-name="thorn" unicode="&#xfe;" 
d="M360 739h-200l-48 46q47 45 113 45h70q66 0 113 -45zM414 422l-47 43v267l48 46q45 -45 45 -113v-128q0 -67 -46 -115zM162 461h196l50 -46l-50 -46h-196l-50 46zM153 465l-47 -43q-46 48 -46 115v128q0 68 45 113l48 -46v-267zM106 408l47 -43v-267l-48 -46
q-45 45 -45 113v128q0 67 46 115z" />
    <glyph glyph-name="ydieresis" unicode="&#xff;" 
d="M414 422l-47 43v267l48 46q45 -45 45 -113v-128q0 -67 -46 -115zM162 461h196l50 -46l-50 -46h-196l-50 46zM153 465l-47 -43q-46 48 -46 115v128q0 68 45 113l48 -46v-267zM160 91h200l48 -46q-47 -45 -113 -45h-70q-66 0 -113 45zM367 365l47 43q46 -48 46 -115v-128
q0 -68 -45 -113l-48 46v267zM295 895q0 19 13 32t32 13t32 -13t13 -32t-13 -32t-32 -13t-32 13t-13 32zM135 895q0 19 13 32t32 13t32 -13t13 -32t-13 -32t-32 -13t-32 13t-13 32z" />
    <glyph glyph-name="Amacron" unicode="&#x100;" 
d="M367 365l47 43q46 -48 46 -115v-128q0 -68 -45 -113l-48 46v267zM106 408l47 -43v-267l-48 -46q-45 45 -45 113v128q0 67 46 115zM255 830v-62l-102 -303l-47 -43q-38 60 -15 132l90 276h74zM162 461h196l50 -46l-50 -46h-196l-50 46zM339 830l90 -276q23 -72 -15 -132
l-47 43l-102 303v62h74zM118 849v11q20 33 55 53t77 20h20q42 0 77 -20t55 -53v-11h-284z" />
    <glyph glyph-name="amacron" unicode="&#x101;" 
d="M360 739h-200l-48 46q47 45 113 45h70q66 0 113 -45zM414 422l-47 43v267l48 46q45 -45 45 -113v-128q0 -67 -46 -115zM162 461h196l50 -46l-50 -46h-196l-50 46zM160 91h200l48 -46q-47 -45 -113 -45h-70q-66 0 -113 45zM367 365l47 43q46 -48 46 -115v-128
q0 -68 -45 -113l-48 46v267zM106 408l47 -43v-267l-48 -46q-45 45 -45 113v128q0 67 46 115zM118 849v11q20 33 55 53t77 20h20q42 0 77 -20t55 -53v-11h-284z" />
    <glyph glyph-name="Abreve" unicode="&#x102;" 
d="M367 365l47 43q46 -48 46 -115v-128q0 -68 -45 -113l-48 46v267zM106 408l47 -43v-267l-48 -46q-45 45 -45 113v128q0 67 46 115zM255 830v-62l-102 -303l-47 -43q-38 60 -15 132l90 276h74zM162 461h196l50 -46l-50 -46h-196l-50 46zM339 830l90 -276q23 -72 -15 -132
l-47 43l-102 303v62h74zM402 933v-11q-20 -33 -55.5 -53t-76.5 -20h-20q-41 0 -76.5 20t-55.5 53v11h284z" />
    <glyph glyph-name="abreve" unicode="&#x103;" 
d="M360 739h-200l-48 46q47 45 113 45h70q66 0 113 -45zM414 422l-47 43v267l48 46q45 -45 45 -113v-128q0 -67 -46 -115zM162 461h196l50 -46l-50 -46h-196l-50 46zM160 91h200l48 -46q-47 -45 -113 -45h-70q-66 0 -113 45zM367 365l47 43q46 -48 46 -115v-128
q0 -68 -45 -113l-48 46v267zM106 408l47 -43v-267l-48 -46q-45 45 -45 113v128q0 67 46 115zM402 933v-11q-20 -33 -55.5 -53t-76.5 -20h-20q-41 0 -76.5 20t-55.5 53v11h284z" />
    <glyph glyph-name="Aogonek" unicode="&#x104;" 
d="M367 365l47 43q46 -48 46 -115v-128q0 -68 -45 -113l-48 46v267zM106 408l47 -43v-267l-48 -46q-45 45 -45 113v128q0 67 46 115zM255 830v-62l-102 -303l-47 -43q-38 60 -15 132l90 276h74zM162 461h196l50 -46l-50 -46h-196l-50 46zM339 830l90 -276q23 -72 -15 -132
l-47 43l-102 303v62h74zM366 -73v63h57l82 -82v-28h-57q-25 0 -35.5 4.5t-25.5 20.5z" />
    <glyph glyph-name="aogonek" unicode="&#x105;" 
d="M360 739h-200l-48 46q47 45 113 45h70q66 0 113 -45zM414 422l-47 43v267l48 46q45 -45 45 -113v-128q0 -67 -46 -115zM162 461h196l50 -46l-50 -46h-196l-50 46zM160 91h200l48 -46q-47 -45 -113 -45h-70q-66 0 -113 45zM367 365l47 43q46 -48 46 -115v-128
q0 -68 -45 -113l-48 46v267zM106 408l47 -43v-267l-48 -46q-45 45 -45 113v128q0 67 46 115zM265 -73v63h57l82 -82v-28h-57q-25 0 -35.5 4.5t-25.5 20.5z" />
    <glyph glyph-name="Cacute" unicode="&#x106;" 
d="M160 91h200l48 -46q-47 -45 -113 -45h-70q-66 0 -113 45zM360 739h-200l-48 46q47 45 113 45h70q66 0 113 -45zM153 465l-47 -43q-46 48 -46 115v128q0 68 45 113l48 -46v-267zM106 408l47 -43v-267l-48 -46q-45 45 -45 113v128q0 67 46 115zM322 840h-57v63l21 22
q15 16 25.5 20.5t35.5 4.5h57v-28z" />
    <glyph glyph-name="cacute" unicode="&#x107;" 
d="M360 739h-200l-48 46q47 45 113 45h70q66 0 113 -45zM153 465l-47 -43q-46 48 -46 115v128q0 68 45 113l48 -46v-267zM160 91h200l48 -46q-47 -45 -113 -45h-70q-66 0 -113 45zM106 408l47 -43v-267l-48 -46q-45 45 -45 113v128q0 67 46 115zM322 840h-57v63l21 22
q15 16 25.5 20.5t35.5 4.5h57v-28z" />
    <glyph glyph-name="Ccircumflex" unicode="&#x108;" 
d="M160 91h200l48 -46q-47 -45 -113 -45h-70q-66 0 -113 45zM360 739h-200l-48 46q47 45 113 45h70q66 0 113 -45zM153 465l-47 -43q-46 48 -46 115v128q0 68 45 113l48 -46v-267zM106 408l47 -43v-267l-48 -46q-45 45 -45 113v128q0 67 46 115zM255 950v-63l-21 -22
q-15 -16 -25.5 -20.5t-35.5 -4.5h-57v28l82 82h57zM322 950l82 -82v-28h-57q-25 0 -35.5 4.5t-25.5 20.5l-21 22v63h57z" />
    <glyph glyph-name="ccircumflex" unicode="&#x109;" 
d="M360 739h-200l-48 46q47 45 113 45h70q66 0 113 -45zM153 465l-47 -43q-46 48 -46 115v128q0 68 45 113l48 -46v-267zM160 91h200l48 -46q-47 -45 -113 -45h-70q-66 0 -113 45zM106 408l47 -43v-267l-48 -46q-45 45 -45 113v128q0 67 46 115zM255 950v-63l-21 -22
q-15 -16 -25.5 -20.5t-35.5 -4.5h-57v28l82 82h57zM322 950l82 -82v-28h-57q-25 0 -35.5 4.5t-25.5 20.5l-21 22v63h57z" />
    <glyph glyph-name="Cdotaccent" unicode="&#x10a;" 
d="M160 91h200l48 -46q-47 -45 -113 -45h-70q-66 0 -113 45zM360 739h-200l-48 46q47 45 113 45h70q66 0 113 -45zM153 465l-47 -43q-46 48 -46 115v128q0 68 45 113l48 -46v-267zM106 408l47 -43v-267l-48 -46q-45 45 -45 113v128q0 67 46 115zM215 895q0 19 13 32t32 13
t32 -13t13 -32t-13 -32t-32 -13t-32 13t-13 32z" />
    <glyph glyph-name="cdotaccent" unicode="&#x10b;" 
d="M360 739h-200l-48 46q47 45 113 45h70q66 0 113 -45zM153 465l-47 -43q-46 48 -46 115v128q0 68 45 113l48 -46v-267zM160 91h200l48 -46q-47 -45 -113 -45h-70q-66 0 -113 45zM106 408l47 -43v-267l-48 -46q-45 45 -45 113v128q0 67 46 115zM215 895q0 19 13 32t32 13
t32 -13t13 -32t-13 -32t-32 -13t-32 13t-13 32z" />
    <glyph glyph-name="Ccaron" unicode="&#x10c;" 
d="M255 840h-57l-82 82v28h57q25 0 35.5 -4.5t25.5 -20.5l21 -22v-63zM322 840h-57v63l21 22q15 16 25.5 20.5t35.5 4.5h57v-28zM160 91h200l48 -46q-47 -45 -113 -45h-70q-66 0 -113 45zM360 739h-200l-48 46q47 45 113 45h70q66 0 113 -45zM153 465l-47 -43
q-46 48 -46 115v128q0 68 45 113l48 -46v-267zM106 408l47 -43v-267l-48 -46q-45 45 -45 113v128q0 67 46 115z" />
    <glyph glyph-name="ccaron" unicode="&#x10d;" 
d="M255 840h-57l-82 82v28h57q25 0 35.5 -4.5t25.5 -20.5l21 -22v-63zM322 840h-57v63l21 22q15 16 25.5 20.5t35.5 4.5h57v-28zM360 739h-200l-48 46q47 45 113 45h70q66 0 113 -45zM153 465l-47 -43q-46 48 -46 115v128q0 68 45 113l48 -46v-267zM160 91h200l48 -46
q-47 -45 -113 -45h-70q-66 0 -113 45zM106 408l47 -43v-267l-48 -46q-45 45 -45 113v128q0 67 46 115z" />
    <glyph glyph-name="Dcaron" unicode="&#x10e;" 
d="M255 840h-57l-82 82v28h57q25 0 35.5 -4.5t25.5 -20.5l21 -22v-63zM322 840h-57v63l21 22q15 16 25.5 20.5t35.5 4.5h57v-28zM153 465l-47 -43q-46 48 -46 115v128q0 68 45 113l48 -46v-267zM360 739h-200l-48 46q47 45 113 45h70q66 0 113 -45zM414 422l-47 43v267
l48 46q45 -45 45 -113v-128q0 -67 -46 -115zM160 91h200l48 -46q-47 -45 -113 -45h-70q-66 0 -113 45zM367 365l47 43q46 -48 46 -115v-128q0 -68 -45 -113l-48 46v267zM106 408l47 -43v-267l-48 -46q-45 45 -45 113v128q0 67 46 115zM60 830h112q-57 -20 -91 -68h-21v68z
M60 0v68h21q34 -48 91 -68h-112z" />
    <glyph glyph-name="dcaron" unicode="&#x10f;" 
d="M414 422l-47 43v267l48 46q45 -45 45 -113v-128q0 -67 -46 -115zM162 461h196l50 -46l-50 -46h-196l-50 46zM160 91h200l48 -46q-47 -45 -113 -45h-70q-66 0 -113 45zM367 365l47 43q46 -48 46 -115v-128q0 -68 -45 -113l-48 46v267zM106 408l47 -43v-267l-48 -46
q-45 45 -45 113v128q0 67 46 115zM310 687h-45v63l21 23q15 16 25.5 20t35.5 4h45v-30z" />
    <glyph glyph-name="Dcroat" unicode="&#x110;" 
d="M360 739h-200l-48 46q47 45 113 45h70q66 0 113 -45zM414 422l-47 43v267l48 46q45 -45 45 -113v-128q0 -67 -46 -115zM153 465l-47 -43q-46 48 -46 115v128q0 68 45 113l48 -46v-267zM160 91h200l48 -46q-47 -45 -113 -45h-70q-66 0 -113 45zM367 365l47 43
q46 -48 46 -115v-128q0 -68 -45 -113l-48 46v267zM106 408l47 -43v-267l-48 -46q-45 45 -45 113v128q0 67 46 115zM10 461h57l30 -46l-30 -46h-57v92zM60 830h112q-57 -20 -91 -68h-21v68zM60 0v68h21q34 -48 91 -68h-112z" />
    <glyph glyph-name="dcroat" unicode="&#x111;" 
d="M510 461v-92h-57l-30 46l30 46h57zM414 422l-47 43v267l48 46q45 -45 45 -113v-128q0 -67 -46 -115zM162 461h196l50 -46l-50 -46h-196l-50 46zM160 91h200l48 -46q-47 -45 -113 -45h-70q-66 0 -113 45zM367 365l47 43q46 -48 46 -115v-128q0 -68 -45 -113l-48 46v267z
M106 408l47 -43v-267l-48 -46q-45 45 -45 113v128q0 67 46 115z" />
    <glyph glyph-name="Emacron" unicode="&#x112;" 
d="M162 461h196l50 -46l-50 -46h-196l-50 46zM160 91h200l48 -46q-47 -45 -113 -45h-70q-66 0 -113 45zM360 739h-200l-48 46q47 45 113 45h70q66 0 113 -45zM153 465l-47 -43q-46 48 -46 115v128q0 68 45 113l48 -46v-267zM106 408l47 -43v-267l-48 -46q-45 45 -45 113v128
q0 67 46 115zM118 849v11q20 33 55 53t77 20h20q42 0 77 -20t55 -53v-11h-284z" />
    <glyph glyph-name="emacron" unicode="&#x113;" 
d="M360 739h-200l-48 46q47 45 113 45h70q66 0 113 -45zM414 422l-47 43v267l48 46q45 -45 45 -113v-128q0 -67 -46 -115zM162 461h196l50 -46l-50 -46h-196l-50 46zM153 465l-47 -43q-46 48 -46 115v128q0 68 45 113l48 -46v-267zM160 91h200l48 -46q-47 -45 -113 -45h-70
q-66 0 -113 45zM106 408l47 -43v-267l-48 -46q-45 45 -45 113v128q0 67 46 115zM118 849v11q20 33 55 53t77 20h20q42 0 77 -20t55 -53v-11h-284z" />
    <glyph glyph-name="Ebreve" unicode="&#x114;" 
d="M162 461h196l50 -46l-50 -46h-196l-50 46zM160 91h200l48 -46q-47 -45 -113 -45h-70q-66 0 -113 45zM360 739h-200l-48 46q47 45 113 45h70q66 0 113 -45zM153 465l-47 -43q-46 48 -46 115v128q0 68 45 113l48 -46v-267zM106 408l47 -43v-267l-48 -46q-45 45 -45 113v128
q0 67 46 115zM402 933v-11q-20 -33 -55.5 -53t-76.5 -20h-20q-41 0 -76.5 20t-55.5 53v11h284z" />
    <glyph glyph-name="ebreve" unicode="&#x115;" 
d="M360 739h-200l-48 46q47 45 113 45h70q66 0 113 -45zM414 422l-47 43v267l48 46q45 -45 45 -113v-128q0 -67 -46 -115zM162 461h196l50 -46l-50 -46h-196l-50 46zM153 465l-47 -43q-46 48 -46 115v128q0 68 45 113l48 -46v-267zM160 91h200l48 -46q-47 -45 -113 -45h-70
q-66 0 -113 45zM106 408l47 -43v-267l-48 -46q-45 45 -45 113v128q0 67 46 115zM402 933v-11q-20 -33 -55.5 -53t-76.5 -20h-20q-41 0 -76.5 20t-55.5 53v11h284z" />
    <glyph glyph-name="Edotaccent" unicode="&#x116;" 
d="M162 461h196l50 -46l-50 -46h-196l-50 46zM160 91h200l48 -46q-47 -45 -113 -45h-70q-66 0 -113 45zM360 739h-200l-48 46q47 45 113 45h70q66 0 113 -45zM153 465l-47 -43q-46 48 -46 115v128q0 68 45 113l48 -46v-267zM106 408l47 -43v-267l-48 -46q-45 45 -45 113v128
q0 67 46 115zM215 895q0 19 13 32t32 13t32 -13t13 -32t-13 -32t-32 -13t-32 13t-13 32z" />
    <glyph glyph-name="edotaccent" unicode="&#x117;" 
d="M360 739h-200l-48 46q47 45 113 45h70q66 0 113 -45zM414 422l-47 43v267l48 46q45 -45 45 -113v-128q0 -67 -46 -115zM162 461h196l50 -46l-50 -46h-196l-50 46zM153 465l-47 -43q-46 48 -46 115v128q0 68 45 113l48 -46v-267zM160 91h200l48 -46q-47 -45 -113 -45h-70
q-66 0 -113 45zM106 408l47 -43v-267l-48 -46q-45 45 -45 113v128q0 67 46 115zM215 895q0 19 13 32t32 13t32 -13t13 -32t-13 -32t-32 -13t-32 13t-13 32z" />
    <glyph glyph-name="Eogonek" unicode="&#x118;" 
d="M265 -73v63h57l82 -82v-28h-57q-25 0 -35.5 4.5t-25.5 20.5zM162 461h196l50 -46l-50 -46h-196l-50 46zM160 91h200l48 -46q-47 -45 -113 -45h-70q-66 0 -113 45zM360 739h-200l-48 46q47 45 113 45h70q66 0 113 -45zM153 465l-47 -43q-46 48 -46 115v128q0 68 45 113
l48 -46v-267zM106 408l47 -43v-267l-48 -46q-45 45 -45 113v128q0 67 46 115z" />
    <glyph glyph-name="eogonek" unicode="&#x119;" 
d="M360 739h-200l-48 46q47 45 113 45h70q66 0 113 -45zM414 422l-47 43v267l48 46q45 -45 45 -113v-128q0 -67 -46 -115zM162 461h196l50 -46l-50 -46h-196l-50 46zM153 465l-47 -43q-46 48 -46 115v128q0 68 45 113l48 -46v-267zM160 91h200l48 -46q-47 -45 -113 -45h-70
q-66 0 -113 45zM106 408l47 -43v-267l-48 -46q-45 45 -45 113v128q0 67 46 115zM265 -73v63h57l82 -82v-28h-57q-25 0 -35.5 4.5t-25.5 20.5z" />
    <glyph glyph-name="Ecaron" unicode="&#x11a;" 
d="M322 840h-57v63l21 22q15 16 25.5 20.5t35.5 4.5h57v-28zM162 461h196l50 -46l-50 -46h-196l-50 46zM160 91h200l48 -46q-47 -45 -113 -45h-70q-66 0 -113 45zM360 739h-200l-48 46q47 45 113 45h70q66 0 113 -45zM153 465l-47 -43q-46 48 -46 115v128q0 68 45 113
l48 -46v-267zM106 408l47 -43v-267l-48 -46q-45 45 -45 113v128q0 67 46 115zM255 840h-57l-82 82v28h57q25 0 35.5 -4.5t25.5 -20.5l21 -22v-63z" />
    <glyph glyph-name="ecaron" unicode="&#x11b;" 
d="M255 840h-57l-82 82v28h57q25 0 35.5 -4.5t25.5 -20.5l21 -22v-63zM322 840h-57v63l21 22q15 16 25.5 20.5t35.5 4.5h57v-28zM360 739h-200l-48 46q47 45 113 45h70q66 0 113 -45zM414 422l-47 43v267l48 46q45 -45 45 -113v-128q0 -67 -46 -115zM162 461h196l50 -46
l-50 -46h-196l-50 46zM153 465l-47 -43q-46 48 -46 115v128q0 68 45 113l48 -46v-267zM160 91h200l48 -46q-47 -45 -113 -45h-70q-66 0 -113 45zM106 408l47 -43v-267l-48 -46q-45 45 -45 113v128q0 67 46 115z" />
    <glyph glyph-name="Gcircumflex" unicode="&#x11c;" 
d="M360 739h-200l-48 46q47 45 113 45h70q66 0 113 -45zM153 465l-47 -43q-46 48 -46 115v128q0 68 45 113l48 -46v-267zM160 91h200l48 -46q-47 -45 -113 -45h-70q-66 0 -113 45zM367 365l47 43q46 -48 46 -115v-128q0 -68 -45 -113l-48 46v267zM106 408l47 -43v-267
l-48 -46q-45 45 -45 113v128q0 67 46 115zM255 950v-63l-21 -22q-15 -16 -25.5 -20.5t-35.5 -4.5h-57v28l82 82h57zM322 950l82 -82v-28h-57q-25 0 -35.5 4.5t-25.5 20.5l-21 22v63h57z" />
    <glyph glyph-name="gcircumflex" unicode="&#x11d;" 
d="M360 739h-200l-48 46q47 45 113 45h70q66 0 113 -45zM414 422l-47 43v267l48 46q45 -45 45 -113v-128q0 -67 -46 -115zM162 461h196l50 -46l-50 -46h-196l-50 46zM153 465l-47 -43q-46 48 -46 115v128q0 68 45 113l48 -46v-267zM160 91h200l48 -46q-47 -45 -113 -45h-70
q-66 0 -113 45zM367 365l47 43q46 -48 46 -115v-128q0 -68 -45 -113l-48 46v267zM255 950v-63l-21 -22q-15 -16 -25.5 -20.5t-35.5 -4.5h-57v28l82 82h57zM322 950l82 -82v-28h-57q-25 0 -35.5 4.5t-25.5 20.5l-21 22v63h57z" />
    <glyph glyph-name="Gbreve" unicode="&#x11e;" 
d="M360 739h-200l-48 46q47 45 113 45h70q66 0 113 -45zM153 465l-47 -43q-46 48 -46 115v128q0 68 45 113l48 -46v-267zM160 91h200l48 -46q-47 -45 -113 -45h-70q-66 0 -113 45zM367 365l47 43q46 -48 46 -115v-128q0 -68 -45 -113l-48 46v267zM106 408l47 -43v-267
l-48 -46q-45 45 -45 113v128q0 67 46 115zM402 933v-11q-20 -33 -55.5 -53t-76.5 -20h-20q-41 0 -76.5 20t-55.5 53v11h284z" />
    <glyph glyph-name="gbreve" unicode="&#x11f;" 
d="M360 739h-200l-48 46q47 45 113 45h70q66 0 113 -45zM414 422l-47 43v267l48 46q45 -45 45 -113v-128q0 -67 -46 -115zM162 461h196l50 -46l-50 -46h-196l-50 46zM153 465l-47 -43q-46 48 -46 115v128q0 68 45 113l48 -46v-267zM160 91h200l48 -46q-47 -45 -113 -45h-70
q-66 0 -113 45zM367 365l47 43q46 -48 46 -115v-128q0 -68 -45 -113l-48 46v267zM402 933v-11q-20 -33 -55.5 -53t-76.5 -20h-20q-41 0 -76.5 20t-55.5 53v11h284z" />
    <glyph glyph-name="Gdotaccent" unicode="&#x120;" 
d="M360 739h-200l-48 46q47 45 113 45h70q66 0 113 -45zM153 465l-47 -43q-46 48 -46 115v128q0 68 45 113l48 -46v-267zM160 91h200l48 -46q-47 -45 -113 -45h-70q-66 0 -113 45zM367 365l47 43q46 -48 46 -115v-128q0 -68 -45 -113l-48 46v267zM106 408l47 -43v-267
l-48 -46q-45 45 -45 113v128q0 67 46 115zM215 895q0 19 13 32t32 13t32 -13t13 -32t-13 -32t-32 -13t-32 13t-13 32z" />
    <glyph glyph-name="gdotaccent" unicode="&#x121;" 
d="M360 739h-200l-48 46q47 45 113 45h70q66 0 113 -45zM414 422l-47 43v267l48 46q45 -45 45 -113v-128q0 -67 -46 -115zM162 461h196l50 -46l-50 -46h-196l-50 46zM153 465l-47 -43q-46 48 -46 115v128q0 68 45 113l48 -46v-267zM160 91h200l48 -46q-47 -45 -113 -45h-70
q-66 0 -113 45zM367 365l47 43q46 -48 46 -115v-128q0 -68 -45 -113l-48 46v267zM215 895q0 19 13 32t32 13t32 -13t13 -32t-13 -32t-32 -13t-32 13t-13 32z" />
    <glyph glyph-name="Gcommaaccent" unicode="&#x122;" 
d="M360 739h-200l-48 46q47 45 113 45h70q66 0 113 -45zM153 465l-47 -43q-46 48 -46 115v128q0 68 45 113l48 -46v-267zM160 91h200l48 -46q-47 -45 -113 -45h-70q-66 0 -113 45zM367 365l47 43q46 -48 46 -115v-128q0 -68 -45 -113l-48 46v267zM106 408l47 -43v-267
l-48 -46q-45 45 -45 113v128q0 67 46 115zM216 -10h88q0 -65 -45 -110h-43v110z" />
    <glyph glyph-name="gcommaaccent" unicode="&#x123;" 
d="M304 840h-88q0 65 45 110h43v-110zM360 739h-200l-48 46q47 45 113 45h70q66 0 113 -45zM414 422l-47 43v267l48 46q45 -45 45 -113v-128q0 -67 -46 -115zM162 461h196l50 -46l-50 -46h-196l-50 46zM153 465l-47 -43q-46 48 -46 115v128q0 68 45 113l48 -46v-267zM160 91
h200l48 -46q-47 -45 -113 -45h-70q-66 0 -113 45zM367 365l47 43q46 -48 46 -115v-128q0 -68 -45 -113l-48 46v267z" />
    <glyph glyph-name="Hcircumflex" unicode="&#x124;" 
d="M414 422l-47 43v267l48 46q45 -45 45 -113v-128q0 -67 -46 -115zM162 461h196l50 -46l-50 -46h-196l-50 46zM153 465l-47 -43q-46 48 -46 115v128q0 68 45 113l48 -46v-267zM367 365l47 43q46 -48 46 -115v-128q0 -68 -45 -113l-48 46v267zM106 408l47 -43v-267l-48 -46
q-45 45 -45 113v128q0 67 46 115zM255 950v-63l-21 -22q-15 -16 -25.5 -20.5t-35.5 -4.5h-57v28l82 82h57zM322 950l82 -82v-28h-57q-25 0 -35.5 4.5t-25.5 20.5l-21 22v63h57z" />
    <glyph glyph-name="hcircumflex" unicode="&#x125;" 
d="M162 461h196l50 -46l-50 -46h-196l-50 46zM153 465l-47 -43q-46 48 -46 115v128q0 68 45 113l48 -46v-267zM367 365l47 43q46 -48 46 -115v-128q0 -68 -45 -113l-48 46v267zM106 408l47 -43v-267l-48 -46q-45 45 -45 113v128q0 67 46 115zM119 950v-63l-21 -22
q-15 -16 -25.5 -20.5t-35.5 -4.5h-57v28l82 82h57zM186 950l82 -82v-28h-57q-25 0 -35.5 4.5t-25.5 20.5l-21 22v63h57z" />
    <glyph glyph-name="Hbar" unicode="&#x126;" 
d="M10 461h57l30 -46l-30 -46h-57v92zM510 461v-92h-57l-30 46l30 46h57zM414 422l-47 43v267l48 46q45 -45 45 -113v-128q0 -67 -46 -115zM162 461h196l50 -46l-50 -46h-196l-50 46zM153 465l-47 -43q-46 48 -46 115v128q0 68 45 113l48 -46v-267zM367 365l47 43
q46 -48 46 -115v-128q0 -68 -45 -113l-48 46v267zM106 408l47 -43v-267l-48 -46q-45 45 -45 113v128q0 67 46 115z" />
    <glyph glyph-name="hbar" unicode="&#x127;" 
d="M10 461h57l30 -46l-30 -46h-57v92zM162 461h196l50 -46l-50 -46h-196l-50 46zM153 465l-47 -43q-46 48 -46 115v128q0 68 45 113l48 -46v-267zM367 365l47 43q46 -48 46 -115v-128q0 -68 -45 -113l-48 46v267zM106 408l47 -43v-267l-48 -46q-45 45 -45 113v128
q0 67 46 115z" />
    <glyph glyph-name="Itilde" unicode="&#x128;" 
d="M360 739h-200l-48 46q47 45 113 45h70q66 0 113 -45zM260 441l-43 27v261h86v-261zM217 362l43 27l43 -27v-261h-86v261zM160 91h200l48 -46q-47 -45 -113 -45h-70q-66 0 -113 45zM118 849v11q20 33 55 53t77 20h152v-11q-20 -33 -55.5 -53t-76.5 -20h-152z" />
    <glyph glyph-name="itilde" unicode="&#x129;" 
d="M260 441l-43 27v296h86v-296zM217 362l43 27l43 -27v-296h-86v296zM118 849v11q20 33 55 53t77 20h152v-11q-20 -33 -55.5 -53t-76.5 -20h-152z" />
    <glyph glyph-name="Imacron" unicode="&#x12a;" 
d="M360 739h-200l-48 46q47 45 113 45h70q66 0 113 -45zM260 441l-43 27v261h86v-261zM217 362l43 27l43 -27v-261h-86v261zM160 91h200l48 -46q-47 -45 -113 -45h-70q-66 0 -113 45zM118 849v11q20 33 55 53t77 20h20q42 0 77 -20t55 -53v-11h-284z" />
    <glyph glyph-name="imacron" unicode="&#x12b;" 
d="M260 441l-43 27v296h86v-296zM217 362l43 27l43 -27v-296h-86v296zM118 849v11q20 33 55 53t77 20h20q42 0 77 -20t55 -53v-11h-284z" />
    <glyph glyph-name="Ibreve" unicode="&#x12c;" 
d="M360 739h-200l-48 46q47 45 113 45h70q66 0 113 -45zM260 441l-43 27v261h86v-261zM217 362l43 27l43 -27v-261h-86v261zM160 91h200l48 -46q-47 -45 -113 -45h-70q-66 0 -113 45zM402 933v-11q-20 -33 -55.5 -53t-76.5 -20h-20q-41 0 -76.5 20t-55.5 53v11h284z" />
    <glyph glyph-name="ibreve" unicode="&#x12d;" 
d="M260 441l-43 27v296h86v-296zM217 362l43 27l43 -27v-296h-86v296zM402 933v-11q-20 -33 -55.5 -53t-76.5 -20h-20q-41 0 -76.5 20t-55.5 53v11h284z" />
    <glyph glyph-name="Iogonek" unicode="&#x12e;" 
d="M360 739h-200l-48 46q47 45 113 45h70q66 0 113 -45zM260 441l-43 27v261h86v-261zM217 362l43 27l43 -27v-261h-86v261zM160 91h200l48 -46q-47 -45 -113 -45h-70q-66 0 -113 45zM265 -73v63h57l82 -82v-28h-57q-25 0 -35.5 4.5t-25.5 20.5z" />
    <glyph glyph-name="iogonek" unicode="&#x12f;" 
d="M260 441l-43 27v296h86v-296zM217 362l43 27l43 -27v-296h-86v296zM265 -73v63h57l82 -82v-28h-57q-25 0 -35.5 4.5t-25.5 20.5z" />
    <glyph glyph-name="Idotaccent" unicode="&#x130;" 
d="M360 739h-200l-48 46q47 45 113 45h70q66 0 113 -45zM260 441l-43 27v261h86v-261zM217 362l43 27l43 -27v-261h-86v261zM160 91h200l48 -46q-47 -45 -113 -45h-70q-66 0 -113 45zM215 895q0 19 13 32t32 13t32 -13t13 -32t-13 -32t-32 -13t-32 13t-13 32z" />
    <glyph glyph-name="dotlessi" unicode="&#x131;" 
d="M260 441l-43 27v296h86v-296zM217 362l43 27l43 -27v-296h-86v296z" />
    <glyph glyph-name="Jcircumflex" unicode="&#x134;" 
d="M414 422l-47 43v267l48 46q45 -45 45 -113v-128q0 -67 -46 -115zM160 91h200l48 -46q-47 -45 -113 -45h-70q-66 0 -113 45zM367 365l47 43q46 -48 46 -115v-128q0 -68 -45 -113l-48 46v267zM106 408l47 -43v-267l-48 -46q-45 45 -45 113v128q0 67 46 115zM391 950v-63
l-21 -22q-15 -16 -25.5 -20.5t-35.5 -4.5h-57v28l82 82h57zM458 950l82 -82v-28h-57q-25 0 -35.5 4.5t-25.5 20.5l-21 22v63h57z" />
    <glyph glyph-name="jcircumflex" unicode="&#x135;" 
d="M414 422l-47 43v267l48 46q45 -45 45 -113v-128q0 -67 -46 -115zM160 91h200l48 -46q-47 -45 -113 -45h-70q-66 0 -113 45zM367 365l47 43q46 -48 46 -115v-128q0 -68 -45 -113l-48 46v267zM391 950v-63l-21 -22q-15 -16 -25.5 -20.5t-35.5 -4.5h-57v28l82 82h57z
M458 950l82 -82v-28h-57q-25 0 -35.5 4.5t-25.5 20.5l-21 22v63h57z" />
    <glyph glyph-name="Kcommaaccent" unicode="&#x136;" 
d="M106 408l47 -43v-267l-48 -46q-45 45 -45 113v128q0 67 46 115zM153 465l-47 -43q-46 48 -46 115v128q0 68 45 113l48 -46v-267zM394 744l-146 -273h-85v23l146 270h85v-20zM162 461h196l50 -46l-50 -46h-196l-50 46zM367 365l47 43q46 -48 46 -115v-128q0 -68 -45 -113
l-48 46v267zM216 -10h88q0 -65 -45 -110h-43v110z" />
    <glyph glyph-name="kcommaaccent" unicode="&#x137;" 
d="M153 465l-47 -43q-46 48 -46 115v128q0 68 45 113l48 -46v-267zM106 408l47 -43v-267l-48 -46q-45 45 -45 113v128q0 67 46 115zM394 744l-146 -273h-85v23l146 270h85v-20zM162 461h196l50 -46l-50 -46h-196l-50 46zM367 365l47 43q46 -48 46 -115v-128q0 -68 -45 -113
l-48 46v267zM216 -10h88q0 -65 -45 -110h-43v110z" />
    <glyph glyph-name="Lacute" unicode="&#x139;" 
d="M160 91h200l48 -46q-47 -45 -113 -45h-70q-66 0 -113 45zM153 465l-47 -43q-46 48 -46 115v128q0 68 45 113l48 -46v-267zM106 408l47 -43v-267l-48 -46q-45 45 -45 113v128q0 67 46 115zM186 840h-57v63l21 22q15 16 25.5 20.5t35.5 4.5h57v-28z" />
    <glyph glyph-name="lacute" unicode="&#x13a;" 
d="M153 465l-47 -43q-46 48 -46 115v128q0 68 45 113l48 -46v-267zM160 91h200l48 -46q-47 -45 -113 -45h-70q-66 0 -113 45zM106 408l47 -43v-267l-48 -46q-45 45 -45 113v128q0 67 46 115zM186 840h-57v63l21 22q15 16 25.5 20.5t35.5 4.5h57v-28z" />
    <glyph glyph-name="Lcommaaccent" unicode="&#x13b;" 
d="M160 91h200l48 -46q-47 -45 -113 -45h-70q-66 0 -113 45zM153 465l-47 -43q-46 48 -46 115v128q0 68 45 113l48 -46v-267zM106 408l47 -43v-267l-48 -46q-45 45 -45 113v128q0 67 46 115zM216 -10h88q0 -65 -45 -110h-43v110z" />
    <glyph glyph-name="lcommaaccent" unicode="&#x13c;" 
d="M153 465l-47 -43q-46 48 -46 115v128q0 68 45 113l48 -46v-267zM160 91h200l48 -46q-47 -45 -113 -45h-70q-66 0 -113 45zM106 408l47 -43v-267l-48 -46q-45 45 -45 113v128q0 67 46 115zM216 -10h88q0 -65 -45 -110h-43v110z" />
    <glyph glyph-name="Lcaron" unicode="&#x13d;" 
d="M160 91h200l48 -46q-47 -45 -113 -45h-70q-66 0 -113 45zM153 465l-47 -43q-46 48 -46 115v128q0 68 45 113l48 -46v-267zM106 408l47 -43v-267l-48 -46q-45 45 -45 113v128q0 67 46 115zM310 687h-45v63l21 23q15 16 25.5 20t35.5 4h45v-30z" />
    <glyph glyph-name="lcaron" unicode="&#x13e;" 
d="M153 465l-47 -43q-46 48 -46 115v128q0 68 45 113l48 -46v-267zM160 91h200l48 -46q-47 -45 -113 -45h-70q-66 0 -113 45zM106 408l47 -43v-267l-48 -46q-45 45 -45 113v128q0 67 46 115zM310 687h-45v63l21 23q15 16 25.5 20t35.5 4h45v-30z" />
    <glyph glyph-name="Ldot" unicode="&#x13f;" 
d="M160 91h200l48 -46q-47 -45 -113 -45h-70q-66 0 -113 45zM153 465l-47 -43q-46 48 -46 115v128q0 68 45 113l48 -46v-267zM106 408l47 -43v-267l-48 -46q-45 45 -45 113v128q0 67 46 115zM215 415q0 19 13 32t32 13t32 -13t13 -32t-13 -32t-32 -13t-32 13t-13 32z" />
    <glyph glyph-name="ldot" unicode="&#x140;" 
d="M153 465l-47 -43q-46 48 -46 115v128q0 68 45 113l48 -46v-267zM160 91h200l48 -46q-47 -45 -113 -45h-70q-66 0 -113 45zM106 408l47 -43v-267l-48 -46q-45 45 -45 113v128q0 67 46 115zM215 415q0 19 13 32t32 13t32 -13t13 -32t-13 -32t-32 -13t-32 13t-13 32z" />
    <glyph glyph-name="Lslash" unicode="&#x141;" 
d="M10 461h57l30 -46l-30 -46h-57v92zM160 91h200l48 -46q-47 -45 -113 -45h-70q-66 0 -113 45zM153 465l-47 -43q-46 48 -46 115v128q0 68 45 113l48 -46v-267zM106 408l47 -43v-267l-48 -46q-45 45 -45 113v128q0 67 46 115z" />
    <glyph glyph-name="lslash" unicode="&#x142;" 
d="M10 461h57l30 -46l-30 -46h-57v92zM153 465l-47 -43q-46 48 -46 115v128q0 68 45 113l48 -46v-267zM160 91h200l48 -46q-47 -45 -113 -45h-70q-66 0 -113 45zM106 408l47 -43v-267l-48 -46q-45 45 -45 113v128q0 67 46 115z" />
    <glyph glyph-name="Nacute" unicode="&#x143;" 
d="M414 422l-47 43v267l48 46q45 -45 45 -113v-128q0 -67 -46 -115zM106 408l47 -43v-267l-48 -46q-45 45 -45 113v128q0 67 46 115zM153 465l-47 -43q-46 48 -46 115v128q0 68 45 113l48 -148v-165zM255 420h-21l-121 366q28 27 69 37l73 -217v-186zM367 365l47 43
q46 -48 46 -115v-128q0 -68 -45 -113l-48 148v165zM265 410h21l121 -366q-28 -27 -69 -37l-73 217v186zM322 840h-57v63l21 22q15 16 25.5 20.5t35.5 4.5h57v-28z" />
    <glyph glyph-name="nacute" unicode="&#x144;" 
d="M360 739h-200l-48 46q47 45 113 45h70q66 0 113 -45zM414 422l-47 43v267l48 46q45 -45 45 -113v-128q0 -67 -46 -115zM153 465l-47 -43q-46 48 -46 115v128q0 68 45 113l48 -46v-267zM367 365l47 43q46 -48 46 -115v-128q0 -68 -45 -113l-48 46v267zM106 408l47 -43
v-267l-48 -46q-45 45 -45 113v128q0 67 46 115zM322 840h-57v63l21 22q15 16 25.5 20.5t35.5 4.5h57v-28z" />
    <glyph glyph-name="Ncommaaccent" unicode="&#x145;" 
d="M414 422l-47 43v267l48 46q45 -45 45 -113v-128q0 -67 -46 -115zM106 408l47 -43v-267l-48 -46q-45 45 -45 113v128q0 67 46 115zM153 465l-47 -43q-46 48 -46 115v128q0 68 45 113l48 -148v-165zM255 420h-21l-121 366q28 27 69 37l73 -217v-186zM367 365l47 43
q46 -48 46 -115v-128q0 -68 -45 -113l-48 148v165zM265 410h21l121 -366q-28 -27 -69 -37l-73 217v186zM216 -10h88q0 -65 -45 -110h-43v110z" />
    <glyph glyph-name="ncommaaccent" unicode="&#x146;" 
d="M360 739h-200l-48 46q47 45 113 45h70q66 0 113 -45zM414 422l-47 43v267l48 46q45 -45 45 -113v-128q0 -67 -46 -115zM153 465l-47 -43q-46 48 -46 115v128q0 68 45 113l48 -46v-267zM367 365l47 43q46 -48 46 -115v-128q0 -68 -45 -113l-48 46v267zM106 408l47 -43
v-267l-48 -46q-45 45 -45 113v128q0 67 46 115zM216 -10h88q0 -65 -45 -110h-43v110z" />
    <glyph glyph-name="Ncaron" unicode="&#x147;" 
d="M255 840h-57l-82 82v28h57q25 0 35.5 -4.5t25.5 -20.5l21 -22v-63zM322 840h-57v63l21 22q15 16 25.5 20.5t35.5 4.5h57v-28zM414 422l-47 43v267l48 46q45 -45 45 -113v-128q0 -67 -46 -115zM106 408l47 -43v-267l-48 -46q-45 45 -45 113v128q0 67 46 115zM153 465
l-47 -43q-46 48 -46 115v128q0 68 45 113l48 -148v-165zM255 420h-21l-121 366q28 27 69 37l73 -217v-186zM367 365l47 43q46 -48 46 -115v-128q0 -68 -45 -113l-48 148v165zM265 410h21l121 -366q-28 -27 -69 -37l-73 217v186z" />
    <glyph glyph-name="ncaron" unicode="&#x148;" 
d="M255 840h-57l-82 82v28h57q25 0 35.5 -4.5t25.5 -20.5l21 -22v-63zM322 840h-57v63l21 22q15 16 25.5 20.5t35.5 4.5h57v-28zM360 739h-200l-48 46q47 45 113 45h70q66 0 113 -45zM414 422l-47 43v267l48 46q45 -45 45 -113v-128q0 -67 -46 -115zM153 465l-47 -43
q-46 48 -46 115v128q0 68 45 113l48 -46v-267zM367 365l47 43q46 -48 46 -115v-128q0 -68 -45 -113l-48 46v267zM106 408l47 -43v-267l-48 -46q-45 45 -45 113v128q0 67 46 115z" />
    <glyph glyph-name="napostrophe" unicode="&#x149;" 
d="M360 739h-200l-48 46q47 45 113 45h70q66 0 113 -45zM414 422l-47 43v267l48 46q45 -45 45 -113v-128q0 -67 -46 -115zM153 465l-47 -43q-46 48 -46 115v128q0 68 45 113l48 -46v-267zM367 365l47 43q46 -48 46 -115v-128q0 -68 -45 -113l-48 46v267zM106 408l47 -43
v-267l-48 -46q-45 45 -45 113v128q0 67 46 115zM105 839h-45v63l21 23q15 16 25.5 20t35.5 4h45v-30z" />
    <glyph glyph-name="Omacron" unicode="&#x14c;" 
d="M118 849v11q20 33 55 53t77 20h20q42 0 77 -20t55 -53v-11h-284zM160 91h200l48 -46q-47 -45 -113 -45h-70q-66 0 -113 45zM360 739h-200l-48 46q47 45 113 45h70q66 0 113 -45zM414 422l-47 43v267l48 46q45 -45 45 -113v-128q0 -67 -46 -115zM153 465l-47 -43
q-46 48 -46 115v128q0 68 45 113l48 -46v-267zM367 365l47 43q46 -48 46 -115v-128q0 -68 -45 -113l-48 46v267zM106 408l47 -43v-267l-48 -46q-45 45 -45 113v128q0 67 46 115z" />
    <glyph glyph-name="omacron" unicode="&#x14d;" 
d="M360 739h-200l-48 46q47 45 113 45h70q66 0 113 -45zM414 422l-47 43v267l48 46q45 -45 45 -113v-128q0 -67 -46 -115zM153 465l-47 -43q-46 48 -46 115v128q0 68 45 113l48 -46v-267zM160 91h200l48 -46q-47 -45 -113 -45h-70q-66 0 -113 45zM367 365l47 43
q46 -48 46 -115v-128q0 -68 -45 -113l-48 46v267zM106 408l47 -43v-267l-48 -46q-45 45 -45 113v128q0 67 46 115zM118 849v11q20 33 55 53t77 20h20q42 0 77 -20t55 -53v-11h-284z" />
    <glyph glyph-name="Obreve" unicode="&#x14e;" 
d="M160 91h200l48 -46q-47 -45 -113 -45h-70q-66 0 -113 45zM360 739h-200l-48 46q47 45 113 45h70q66 0 113 -45zM414 422l-47 43v267l48 46q45 -45 45 -113v-128q0 -67 -46 -115zM153 465l-47 -43q-46 48 -46 115v128q0 68 45 113l48 -46v-267zM367 365l47 43
q46 -48 46 -115v-128q0 -68 -45 -113l-48 46v267zM106 408l47 -43v-267l-48 -46q-45 45 -45 113v128q0 67 46 115zM402 933v-11q-20 -33 -55.5 -53t-76.5 -20h-20q-41 0 -76.5 20t-55.5 53v11h284z" />
    <glyph glyph-name="obreve" unicode="&#x14f;" 
d="M360 739h-200l-48 46q47 45 113 45h70q66 0 113 -45zM414 422l-47 43v267l48 46q45 -45 45 -113v-128q0 -67 -46 -115zM153 465l-47 -43q-46 48 -46 115v128q0 68 45 113l48 -46v-267zM160 91h200l48 -46q-47 -45 -113 -45h-70q-66 0 -113 45zM367 365l47 43
q46 -48 46 -115v-128q0 -68 -45 -113l-48 46v267zM106 408l47 -43v-267l-48 -46q-45 45 -45 113v128q0 67 46 115zM402 933v-11q-20 -33 -55.5 -53t-76.5 -20h-20q-41 0 -76.5 20t-55.5 53v11h284z" />
    <glyph glyph-name="Ohungarumlaut" unicode="&#x150;" 
d="M330 840h-39v63l21 22q15 16 25.5 20.5t35.5 4.5h38v-28zM216 840h-39v63l21 22q15 16 25.5 20.5t35.5 4.5h38v-28zM160 91h200l48 -46q-47 -45 -113 -45h-70q-66 0 -113 45zM360 739h-200l-48 46q47 45 113 45h70q66 0 113 -45zM414 422l-47 43v267l48 46
q45 -45 45 -113v-128q0 -67 -46 -115zM153 465l-47 -43q-46 48 -46 115v128q0 68 45 113l48 -46v-267zM367 365l47 43q46 -48 46 -115v-128q0 -68 -45 -113l-48 46v267zM106 408l47 -43v-267l-48 -46q-45 45 -45 113v128q0 67 46 115z" />
    <glyph glyph-name="ohungarumlaut" unicode="&#x151;" 
d="M360 739h-200l-48 46q47 45 113 45h70q66 0 113 -45zM414 422l-47 43v267l48 46q45 -45 45 -113v-128q0 -67 -46 -115zM153 465l-47 -43q-46 48 -46 115v128q0 68 45 113l48 -46v-267zM160 91h200l48 -46q-47 -45 -113 -45h-70q-66 0 -113 45zM367 365l47 43
q46 -48 46 -115v-128q0 -68 -45 -113l-48 46v267zM106 408l47 -43v-267l-48 -46q-45 45 -45 113v128q0 67 46 115zM330 840h-39v63l21 22q15 16 25.5 20.5t35.5 4.5h38v-28zM216 840h-39v63l21 22q15 16 25.5 20.5t35.5 4.5h38v-28z" />
    <glyph glyph-name="OE" unicode="&#x152;" horiz-adv-x="1040" 
d="M360 739h-200l-48 46q47 45 113 45h70q66 0 113 -45zM414 422l-47 43v267l48 46q45 -45 45 -113v-128q0 -67 -46 -115zM153 465l-47 -43q-46 48 -46 115v128q0 68 45 113l48 -46v-267zM160 91h200l48 -46q-47 -45 -113 -45h-70q-66 0 -113 45zM367 365l47 43
q46 -48 46 -115v-128q0 -68 -45 -113l-48 46v267zM106 408l47 -43v-267l-48 -46q-45 45 -45 113v128q0 67 46 115zM880 739h-200l-48 46q47 45 113 45h70q66 0 113 -45zM682 461h196l50 -46l-50 -46h-196l-50 46zM673 465l-47 -43q-46 48 -46 115v128q0 68 45 113l48 -46
v-267zM680 91h200l48 -46q-47 -45 -113 -45h-70q-66 0 -113 45zM626 408l47 -43v-267l-48 -46q-45 45 -45 113v128q0 67 46 115z" />
    <glyph glyph-name="oe" unicode="&#x153;" horiz-adv-x="1040" 
d="M880 739h-200l-48 46q47 45 113 45h70q66 0 113 -45zM934 422l-47 43v267l48 46q45 -45 45 -113v-128q0 -67 -46 -115zM682 461h196l50 -46l-50 -46h-196l-50 46zM673 465l-47 -43q-46 48 -46 115v128q0 68 45 113l48 -46v-267zM680 91h200l48 -46q-47 -45 -113 -45h-70
q-66 0 -113 45zM626 408l47 -43v-267l-48 -46q-45 45 -45 113v128q0 67 46 115zM360 739h-200l-48 46q47 45 113 45h70q66 0 113 -45zM414 422l-47 43v267l48 46q45 -45 45 -113v-128q0 -67 -46 -115zM153 465l-47 -43q-46 48 -46 115v128q0 68 45 113l48 -46v-267zM160 91
h200l48 -46q-47 -45 -113 -45h-70q-66 0 -113 45zM367 365l47 43q46 -48 46 -115v-128q0 -68 -45 -113l-48 46v267zM106 408l47 -43v-267l-48 -46q-45 45 -45 113v128q0 67 46 115z" />
    <glyph glyph-name="Racute" unicode="&#x154;" 
d="M414 422l-47 43v267l48 46q45 -45 45 -113v-128q0 -67 -46 -115zM360 739h-200l-48 46q47 45 113 45h70q66 0 113 -45zM162 461h196l50 -46l-50 -46h-196l-50 46zM153 465l-47 -43q-46 48 -46 115v128q0 68 45 113l48 -46v-267zM106 408l47 -43v-267l-48 -46
q-45 45 -45 113v128q0 67 46 115zM394 86v-20h-86l-145 270v23h86zM322 840h-57v63l21 22q15 16 25.5 20.5t35.5 4.5h57v-28z" />
    <glyph glyph-name="racute" unicode="&#x155;" 
d="M360 739h-200l-48 46q47 45 113 45h70q66 0 113 -45zM414 422l-47 43v267l48 46q45 -45 45 -113v-128q0 -67 -46 -115zM153 465l-47 -43q-46 48 -46 115v128q0 68 45 113l48 -46v-267zM106 408l47 -43v-267l-48 -46q-45 45 -45 113v128q0 67 46 115zM322 840h-57v63
l21 22q15 16 25.5 20.5t35.5 4.5h57v-28z" />
    <glyph glyph-name="Rcommaaccent" unicode="&#x156;" 
d="M414 422l-47 43v267l48 46q45 -45 45 -113v-128q0 -67 -46 -115zM360 739h-200l-48 46q47 45 113 45h70q66 0 113 -45zM162 461h196l50 -46l-50 -46h-196l-50 46zM153 465l-47 -43q-46 48 -46 115v128q0 68 45 113l48 -46v-267zM106 408l47 -43v-267l-48 -46
q-45 45 -45 113v128q0 67 46 115zM394 86v-20h-86l-145 270v23h86zM216 -10h88q0 -65 -45 -110h-43v110z" />
    <glyph glyph-name="rcommaaccent" unicode="&#x157;" 
d="M360 739h-200l-48 46q47 45 113 45h70q66 0 113 -45zM414 422l-47 43v267l48 46q45 -45 45 -113v-128q0 -67 -46 -115zM153 465l-47 -43q-46 48 -46 115v128q0 68 45 113l48 -46v-267zM106 408l47 -43v-267l-48 -46q-45 45 -45 113v128q0 67 46 115zM216 -10h88
q0 -65 -45 -110h-43v110z" />
    <glyph glyph-name="Rcaron" unicode="&#x158;" 
d="M255 840h-57l-82 82v28h57q25 0 35.5 -4.5t25.5 -20.5l21 -22v-63zM322 840h-57v63l21 22q15 16 25.5 20.5t35.5 4.5h57v-28zM414 422l-47 43v267l48 46q45 -45 45 -113v-128q0 -67 -46 -115zM360 739h-200l-48 46q47 45 113 45h70q66 0 113 -45zM162 461h196l50 -46
l-50 -46h-196l-50 46zM153 465l-47 -43q-46 48 -46 115v128q0 68 45 113l48 -46v-267zM106 408l47 -43v-267l-48 -46q-45 45 -45 113v128q0 67 46 115zM394 86v-20h-86l-145 270v23h86z" />
    <glyph glyph-name="rcaron" unicode="&#x159;" 
d="M255 840h-57l-82 82v28h57q25 0 35.5 -4.5t25.5 -20.5l21 -22v-63zM322 840h-57v63l21 22q15 16 25.5 20.5t35.5 4.5h57v-28zM360 739h-200l-48 46q47 45 113 45h70q66 0 113 -45zM414 422l-47 43v267l48 46q45 -45 45 -113v-128q0 -67 -46 -115zM153 465l-47 -43
q-46 48 -46 115v128q0 68 45 113l48 -46v-267zM106 408l47 -43v-267l-48 -46q-45 45 -45 113v128q0 67 46 115z" />
    <glyph glyph-name="Sacute" unicode="&#x15a;" 
d="M160 91h200l48 -46q-47 -45 -113 -45h-70q-66 0 -113 45zM360 739h-200l-48 46q47 45 113 45h70q66 0 113 -45zM162 461h196l50 -46l-50 -46h-196l-50 46zM153 465l-47 -43q-46 48 -46 115v128q0 68 45 113l48 -46v-267zM367 365l47 43q46 -48 46 -115v-128
q0 -68 -45 -113l-48 46v267zM322 840h-57v63l21 22q15 16 25.5 20.5t35.5 4.5h57v-28z" />
    <glyph glyph-name="sacute" unicode="&#x15b;" 
d="M360 739h-200l-48 46q47 45 113 45h70q66 0 113 -45zM162 461h196l50 -46l-50 -46h-196l-50 46zM153 465l-47 -43q-46 48 -46 115v128q0 68 45 113l48 -46v-267zM160 91h200l48 -46q-47 -45 -113 -45h-70q-66 0 -113 45zM367 365l47 43q46 -48 46 -115v-128
q0 -68 -45 -113l-48 46v267zM322 840h-57v63l21 22q15 16 25.5 20.5t35.5 4.5h57v-28z" />
    <glyph glyph-name="Scircumflex" unicode="&#x15c;" 
d="M160 91h200l48 -46q-47 -45 -113 -45h-70q-66 0 -113 45zM360 739h-200l-48 46q47 45 113 45h70q66 0 113 -45zM162 461h196l50 -46l-50 -46h-196l-50 46zM153 465l-47 -43q-46 48 -46 115v128q0 68 45 113l48 -46v-267zM367 365l47 43q46 -48 46 -115v-128
q0 -68 -45 -113l-48 46v267zM255 950v-63l-21 -22q-15 -16 -25.5 -20.5t-35.5 -4.5h-57v28l82 82h57zM322 950l82 -82v-28h-57q-25 0 -35.5 4.5t-25.5 20.5l-21 22v63h57z" />
    <glyph glyph-name="scircumflex" unicode="&#x15d;" 
d="M360 739h-200l-48 46q47 45 113 45h70q66 0 113 -45zM162 461h196l50 -46l-50 -46h-196l-50 46zM153 465l-47 -43q-46 48 -46 115v128q0 68 45 113l48 -46v-267zM160 91h200l48 -46q-47 -45 -113 -45h-70q-66 0 -113 45zM367 365l47 43q46 -48 46 -115v-128
q0 -68 -45 -113l-48 46v267zM255 950v-63l-21 -22q-15 -16 -25.5 -20.5t-35.5 -4.5h-57v28l82 82h57zM322 950l82 -82v-28h-57q-25 0 -35.5 4.5t-25.5 20.5l-21 22v63h57z" />
    <glyph glyph-name="Scedilla" unicode="&#x15e;" 
d="M160 91h200l48 -46q-47 -45 -113 -45h-70q-66 0 -113 45zM360 739h-200l-48 46q47 45 113 45h70q66 0 113 -45zM162 461h196l50 -46l-50 -46h-196l-50 46zM153 465l-47 -43q-46 48 -46 115v128q0 68 45 113l48 -46v-267zM367 365l47 43q46 -48 46 -115v-128
q0 -68 -45 -113l-48 46v267zM255 -73l-21 -22q-15 -16 -25.5 -20.5t-35.5 -4.5h-57v28l82 82h57v-63z" />
    <glyph glyph-name="scedilla" unicode="&#x15f;" 
d="M360 739h-200l-48 46q47 45 113 45h70q66 0 113 -45zM162 461h196l50 -46l-50 -46h-196l-50 46zM153 465l-47 -43q-46 48 -46 115v128q0 68 45 113l48 -46v-267zM160 91h200l48 -46q-47 -45 -113 -45h-70q-66 0 -113 45zM367 365l47 43q46 -48 46 -115v-128
q0 -68 -45 -113l-48 46v267zM255 -73l-21 -22q-15 -16 -25.5 -20.5t-35.5 -4.5h-57v28l82 82h57v-63z" />
    <glyph glyph-name="Scaron" unicode="&#x160;" 
d="M255 840h-57l-82 82v28h57q25 0 35.5 -4.5t25.5 -20.5l21 -22v-63zM322 840h-57v63l21 22q15 16 25.5 20.5t35.5 4.5h57v-28zM160 91h200l48 -46q-47 -45 -113 -45h-70q-66 0 -113 45zM360 739h-200l-48 46q47 45 113 45h70q66 0 113 -45zM162 461h196l50 -46l-50 -46
h-196l-50 46zM153 465l-47 -43q-46 48 -46 115v128q0 68 45 113l48 -46v-267zM367 365l47 43q46 -48 46 -115v-128q0 -68 -45 -113l-48 46v267z" />
    <glyph glyph-name="scaron" unicode="&#x161;" 
d="M255 840h-57l-82 82v28h57q25 0 35.5 -4.5t25.5 -20.5l21 -22v-63zM322 840h-57v63l21 22q15 16 25.5 20.5t35.5 4.5h57v-28zM360 739h-200l-48 46q47 45 113 45h70q66 0 113 -45zM162 461h196l50 -46l-50 -46h-196l-50 46zM153 465l-47 -43q-46 48 -46 115v128
q0 68 45 113l48 -46v-267zM160 91h200l48 -46q-47 -45 -113 -45h-70q-66 0 -113 45zM367 365l47 43q46 -48 46 -115v-128q0 -68 -45 -113l-48 46v267z" />
    <glyph glyph-name="Tcommaaccent" unicode="&#x162;" 
d="M216 -10h88q0 -65 -45 -110h-43v110zM360 739h-200l-48 46q47 45 113 45h70q66 0 113 -45zM414 422l-47 43v267l48 46q45 -45 45 -113v-128q0 -67 -46 -115zM153 465l-47 -43q-46 48 -46 115v128q0 68 45 113l48 -46v-267zM260 441l-43 27v261h86v-261zM217 362l43 27
l43 -27v-296h-86v296z" />
    <glyph glyph-name="tcommaaccent" unicode="&#x163;" 
d="M216 -10h88q0 -65 -45 -110h-43v110zM162 461h196l50 -46l-50 -46h-196l-50 46zM153 465l-47 -43q-46 48 -46 115v128q0 68 45 113l48 -46v-267zM160 91h200l48 -46q-47 -45 -113 -45h-70q-66 0 -113 45zM106 408l47 -43v-267l-48 -46q-45 45 -45 113v128q0 67 46 115z
" />
    <glyph glyph-name="Tcaron" unicode="&#x164;" 
d="M255 840h-57l-82 82v28h57q25 0 35.5 -4.5t25.5 -20.5l21 -22v-63zM322 840h-57v63l21 22q15 16 25.5 20.5t35.5 4.5h57v-28zM360 739h-200l-48 46q47 45 113 45h70q66 0 113 -45zM414 422l-47 43v267l48 46q45 -45 45 -113v-128q0 -67 -46 -115zM153 465l-47 -43
q-46 48 -46 115v128q0 68 45 113l48 -46v-267zM260 441l-43 27v261h86v-261zM217 362l43 27l43 -27v-296h-86v296z" />
    <glyph glyph-name="tcaron" unicode="&#x165;" 
d="M292 692h-45v63l21 23q15 16 25.5 20t35.5 4h45v-30zM162 461h196l50 -46l-50 -46h-196l-50 46zM153 465l-47 -43q-46 48 -46 115v128q0 68 45 113l48 -46v-267zM160 91h200l48 -46q-47 -45 -113 -45h-70q-66 0 -113 45zM106 408l47 -43v-267l-48 -46q-45 45 -45 113v128
q0 67 46 115z" />
    <glyph glyph-name="Tbar" unicode="&#x166;" 
d="M10 461h57l30 -46l-30 -46h-57v92zM510 461v-92h-57l-30 46l30 46h57zM360 739h-200l-48 46q47 45 113 45h70q66 0 113 -45zM414 422l-47 43v267l48 46q45 -45 45 -113v-128q0 -67 -46 -115zM153 465l-47 -43q-46 48 -46 115v128q0 68 45 113l48 -46v-267zM260 441
l-43 27v261h86v-261zM217 362l43 27l43 -27v-296h-86v296z" />
    <glyph glyph-name="tbar" unicode="&#x167;" 
d="M10 461h57l30 -46l-30 -46h-57v92zM162 461h196l50 -46l-50 -46h-196l-50 46zM153 465l-47 -43q-46 48 -46 115v128q0 68 45 113l48 -46v-267zM160 91h200l48 -46q-47 -45 -113 -45h-70q-66 0 -113 45zM106 408l47 -43v-267l-48 -46q-45 45 -45 113v128q0 67 46 115z" />
    <glyph glyph-name="Utilde" unicode="&#x168;" 
d="M160 91h200l48 -46q-47 -45 -113 -45h-70q-66 0 -113 45zM414 422l-47 43v267l48 46q45 -45 45 -113v-128q0 -67 -46 -115zM153 465l-47 -43q-46 48 -46 115v128q0 68 45 113l48 -46v-267zM367 365l47 43q46 -48 46 -115v-128q0 -68 -45 -113l-48 46v267zM106 408l47 -43
v-267l-48 -46q-45 45 -45 113v128q0 67 46 115zM118 849v11q20 33 55 53t77 20h152v-11q-20 -33 -55.5 -53t-76.5 -20h-152z" />
    <glyph glyph-name="utilde" unicode="&#x169;" 
d="M106 408l47 -43v-267l-48 -46q-45 45 -45 113v128q0 67 46 115zM414 422l-47 43v267l48 46q45 -45 45 -113v-128q0 -67 -46 -115zM153 465l-47 -43q-46 48 -46 115v128q0 68 45 113l48 -46v-267zM160 91h200l48 -46q-47 -45 -113 -45h-70q-66 0 -113 45zM367 365l47 43
q46 -48 46 -115v-128q0 -68 -45 -113l-48 46v267zM118 849v11q20 33 55 53t77 20h152v-11q-20 -33 -55.5 -53t-76.5 -20h-152z" />
    <glyph glyph-name="Umacron" unicode="&#x16a;" 
d="M160 91h200l48 -46q-47 -45 -113 -45h-70q-66 0 -113 45zM414 422l-47 43v267l48 46q45 -45 45 -113v-128q0 -67 -46 -115zM153 465l-47 -43q-46 48 -46 115v128q0 68 45 113l48 -46v-267zM367 365l47 43q46 -48 46 -115v-128q0 -68 -45 -113l-48 46v267zM106 408l47 -43
v-267l-48 -46q-45 45 -45 113v128q0 67 46 115zM118 849v11q20 33 55 53t77 20h20q42 0 77 -20t55 -53v-11h-284z" />
    <glyph glyph-name="umacron" unicode="&#x16b;" 
d="M106 408l47 -43v-267l-48 -46q-45 45 -45 113v128q0 67 46 115zM414 422l-47 43v267l48 46q45 -45 45 -113v-128q0 -67 -46 -115zM153 465l-47 -43q-46 48 -46 115v128q0 68 45 113l48 -46v-267zM160 91h200l48 -46q-47 -45 -113 -45h-70q-66 0 -113 45zM367 365l47 43
q46 -48 46 -115v-128q0 -68 -45 -113l-48 46v267zM118 849v11q20 33 55 53t77 20h20q42 0 77 -20t55 -53v-11h-284z" />
    <glyph glyph-name="Ubreve" unicode="&#x16c;" 
d="M160 91h200l48 -46q-47 -45 -113 -45h-70q-66 0 -113 45zM414 422l-47 43v267l48 46q45 -45 45 -113v-128q0 -67 -46 -115zM153 465l-47 -43q-46 48 -46 115v128q0 68 45 113l48 -46v-267zM367 365l47 43q46 -48 46 -115v-128q0 -68 -45 -113l-48 46v267zM106 408l47 -43
v-267l-48 -46q-45 45 -45 113v128q0 67 46 115zM402 933v-11q-20 -33 -55.5 -53t-76.5 -20h-20q-41 0 -76.5 20t-55.5 53v11h284z" />
    <glyph glyph-name="ubreve" unicode="&#x16d;" 
d="M106 408l47 -43v-267l-48 -46q-45 45 -45 113v128q0 67 46 115zM414 422l-47 43v267l48 46q45 -45 45 -113v-128q0 -67 -46 -115zM153 465l-47 -43q-46 48 -46 115v128q0 68 45 113l48 -46v-267zM160 91h200l48 -46q-47 -45 -113 -45h-70q-66 0 -113 45zM367 365l47 43
q46 -48 46 -115v-128q0 -68 -45 -113l-48 46v267zM402 933v-11q-20 -33 -55.5 -53t-76.5 -20h-20q-41 0 -76.5 20t-55.5 53v11h284z" />
    <glyph glyph-name="Uring" unicode="&#x16e;" 
d="M160 91h200l48 -46q-47 -45 -113 -45h-70q-66 0 -113 45zM414 422l-47 43v267l48 46q45 -45 45 -113v-128q0 -67 -46 -115zM153 465l-47 -43q-46 48 -46 115v128q0 68 45 113l48 -46v-267zM367 365l47 43q46 -48 46 -115v-128q0 -68 -45 -113l-48 46v267zM106 408l47 -43
v-267l-48 -46q-45 45 -45 113v128q0 67 46 115zM205 895q0 23 16.5 39t38.5 16t38.5 -16t16.5 -39t-16.5 -39t-38.5 -16t-38.5 16t-16.5 39zM244 895q0 -16 16 -16t16 16t-16 16t-16 -16z" />
    <glyph glyph-name="uring" unicode="&#x16f;" 
d="M106 408l47 -43v-267l-48 -46q-45 45 -45 113v128q0 67 46 115zM414 422l-47 43v267l48 46q45 -45 45 -113v-128q0 -67 -46 -115zM153 465l-47 -43q-46 48 -46 115v128q0 68 45 113l48 -46v-267zM160 91h200l48 -46q-47 -45 -113 -45h-70q-66 0 -113 45zM367 365l47 43
q46 -48 46 -115v-128q0 -68 -45 -113l-48 46v267zM205 895q0 23 16.5 39t38.5 16t38.5 -16t16.5 -39t-16.5 -39t-38.5 -16t-38.5 16t-16.5 39zM244 895q0 -16 16 -16t16 16t-16 16t-16 -16z" />
    <glyph glyph-name="Uhungarumlaut" unicode="&#x170;" 
d="M160 91h200l48 -46q-47 -45 -113 -45h-70q-66 0 -113 45zM414 422l-47 43v267l48 46q45 -45 45 -113v-128q0 -67 -46 -115zM153 465l-47 -43q-46 48 -46 115v128q0 68 45 113l48 -46v-267zM367 365l47 43q46 -48 46 -115v-128q0 -68 -45 -113l-48 46v267zM106 408l47 -43
v-267l-48 -46q-45 45 -45 113v128q0 67 46 115zM330 840h-39v63l21 22q15 16 25.5 20.5t35.5 4.5h38v-28zM216 840h-39v63l21 22q15 16 25.5 20.5t35.5 4.5h38v-28z" />
    <glyph glyph-name="uhungarumlaut" unicode="&#x171;" 
d="M106 408l47 -43v-267l-48 -46q-45 45 -45 113v128q0 67 46 115zM414 422l-47 43v267l48 46q45 -45 45 -113v-128q0 -67 -46 -115zM153 465l-47 -43q-46 48 -46 115v128q0 68 45 113l48 -46v-267zM160 91h200l48 -46q-47 -45 -113 -45h-70q-66 0 -113 45zM367 365l47 43
q46 -48 46 -115v-128q0 -68 -45 -113l-48 46v267zM330 840h-39v63l21 22q15 16 25.5 20.5t35.5 4.5h38v-28zM216 840h-39v63l21 22q15 16 25.5 20.5t35.5 4.5h38v-28z" />
    <glyph glyph-name="Uogonek" unicode="&#x172;" 
d="M160 91h200l48 -46q-47 -45 -113 -45h-70q-66 0 -113 45zM414 422l-47 43v267l48 46q45 -45 45 -113v-128q0 -67 -46 -115zM153 465l-47 -43q-46 48 -46 115v128q0 68 45 113l48 -46v-267zM367 365l47 43q46 -48 46 -115v-128q0 -68 -45 -113l-48 46v267zM106 408l47 -43
v-267l-48 -46q-45 45 -45 113v128q0 67 46 115zM265 -73v63h57l82 -82v-28h-57q-25 0 -35.5 4.5t-25.5 20.5z" />
    <glyph glyph-name="uogonek" unicode="&#x173;" 
d="M106 408l47 -43v-267l-48 -46q-45 45 -45 113v128q0 67 46 115zM414 422l-47 43v267l48 46q45 -45 45 -113v-128q0 -67 -46 -115zM153 465l-47 -43q-46 48 -46 115v128q0 68 45 113l48 -46v-267zM160 91h200l48 -46q-47 -45 -113 -45h-70q-66 0 -113 45zM367 365l47 43
q46 -48 46 -115v-128q0 -68 -45 -113l-48 46v267zM265 -73v63h57l82 -82v-28h-57q-25 0 -35.5 4.5t-25.5 20.5z" />
    <glyph glyph-name="Wcircumflex" unicode="&#x174;" 
d="M106 408l47 -43v-165l-48 -148q-45 45 -45 113v128q0 67 46 115zM367 365l47 43q46 -48 46 -115v-128q0 -68 -45 -113l-48 148v165zM153 465l-47 -43q-46 48 -46 115v128q0 68 45 113l48 -46v-267zM414 422l-47 43v267l48 46q45 -45 45 -113v-128q0 -67 -46 -115z
M255 410v-186l-73 -217q-41 10 -69 37l121 366h21zM265 410h21l121 -366q-28 -27 -69 -37l-73 217v186zM255 950v-63l-21 -22q-15 -16 -25.5 -20.5t-35.5 -4.5h-57v28l82 82h57zM322 950l82 -82v-28h-57q-25 0 -35.5 4.5t-25.5 20.5l-21 22v63h57z" />
    <glyph glyph-name="wcircumflex" unicode="&#x175;" 
d="M153 465l-47 -43q-46 48 -46 115v128q0 68 45 113l48 -46v-267zM106 408l47 -43v-165l-48 -148q-45 45 -45 113v128q0 67 46 115zM367 365l47 43q46 -48 46 -115v-128q0 -68 -45 -113l-48 148v165zM414 422l-47 43v267l48 46q45 -45 45 -113v-128q0 -67 -46 -115z
M255 410v-186l-73 -217q-41 10 -69 37l121 366h21zM265 410h21l121 -366q-28 -27 -69 -37l-73 217v186zM255 950v-63l-21 -22q-15 -16 -25.5 -20.5t-35.5 -4.5h-57v28l82 82h57zM322 950l82 -82v-28h-57q-25 0 -35.5 4.5t-25.5 20.5l-21 22v63h57z" />
    <glyph glyph-name="Ycircumflex" unicode="&#x176;" 
d="M160 91h200l48 -46q-47 -45 -113 -45h-70q-66 0 -113 45zM414 422l-47 43v267l48 46q45 -45 45 -113v-128q0 -67 -46 -115zM162 461h196l50 -46l-50 -46h-196l-50 46zM153 465l-47 -43q-46 48 -46 115v128q0 68 45 113l48 -46v-267zM367 365l47 43q46 -48 46 -115v-128
q0 -68 -45 -113l-48 46v267zM255 950v-63l-21 -22q-15 -16 -25.5 -20.5t-35.5 -4.5h-57v28l82 82h57zM322 950l82 -82v-28h-57q-25 0 -35.5 4.5t-25.5 20.5l-21 22v63h57z" />
    <glyph glyph-name="ycircumflex" unicode="&#x177;" 
d="M414 422l-47 43v267l48 46q45 -45 45 -113v-128q0 -67 -46 -115zM162 461h196l50 -46l-50 -46h-196l-50 46zM153 465l-47 -43q-46 48 -46 115v128q0 68 45 113l48 -46v-267zM160 91h200l48 -46q-47 -45 -113 -45h-70q-66 0 -113 45zM367 365l47 43q46 -48 46 -115v-128
q0 -68 -45 -113l-48 46v267zM255 950v-63l-21 -22q-15 -16 -25.5 -20.5t-35.5 -4.5h-57v28l82 82h57zM322 950l82 -82v-28h-57q-25 0 -35.5 4.5t-25.5 20.5l-21 22v63h57z" />
    <glyph glyph-name="Ydieresis" unicode="&#x178;" 
d="M160 91h200l48 -46q-47 -45 -113 -45h-70q-66 0 -113 45zM414 422l-47 43v267l48 46q45 -45 45 -113v-128q0 -67 -46 -115zM162 461h196l50 -46l-50 -46h-196l-50 46zM153 465l-47 -43q-46 48 -46 115v128q0 68 45 113l48 -46v-267zM367 365l47 43q46 -48 46 -115v-128
q0 -68 -45 -113l-48 46v267zM295 895q0 19 13 32t32 13t32 -13t13 -32t-13 -32t-32 -13t-32 13t-13 32zM135 895q0 19 13 32t32 13t32 -13t13 -32t-13 -32t-32 -13t-32 13t-13 32z" />
    <glyph glyph-name="Zacute" unicode="&#x179;" 
d="M160 91h200l48 -46q-47 -45 -113 -45h-70q-66 0 -113 45zM360 739h-200l-48 46q47 45 113 45h70q66 0 113 -45zM414 422l-47 43v267l48 46q45 -45 45 -113v-128q0 -67 -46 -115zM162 461h196l50 -46l-50 -46h-196l-50 46zM106 408l47 -43v-267l-48 -46q-45 45 -45 113
v128q0 67 46 115zM322 840h-57v63l21 22q15 16 25.5 20.5t35.5 4.5h57v-28z" />
    <glyph glyph-name="zacute" unicode="&#x17a;" 
d="M360 739h-200l-48 46q47 45 113 45h70q66 0 113 -45zM414 422l-47 43v267l48 46q45 -45 45 -113v-128q0 -67 -46 -115zM162 461h196l50 -46l-50 -46h-196l-50 46zM160 91h200l48 -46q-47 -45 -113 -45h-70q-66 0 -113 45zM106 408l47 -43v-267l-48 -46q-45 45 -45 113
v128q0 67 46 115zM322 840h-57v63l21 22q15 16 25.5 20.5t35.5 4.5h57v-28z" />
    <glyph glyph-name="Zdotaccent" unicode="&#x17b;" 
d="M160 91h200l48 -46q-47 -45 -113 -45h-70q-66 0 -113 45zM360 739h-200l-48 46q47 45 113 45h70q66 0 113 -45zM414 422l-47 43v267l48 46q45 -45 45 -113v-128q0 -67 -46 -115zM162 461h196l50 -46l-50 -46h-196l-50 46zM106 408l47 -43v-267l-48 -46q-45 45 -45 113
v128q0 67 46 115zM215 895q0 19 13 32t32 13t32 -13t13 -32t-13 -32t-32 -13t-32 13t-13 32z" />
    <glyph glyph-name="zdotaccent" unicode="&#x17c;" 
d="M360 739h-200l-48 46q47 45 113 45h70q66 0 113 -45zM414 422l-47 43v267l48 46q45 -45 45 -113v-128q0 -67 -46 -115zM162 461h196l50 -46l-50 -46h-196l-50 46zM160 91h200l48 -46q-47 -45 -113 -45h-70q-66 0 -113 45zM106 408l47 -43v-267l-48 -46q-45 45 -45 113
v128q0 67 46 115zM215 895q0 19 13 32t32 13t32 -13t13 -32t-13 -32t-32 -13t-32 13t-13 32z" />
    <glyph glyph-name="Zcaron" unicode="&#x17d;" 
d="M255 840h-57l-82 82v28h57q25 0 35.5 -4.5t25.5 -20.5l21 -22v-63zM322 840h-57v63l21 22q15 16 25.5 20.5t35.5 4.5h57v-28zM160 91h200l48 -46q-47 -45 -113 -45h-70q-66 0 -113 45zM360 739h-200l-48 46q47 45 113 45h70q66 0 113 -45zM414 422l-47 43v267l48 46
q45 -45 45 -113v-128q0 -67 -46 -115zM162 461h196l50 -46l-50 -46h-196l-50 46zM106 408l47 -43v-267l-48 -46q-45 45 -45 113v128q0 67 46 115z" />
    <glyph glyph-name="zcaron" unicode="&#x17e;" 
d="M255 840h-57l-82 82v28h57q25 0 35.5 -4.5t25.5 -20.5l21 -22v-63zM322 840h-57v63l21 22q15 16 25.5 20.5t35.5 4.5h57v-28zM360 739h-200l-48 46q47 45 113 45h70q66 0 113 -45zM414 422l-47 43v267l48 46q45 -45 45 -113v-128q0 -67 -46 -115zM162 461h196l50 -46
l-50 -46h-196l-50 46zM160 91h200l48 -46q-47 -45 -113 -45h-70q-66 0 -113 45zM106 408l47 -43v-267l-48 -46q-45 45 -45 113v128q0 67 46 115z" />
    <glyph glyph-name="uni018F" unicode="&#x18f;" 
d="M360 739h-200l-48 46q47 45 113 45h70q66 0 113 -45zM414 422l-47 43v267l48 46q45 -45 45 -113v-128q0 -67 -46 -115zM162 461h196l50 -46l-50 -46h-196l-50 46zM160 91h200l48 -46q-47 -45 -113 -45h-70q-66 0 -113 45zM367 365l47 43q46 -48 46 -115v-128
q0 -68 -45 -113l-48 46v267zM106 408l47 -43v-267l-48 -46q-45 45 -45 113v128q0 67 46 115z" />
    <glyph glyph-name="uni01D3" unicode="&#x1d3;" 
d="M255 840h-57l-82 82v28h57q25 0 35.5 -4.5t25.5 -20.5l21 -22v-63zM322 840h-57v63l21 22q15 16 25.5 20.5t35.5 4.5h57v-28zM160 91h200l48 -46q-47 -45 -113 -45h-70q-66 0 -113 45zM414 422l-47 43v267l48 46q45 -45 45 -113v-128q0 -67 -46 -115zM153 465l-47 -43
q-46 48 -46 115v128q0 68 45 113l48 -46v-267zM367 365l47 43q46 -48 46 -115v-128q0 -68 -45 -113l-48 46v267zM106 408l47 -43v-267l-48 -46q-45 45 -45 113v128q0 67 46 115z" />
    <glyph glyph-name="uni01D4" unicode="&#x1d4;" 
d="M255 840h-57l-82 82v28h57q25 0 35.5 -4.5t25.5 -20.5l21 -22v-63zM322 840h-57v63l21 22q15 16 25.5 20.5t35.5 4.5h57v-28zM106 408l47 -43v-267l-48 -46q-45 45 -45 113v128q0 67 46 115zM414 422l-47 43v267l48 46q45 -45 45 -113v-128q0 -67 -46 -115zM153 465
l-47 -43q-46 48 -46 115v128q0 68 45 113l48 -46v-267zM160 91h200l48 -46q-47 -45 -113 -45h-70q-66 0 -113 45zM367 365l47 43q46 -48 46 -115v-128q0 -68 -45 -113l-48 46v267z" />
    <glyph glyph-name="AEmacron" unicode="&#x1e2;" horiz-adv-x="1040" 
d="M339 830l90 -276q23 -72 -15 -132l-47 43l-102 303v62h74zM682 461h196l50 -46l-50 -46h-196l-50 46zM673 465l-47 -43q-46 48 -46 115v128q0 68 45 113l48 -46v-267zM680 91h200l48 -46q-47 -45 -113 -45h-70q-66 0 -113 45zM626 408l47 -43v-267l-48 -46
q-45 45 -45 113v128q0 67 46 115zM367 365l47 43q46 -48 46 -115v-128q0 -68 -45 -113l-48 46v267zM106 408l47 -43v-267l-48 -46q-45 45 -45 113v128q0 67 46 115zM181 830h74v-62l-102 -303l-47 -43q-38 60 -15 132zM162 461h196l50 -46l-50 -46h-196l-50 46zM880 739
h-200l-48 46q47 45 113 45h70q66 0 113 -45zM378 849v11q20 33 55 53t77 20h20q42 0 77 -20t55 -53v-11h-284z" />
    <glyph glyph-name="aemacron" unicode="&#x1e3;" horiz-adv-x="1040" 
d="M414 422l-47 43v267l48 46q45 -45 45 -113v-128q0 -67 -46 -115zM360 739h-200l-48 46q47 45 113 45h70q66 0 113 -45zM162 461h196l50 -46l-50 -46h-196l-50 46zM160 91h200l48 -46q-47 -45 -113 -45h-70q-66 0 -113 45zM367 365l47 43q46 -48 46 -115v-128
q0 -68 -45 -113l-48 46v267zM106 408l47 -43v-267l-48 -46q-45 45 -45 113v128q0 67 46 115zM880 739h-200l-48 46q47 45 113 45h70q66 0 113 -45zM682 461h196l50 -46l-50 -46h-196l-50 46zM673 465l-47 -43q-46 48 -46 115v128q0 68 45 113l48 -46v-267zM680 91h200
l48 -46q-47 -45 -113 -45h-70q-66 0 -113 45zM626 408l47 -43v-267l-48 -46q-45 45 -45 113v128q0 67 46 115zM934 422l-47 43v267l48 46q45 -45 45 -113v-128q0 -67 -46 -115zM378 849v11q20 33 55 53t77 20h20q42 0 77 -20t55 -53v-11h-284z" />
    <glyph glyph-name="AEacute" unicode="&#x1fc;" horiz-adv-x="1040" 
d="M339 830l90 -276q23 -72 -15 -132l-47 43l-102 303v62h74zM682 461h196l50 -46l-50 -46h-196l-50 46zM673 465l-47 -43q-46 48 -46 115v128q0 68 45 113l48 -46v-267zM680 91h200l48 -46q-47 -45 -113 -45h-70q-66 0 -113 45zM626 408l47 -43v-267l-48 -46
q-45 45 -45 113v128q0 67 46 115zM367 365l47 43q46 -48 46 -115v-128q0 -68 -45 -113l-48 46v267zM106 408l47 -43v-267l-48 -46q-45 45 -45 113v128q0 67 46 115zM181 830h74v-62l-102 -303l-47 -43q-38 60 -15 132zM162 461h196l50 -46l-50 -46h-196l-50 46zM880 739
h-200l-48 46q47 45 113 45h70q66 0 113 -45zM582 840h-57v63l21 22q15 16 25.5 20.5t35.5 4.5h57v-28z" />
    <glyph glyph-name="aeacute" unicode="&#x1fd;" horiz-adv-x="1040" 
d="M414 422l-47 43v267l48 46q45 -45 45 -113v-128q0 -67 -46 -115zM360 739h-200l-48 46q47 45 113 45h70q66 0 113 -45zM162 461h196l50 -46l-50 -46h-196l-50 46zM160 91h200l48 -46q-47 -45 -113 -45h-70q-66 0 -113 45zM367 365l47 43q46 -48 46 -115v-128
q0 -68 -45 -113l-48 46v267zM106 408l47 -43v-267l-48 -46q-45 45 -45 113v128q0 67 46 115zM880 739h-200l-48 46q47 45 113 45h70q66 0 113 -45zM682 461h196l50 -46l-50 -46h-196l-50 46zM673 465l-47 -43q-46 48 -46 115v128q0 68 45 113l48 -46v-267zM680 91h200
l48 -46q-47 -45 -113 -45h-70q-66 0 -113 45zM626 408l47 -43v-267l-48 -46q-45 45 -45 113v128q0 67 46 115zM934 422l-47 43v267l48 46q45 -45 45 -113v-128q0 -67 -46 -115zM582 840h-57v63l21 22q15 16 25.5 20.5t35.5 4.5h57v-28z" />
    <glyph glyph-name="Oslashacute" unicode="&#x1fe;" 
d="M414 422l-47 43v267l48 46q45 -45 45 -113v-128q0 -67 -46 -115zM360 739h-200l-48 46q47 45 113 45h70q66 0 113 -45zM153 465l-47 -43q-46 48 -46 115v128q0 68 45 113l48 -46v-267zM160 91h200l48 -46q-47 -45 -113 -45h-70q-66 0 -113 45zM367 365l47 43
q46 -48 46 -115v-128q0 -68 -45 -113l-48 46v267zM106 408l47 -43v-267l-48 -46q-45 45 -45 113v128q0 67 46 115zM163 121l142 608h52v-20l-142 -608h-52v20zM322 840h-57v63l21 22q15 16 25.5 20.5t35.5 4.5h57v-28z" />
    <glyph glyph-name="oslashacute" unicode="&#x1ff;" 
d="M360 739h-200l-48 46q47 45 113 45h70q66 0 113 -45zM414 422l-47 43v267l48 46q45 -45 45 -113v-128q0 -67 -46 -115zM153 465l-47 -43q-46 48 -46 115v128q0 68 45 113l48 -46v-267zM160 91h200l48 -46q-47 -45 -113 -45h-70q-66 0 -113 45zM367 365l47 43
q46 -48 46 -115v-128q0 -68 -45 -113l-48 46v267zM106 408l47 -43v-267l-48 -46q-45 45 -45 113v128q0 67 46 115zM163 121l142 608h52v-20l-142 -608h-52v20zM322 840h-57v63l21 22q15 16 25.5 20.5t35.5 4.5h57v-28z" />
    <glyph glyph-name="Scommaaccent" unicode="&#x218;" 
d="M160 91h200l48 -46q-47 -45 -113 -45h-70q-66 0 -113 45zM360 739h-200l-48 46q47 45 113 45h70q66 0 113 -45zM162 461h196l50 -46l-50 -46h-196l-50 46zM153 465l-47 -43q-46 48 -46 115v128q0 68 45 113l48 -46v-267zM367 365l47 43q46 -48 46 -115v-128
q0 -68 -45 -113l-48 46v267zM216 -10h88q0 -65 -45 -110h-43v110z" />
    <glyph glyph-name="scommaaccent" unicode="&#x219;" 
d="M360 739h-200l-48 46q47 45 113 45h70q66 0 113 -45zM162 461h196l50 -46l-50 -46h-196l-50 46zM153 465l-47 -43q-46 48 -46 115v128q0 68 45 113l48 -46v-267zM160 91h200l48 -46q-47 -45 -113 -45h-70q-66 0 -113 45zM367 365l47 43q46 -48 46 -115v-128
q0 -68 -45 -113l-48 46v267zM216 -10h88q0 -65 -45 -110h-43v110z" />
    <glyph glyph-name="uni021A" unicode="&#x21a;" 
d="M216 -10h88q0 -65 -45 -110h-43v110zM360 739h-200l-48 46q47 45 113 45h70q66 0 113 -45zM414 422l-47 43v267l48 46q45 -45 45 -113v-128q0 -67 -46 -115zM153 465l-47 -43q-46 48 -46 115v128q0 68 45 113l48 -46v-267zM260 441l-43 27v261h86v-261zM217 362l43 27
l43 -27v-296h-86v296z" />
    <glyph glyph-name="uni021B" unicode="&#x21b;" 
d="M216 -10h88q0 -65 -45 -110h-43v110zM162 461h196l50 -46l-50 -46h-196l-50 46zM153 465l-47 -43q-46 48 -46 115v128q0 68 45 113l48 -46v-267zM160 91h200l48 -46q-47 -45 -113 -45h-70q-66 0 -113 45zM106 408l47 -43v-267l-48 -46q-45 45 -45 113v128q0 67 46 115z
" />
    <glyph glyph-name="dotlessj" unicode="&#x237;" 
d="M414 422l-47 43v267l48 46q45 -45 45 -113v-128q0 -67 -46 -115zM160 91h200l48 -46q-47 -45 -113 -45h-70q-66 0 -113 45zM367 365l47 43q46 -48 46 -115v-128q0 -68 -45 -113l-48 46v267z" />
    <glyph glyph-name="schwa" unicode="&#x259;" 
d="M360 739h-200l-48 46q47 45 113 45h70q66 0 113 -45zM414 422l-47 43v267l48 46q45 -45 45 -113v-128q0 -67 -46 -115zM162 461h196l50 -46l-50 -46h-196l-50 46zM160 91h200l48 -46q-47 -45 -113 -45h-70q-66 0 -113 45zM367 365l47 43q46 -48 46 -115v-128
q0 -68 -45 -113l-48 46v267zM106 408l47 -43v-267l-48 -46q-45 45 -45 113v128q0 67 46 115z" />
    <glyph glyph-name="circumflex" unicode="&#x2c6;" 
d="M255 950v-63l-21 -22q-15 -16 -25.5 -20.5t-35.5 -4.5h-57v28l82 82h57zM322 950l82 -82v-28h-57q-25 0 -35.5 4.5t-25.5 20.5l-21 22v63h57z" />
    <glyph glyph-name="caron" unicode="&#x2c7;" 
d="M255 840h-57l-82 82v28h57q25 0 35.5 -4.5t25.5 -20.5l21 -22v-63zM322 840h-57v63l21 22q15 16 25.5 20.5t35.5 4.5h57v-28z" />
    <glyph glyph-name="breve" unicode="&#x2d8;" 
d="M402 933v-11q-20 -33 -55.5 -53t-76.5 -20h-20q-41 0 -76.5 20t-55.5 53v11h284z" />
    <glyph glyph-name="dotaccent" unicode="&#x2d9;" 
d="M215 895q0 19 13 32t32 13t32 -13t13 -32t-13 -32t-32 -13t-32 13t-13 32z" />
    <glyph glyph-name="ring" unicode="&#x2da;" 
d="M205 895q0 23 16.5 39t38.5 16t38.5 -16t16.5 -39t-16.5 -39t-38.5 -16t-38.5 16t-16.5 39zM244 895q0 -16 16 -16t16 16t-16 16t-16 -16z" />
    <glyph glyph-name="ogonek" unicode="&#x2db;" 
d="M265 -73v63h57l82 -82v-28h-57q-25 0 -35.5 4.5t-25.5 20.5z" />
    <glyph glyph-name="tilde" unicode="&#x2dc;" 
d="M118 849v11q20 33 55 53t77 20h152v-11q-20 -33 -55.5 -53t-76.5 -20h-152z" />
    <glyph glyph-name="hungarumlaut" unicode="&#x2dd;" 
d="M330 840h-39v63l21 22q15 16 25.5 20.5t35.5 4.5h38v-28zM216 840h-39v63l21 22q15 16 25.5 20.5t35.5 4.5h38v-28z" />
    <glyph glyph-name="Delta" unicode="&#x394;" 
d="M339 830l90 -276q23 -72 -15 -132l-47 43l-102 303v62h74zM181 830h74v-62l-102 -303l-47 -43q-38 60 -15 132zM367 365l47 43q46 -48 46 -115v-128q0 -68 -45 -113l-48 46v267zM106 408l47 -43v-267l-48 -46q-45 45 -45 113v128q0 67 46 115zM160 91h200l48 -46
q-47 -45 -113 -45h-70q-66 0 -113 45z" />
    <glyph glyph-name="Delta" unicode="&#x2206;" 
d="M339 830l90 -276q23 -72 -15 -132l-47 43l-102 303v62h74zM181 830h74v-62l-102 -303l-47 -43q-38 60 -15 132zM367 365l47 43q46 -48 46 -115v-128q0 -68 -45 -113l-48 46v267zM106 408l47 -43v-267l-48 -46q-45 45 -45 113v128q0 67 46 115zM160 91h200l48 -46
q-47 -45 -113 -45h-70q-66 0 -113 45z" />
    <glyph glyph-name="Sigma" unicode="&#x3a3;" 
d="M157 732l102 -292v-20h-86l-78 221q-13 40 -9 77.5t23 59.5zM173 410h86v-20l-102 -292l-48 -46q-19 22 -23 59.5t9 77.5zM164 91h200l48 -46q-47 -45 -113 -45h-70q-66 0 -113 45zM364 739h-200l-48 46q47 45 113 45h70q66 0 113 -45z" />
    <glyph glyph-name="Omega" unicode="&#x3a9;" 
d="M360 739h-200l-48 46q47 45 113 45h70q66 0 113 -45zM414 422l-47 43v267l48 46q45 -45 45 -113v-128q0 -67 -46 -115zM153 465l-47 -43q-46 48 -46 115v128q0 68 45 113l48 -46v-267zM367 365l47 43q46 -48 46 -115v-128q0 -68 -45 -113l-48 46v267zM106 408l47 -43
v-267l-48 -46q-45 45 -45 113v128q0 67 46 115zM15 0v68h66q34 -48 91 -68h-157zM505 0h-157q57 20 91 68h66v-68z" />
    <glyph glyph-name="Omega" unicode="&#x2126;" 
d="M360 739h-200l-48 46q47 45 113 45h70q66 0 113 -45zM414 422l-47 43v267l48 46q45 -45 45 -113v-128q0 -67 -46 -115zM153 465l-47 -43q-46 48 -46 115v128q0 68 45 113l48 -46v-267zM367 365l47 43q46 -48 46 -115v-128q0 -68 -45 -113l-48 46v267zM106 408l47 -43
v-267l-48 -46q-45 45 -45 113v128q0 67 46 115zM15 0v68h66q34 -48 91 -68h-157zM505 0h-157q57 20 91 68h66v-68z" />
    <glyph glyph-name="pi" unicode="&#x3c0;" 
d="M162 461h196l50 -46l-50 -46h-196l-50 46zM367 365l47 43q46 -48 46 -115v-128q0 -68 -45 -113l-48 46v267zM106 408l47 -43v-267l-48 -46q-45 45 -45 113v128q0 67 46 115zM10 461h57l30 -46l-30 -46h-57v92zM510 461v-92h-57l-30 46l30 46h57z" />
    <glyph glyph-name="uni1E46" unicode="&#x1e46;" 
d="M414 422l-47 43v267l48 46q45 -45 45 -113v-128q0 -67 -46 -115zM106 408l47 -43v-267l-48 -46q-45 45 -45 113v128q0 67 46 115zM153 465l-47 -43q-46 48 -46 115v128q0 68 45 113l48 -148v-165zM255 420h-21l-121 366q28 27 69 37l73 -217v-186zM367 365l47 43
q46 -48 46 -115v-128q0 -68 -45 -113l-48 148v165zM265 410h21l121 -366q-28 -27 -69 -37l-73 217v186zM215 -65q0 19 13 32t32 13t32 -13t13 -32t-13 -32t-32 -13t-32 13t-13 32z" />
    <glyph glyph-name="uni1E47" unicode="&#x1e47;" 
d="M360 739h-200l-48 46q47 45 113 45h70q66 0 113 -45zM414 422l-47 43v267l48 46q45 -45 45 -113v-128q0 -67 -46 -115zM153 465l-47 -43q-46 48 -46 115v128q0 68 45 113l48 -46v-267zM367 365l47 43q46 -48 46 -115v-128q0 -68 -45 -113l-48 46v267zM106 408l47 -43
v-267l-48 -46q-45 45 -45 113v128q0 67 46 115zM215 -65q0 19 13 32t32 13t32 -13t13 -32t-13 -32t-32 -13t-32 13t-13 32z" />
    <glyph glyph-name="uni1E62" unicode="&#x1e62;" 
d="M160 91h200l48 -46q-47 -45 -113 -45h-70q-66 0 -113 45zM360 739h-200l-48 46q47 45 113 45h70q66 0 113 -45zM162 461h196l50 -46l-50 -46h-196l-50 46zM153 465l-47 -43q-46 48 -46 115v128q0 68 45 113l48 -46v-267zM367 365l47 43q46 -48 46 -115v-128
q0 -68 -45 -113l-48 46v267zM215 -65q0 19 13 32t32 13t32 -13t13 -32t-13 -32t-32 -13t-32 13t-13 32z" />
    <glyph glyph-name="uni1E63" unicode="&#x1e63;" 
d="M360 739h-200l-48 46q47 45 113 45h70q66 0 113 -45zM162 461h196l50 -46l-50 -46h-196l-50 46zM153 465l-47 -43q-46 48 -46 115v128q0 68 45 113l48 -46v-267zM160 91h200l48 -46q-47 -45 -113 -45h-70q-66 0 -113 45zM367 365l47 43q46 -48 46 -115v-128
q0 -68 -45 -113l-48 46v267zM215 -65q0 19 13 32t32 13t32 -13t13 -32t-13 -32t-32 -13t-32 13t-13 32z" />
    <glyph glyph-name="Wgrave" unicode="&#x1e80;" 
d="M106 408l47 -43v-165l-48 -148q-45 45 -45 113v128q0 67 46 115zM367 365l47 43q46 -48 46 -115v-128q0 -68 -45 -113l-48 148v165zM153 465l-47 -43q-46 48 -46 115v128q0 68 45 113l48 -46v-267zM414 422l-47 43v267l48 46q45 -45 45 -113v-128q0 -67 -46 -115z
M255 410v-186l-73 -217q-41 10 -69 37l121 366h21zM265 410h21l121 -366q-28 -27 -69 -37l-73 217v186zM255 840h-57l-82 82v28h57q25 0 35.5 -4.5t25.5 -20.5l21 -22v-63z" />
    <glyph glyph-name="wgrave" unicode="&#x1e81;" 
d="M153 465l-47 -43q-46 48 -46 115v128q0 68 45 113l48 -46v-267zM106 408l47 -43v-165l-48 -148q-45 45 -45 113v128q0 67 46 115zM367 365l47 43q46 -48 46 -115v-128q0 -68 -45 -113l-48 148v165zM414 422l-47 43v267l48 46q45 -45 45 -113v-128q0 -67 -46 -115z
M255 410v-186l-73 -217q-41 10 -69 37l121 366h21zM265 410h21l121 -366q-28 -27 -69 -37l-73 217v186zM255 840h-57l-82 82v28h57q25 0 35.5 -4.5t25.5 -20.5l21 -22v-63z" />
    <glyph glyph-name="Wacute" unicode="&#x1e82;" 
d="M106 408l47 -43v-165l-48 -148q-45 45 -45 113v128q0 67 46 115zM367 365l47 43q46 -48 46 -115v-128q0 -68 -45 -113l-48 148v165zM153 465l-47 -43q-46 48 -46 115v128q0 68 45 113l48 -46v-267zM414 422l-47 43v267l48 46q45 -45 45 -113v-128q0 -67 -46 -115z
M255 410v-186l-73 -217q-41 10 -69 37l121 366h21zM265 410h21l121 -366q-28 -27 -69 -37l-73 217v186zM322 840h-57v63l21 22q15 16 25.5 20.5t35.5 4.5h57v-28z" />
    <glyph glyph-name="wacute" unicode="&#x1e83;" 
d="M153 465l-47 -43q-46 48 -46 115v128q0 68 45 113l48 -46v-267zM106 408l47 -43v-165l-48 -148q-45 45 -45 113v128q0 67 46 115zM367 365l47 43q46 -48 46 -115v-128q0 -68 -45 -113l-48 148v165zM414 422l-47 43v267l48 46q45 -45 45 -113v-128q0 -67 -46 -115z
M255 410v-186l-73 -217q-41 10 -69 37l121 366h21zM265 410h21l121 -366q-28 -27 -69 -37l-73 217v186zM322 840h-57v63l21 22q15 16 25.5 20.5t35.5 4.5h57v-28z" />
    <glyph glyph-name="Wdieresis" unicode="&#x1e84;" 
d="M295 895q0 19 13 32t32 13t32 -13t13 -32t-13 -32t-32 -13t-32 13t-13 32zM135 895q0 19 13 32t32 13t32 -13t13 -32t-13 -32t-32 -13t-32 13t-13 32zM106 408l47 -43v-165l-48 -148q-45 45 -45 113v128q0 67 46 115zM367 365l47 43q46 -48 46 -115v-128q0 -68 -45 -113
l-48 148v165zM153 465l-47 -43q-46 48 -46 115v128q0 68 45 113l48 -46v-267zM414 422l-47 43v267l48 46q45 -45 45 -113v-128q0 -67 -46 -115zM255 410v-186l-73 -217q-41 10 -69 37l121 366h21zM265 410h21l121 -366q-28 -27 -69 -37l-73 217v186z" />
    <glyph glyph-name="wdieresis" unicode="&#x1e85;" 
d="M295 895q0 19 13 32t32 13t32 -13t13 -32t-13 -32t-32 -13t-32 13t-13 32zM135 895q0 19 13 32t32 13t32 -13t13 -32t-13 -32t-32 -13t-32 13t-13 32zM153 465l-47 -43q-46 48 -46 115v128q0 68 45 113l48 -46v-267zM106 408l47 -43v-165l-48 -148q-45 45 -45 113v128
q0 67 46 115zM367 365l47 43q46 -48 46 -115v-128q0 -68 -45 -113l-48 148v165zM414 422l-47 43v267l48 46q45 -45 45 -113v-128q0 -67 -46 -115zM255 410v-186l-73 -217q-41 10 -69 37l121 366h21zM265 410h21l121 -366q-28 -27 -69 -37l-73 217v186z" />
    <glyph glyph-name="uni1EBC" unicode="&#x1ebc;" 
d="M162 461h196l50 -46l-50 -46h-196l-50 46zM160 91h200l48 -46q-47 -45 -113 -45h-70q-66 0 -113 45zM360 739h-200l-48 46q47 45 113 45h70q66 0 113 -45zM153 465l-47 -43q-46 48 -46 115v128q0 68 45 113l48 -46v-267zM106 408l47 -43v-267l-48 -46q-45 45 -45 113v128
q0 67 46 115zM118 849v11q20 33 55 53t77 20h152v-11q-20 -33 -55.5 -53t-76.5 -20h-152z" />
    <glyph glyph-name="uni1EBD" unicode="&#x1ebd;" 
d="M360 739h-200l-48 46q47 45 113 45h70q66 0 113 -45zM414 422l-47 43v267l48 46q45 -45 45 -113v-128q0 -67 -46 -115zM162 461h196l50 -46l-50 -46h-196l-50 46zM153 465l-47 -43q-46 48 -46 115v128q0 68 45 113l48 -46v-267zM160 91h200l48 -46q-47 -45 -113 -45h-70
q-66 0 -113 45zM106 408l47 -43v-267l-48 -46q-45 45 -45 113v128q0 67 46 115zM118 849v11q20 33 55 53t77 20h152v-11q-20 -33 -55.5 -53t-76.5 -20h-152z" />
    <glyph glyph-name="Ygrave" unicode="&#x1ef2;" 
d="M160 91h200l48 -46q-47 -45 -113 -45h-70q-66 0 -113 45zM414 422l-47 43v267l48 46q45 -45 45 -113v-128q0 -67 -46 -115zM162 461h196l50 -46l-50 -46h-196l-50 46zM153 465l-47 -43q-46 48 -46 115v128q0 68 45 113l48 -46v-267zM367 365l47 43q46 -48 46 -115v-128
q0 -68 -45 -113l-48 46v267zM255 840h-57l-82 82v28h57q25 0 35.5 -4.5t25.5 -20.5l21 -22v-63z" />
    <glyph glyph-name="ygrave" unicode="&#x1ef3;" 
d="M414 422l-47 43v267l48 46q45 -45 45 -113v-128q0 -67 -46 -115zM162 461h196l50 -46l-50 -46h-196l-50 46zM153 465l-47 -43q-46 48 -46 115v128q0 68 45 113l48 -46v-267zM160 91h200l48 -46q-47 -45 -113 -45h-70q-66 0 -113 45zM367 365l47 43q46 -48 46 -115v-128
q0 -68 -45 -113l-48 46v267zM255 840h-57l-82 82v28h57q25 0 35.5 -4.5t25.5 -20.5l21 -22v-63z" />
    <glyph glyph-name="endash" unicode="&#x2013;" 
d="M162 461h196l50 -46l-50 -46h-196l-50 46z" />
    <glyph glyph-name="emdash" unicode="&#x2014;" 
d="M162 461h196l50 -46l-50 -46h-196l-50 46z" />
    <glyph glyph-name="quoteleft" unicode="&#x2018;" 
d="M261 778h43v-345h-88v231q0 69 45 114z" />
    <glyph glyph-name="quoteright" unicode="&#x2019;" 
d="M259 422h-43v345h88v-231q0 -69 -45 -114z" />
    <glyph glyph-name="quotesinglbase" unicode="&#x201a;" 
d="M259 52h-43v345h88v-231q0 -69 -45 -114z" />
    <glyph glyph-name="quotedblleft" unicode="&#x201c;" 
d="M161 778h43v-345h-88v231q0 69 45 114zM361 778h43v-345h-88v231q0 69 45 114z" />
    <glyph glyph-name="quotedblright" unicode="&#x201d;" 
d="M159 422h-43v345h88v-231q0 -69 -45 -114zM359 422h-43v345h88v-231q0 -69 -45 -114z" />
    <glyph glyph-name="quotedblbase" unicode="&#x201e;" 
d="M159 52h-43v345h88v-231q0 -69 -45 -114zM359 52h-43v345h88v-231q0 -69 -45 -114z" />
    <glyph glyph-name="dagger" unicode="&#x2020;" 
d="M162 461h196l50 -46l-50 -46h-196l-50 46zM160 91h200l48 -46q-47 -45 -113 -45h-70q-66 0 -113 45zM303 471h-86v258h86v-258zM217 359h86v-258h-86v258z" />
    <glyph glyph-name="daggerdbl" unicode="&#x2021;" 
d="M160 91h200l48 -46q-47 -45 -113 -45h-70q-66 0 -113 45zM106 408l47 -43v-267l-48 -46q-45 45 -45 113v128q0 67 46 115zM367 365l47 43q46 -48 46 -115v-128q0 -68 -45 -113l-48 46v267zM260 389l43 -27v-261h-86v261zM303 468l-43 -27l-43 27v261h86v-261zM360 739
h-200l-48 46q47 45 113 45h70q66 0 113 -45zM216 -10h88v-65h-88v65z" />
    <glyph glyph-name="bullet" unicode="&#x2022;" 
d="M117 415q0 59 42 101t101 42t101 -42t42 -101t-42 -101t-101 -42t-101 42t-42 101z" />
    <glyph glyph-name="ellipsis" unicode="&#x2026;" 
d="M202 58q0 23 17 40t41 17t41 -17t17 -40q0 -24 -17 -41t-41 -17t-41 17t-17 41zM27 58q0 23 17 40t41 17t41 -17t17 -40q0 -24 -17 -41t-41 -17t-41 17t-17 41zM377 58q0 23 17 40t41 17t41 -17t17 -40q0 -24 -17 -41t-41 -17t-41 17t-17 41z" />
    <glyph glyph-name="guilsinglleft" unicode="&#x2039;" 
d="M249 464l-69 -13l15 70l98 98l56 -56zM293 211l-98 98l-15 70l69 -13l100 -99z" />
    <glyph glyph-name="guilsinglright" unicode="&#x203a;" 
d="M339 451l-69 13l-100 99l56 56l98 -98zM324 309l-98 -98l-56 56l100 99l69 13z" />
    <glyph glyph-name="zerosuperior" unicode="&#x2070;" 
d="M399 604l-32 39v39q0 23 -17 40t-41 17h-98q-24 0 -41 -17t-17 -40v-39l-32 -39h-45q-16 19 -16 61q0 68 48.5 116.5t116.5 48.5h70q68 0 116.5 -48.5t48.5 -116.5q0 -19 -4 -34t-8 -21l-4 -6h-45zM399 594h45q16 -18 16 -60q0 -68 -48.5 -116.5t-116.5 -48.5h-70
q-68 0 -116.5 48.5t-48.5 116.5q0 19 4 34t8 20l4 6h45l32 -38v-39q0 -24 17 -40.5t41 -16.5h98q24 0 41 16.5t17 40.5v39z" />
    <glyph glyph-name="foursuperior" unicode="&#x2074;" 
d="M460 830v-165q0 -19 -4 -34t-8 -21l-4 -6h-45l-32 39v187h93zM60 830h93v-187l-32 -39h-45q-16 19 -16 61v165zM460 369h-93v187l32 38h45q16 -18 16 -60v-165zM391 599l-37 -43h-188l-37 43l37 44h188z" />
    <glyph glyph-name="fivesuperior" unicode="&#x2075;" 
d="M360 739h-149q-24 0 -41 -17t-17 -40v-39l-32 -39h-45q-16 19 -16 61q0 68 48.5 116.5t116.5 48.5h70q66 0 113 -45zM160 460h149q24 0 41 16.5t17 40.5v39l32 38h45q16 -18 16 -60q0 -68 -48.5 -116.5t-116.5 -48.5h-70q-66 0 -113 45zM129 599l37 44h188l37 -44
l-37 -43h-188z" />
    <glyph glyph-name="sixsuperior" unicode="&#x2076;" 
d="M360 739h-149q-24 0 -41 -17t-17 -40v-39l-32 -39h-45q-16 19 -16 61q0 68 48.5 116.5t116.5 48.5h70q66 0 113 -45zM399 594h45q16 -18 16 -60q0 -68 -48.5 -116.5t-116.5 -48.5h-70q-68 0 -116.5 48.5t-48.5 116.5q0 19 4 34t8 20l4 6h45l32 -38v-39q0 -24 17 -40.5
t41 -16.5h98q24 0 41 16.5t17 40.5v39zM391 599l-37 -43h-188l-37 43l37 44h188z" />
    <glyph glyph-name="sevensuperior" unicode="&#x2077;" 
d="M460 369h-93v187l32 38h45q16 -18 16 -60v-165zM399 604l-32 39v39q0 23 -17 40t-41 17h-98q-24 0 -41 -17t-17 -40v-39l-32 -39h-45q-16 19 -16 61q0 68 48.5 116.5t116.5 48.5h70q68 0 116.5 -48.5t48.5 -116.5q0 -19 -4 -34t-8 -21l-4 -6h-45z" />
    <glyph glyph-name="eightsuperior" unicode="&#x2078;" 
d="M399 604l-32 39v39q0 23 -17 40t-41 17h-98q-24 0 -41 -17t-17 -40v-39l-32 -39h-45q-16 19 -16 61q0 68 48.5 116.5t116.5 48.5h70q68 0 116.5 -48.5t48.5 -116.5q0 -19 -4 -34t-8 -21l-4 -6h-45zM399 594h45q16 -18 16 -60q0 -68 -48.5 -116.5t-116.5 -48.5h-70
q-68 0 -116.5 48.5t-48.5 116.5q0 19 4 34t8 20l4 6h45l32 -38v-39q0 -24 17 -40.5t41 -16.5h98q24 0 41 16.5t17 40.5v39zM391 599l-37 -43h-188l-37 43l37 44h188z" />
    <glyph glyph-name="ninesuperior" unicode="&#x2079;" 
d="M160 460h149q24 0 41 16.5t17 40.5v39l32 38h45q16 -18 16 -60q0 -68 -48.5 -116.5t-116.5 -48.5h-70q-66 0 -113 45zM121 604h-45q-16 19 -16 61q0 68 48.5 116.5t116.5 48.5h70q68 0 116.5 -48.5t48.5 -116.5q0 -19 -4 -34t-8 -21l-4 -6h-45l-32 39v39q0 23 -17 40
t-41 17h-98q-24 0 -41 -17t-17 -40v-39zM129 599l37 44h188l37 -44l-37 -43h-188z" />
    <glyph glyph-name="zeroinferior" unicode="&#x2080;" 
d="M399 236l-32 38v39q0 24 -17 40.5t-41 16.5h-98q-24 0 -41 -16.5t-17 -40.5v-39l-32 -38h-45q-16 18 -16 60q0 68 48.5 116.5t116.5 48.5h70q68 0 116.5 -48.5t48.5 -116.5q0 -19 -4 -34t-8 -20l-4 -6h-45zM399 226h45q16 -19 16 -61q0 -68 -48.5 -116.5t-116.5 -48.5
h-70q-68 0 -116.5 48.5t-48.5 116.5q0 19 4 34t8 21l4 6h45l32 -39v-39q0 -23 17 -40t41 -17h98q24 0 41 17t17 40v39z" />
    <glyph glyph-name="oneinferior" unicode="&#x2081;" 
d="M460 461v-165q0 -19 -4 -34t-8 -20l-4 -6h-45l-32 38v187h93zM460 0h-93v187l32 39h45q16 -19 16 -61v-165z" />
    <glyph glyph-name="twoinferior" unicode="&#x2082;" 
d="M160 370l-48 46q47 45 113 45h70q68 0 116.5 -48.5t48.5 -116.5q0 -19 -4 -34t-8 -20l-4 -6h-45l-32 38v39q0 24 -17 40.5t-41 16.5h-149zM360 91l48 -46q-47 -45 -113 -45h-70q-68 0 -116.5 48.5t-48.5 116.5q0 19 4 34t8 21l4 6h45l32 -39v-39q0 -23 17 -40t41 -17h149
zM391 231l-37 -44h-188l-37 44l37 43h188z" />
    <glyph glyph-name="threeinferior" unicode="&#x2083;" 
d="M160 370l-48 46q47 45 113 45h70q68 0 116.5 -48.5t48.5 -116.5q0 -19 -4 -34t-8 -20l-4 -6h-45l-32 38v39q0 24 -17 40.5t-41 16.5h-149zM160 91h149q24 0 41 17t17 40v39l32 39h45q16 -19 16 -61q0 -68 -48.5 -116.5t-116.5 -48.5h-70q-66 0 -113 45zM391 231l-37 -44
h-188l-37 44l37 43h188z" />
    <glyph glyph-name="fourinferior" unicode="&#x2084;" 
d="M460 461v-165q0 -19 -4 -34t-8 -20l-4 -6h-45l-32 38v187h93zM60 461h93v-187l-32 -38h-45q-16 18 -16 60v165zM460 0h-93v187l32 39h45q16 -19 16 -61v-165zM391 231l-37 -44h-188l-37 44l37 43h188z" />
    <glyph glyph-name="fiveinferior" unicode="&#x2085;" 
d="M360 370h-149q-24 0 -41 -16.5t-17 -40.5v-39l-32 -38h-45q-16 18 -16 60q0 68 48.5 116.5t116.5 48.5h70q66 0 113 -45zM160 91h149q24 0 41 17t17 40v39l32 39h45q16 -19 16 -61q0 -68 -48.5 -116.5t-116.5 -48.5h-70q-66 0 -113 45zM129 231l37 43h188l37 -43l-37 -44
h-188z" />
    <glyph glyph-name="sixinferior" unicode="&#x2086;" 
d="M360 370h-149q-24 0 -41 -16.5t-17 -40.5v-39l-32 -38h-45q-16 18 -16 60q0 68 48.5 116.5t116.5 48.5h70q66 0 113 -45zM399 226h45q16 -19 16 -61q0 -68 -48.5 -116.5t-116.5 -48.5h-70q-68 0 -116.5 48.5t-48.5 116.5q0 19 4 34t8 21l4 6h45l32 -39v-39q0 -23 17 -40
t41 -17h98q24 0 41 17t17 40v39zM391 231l-37 -44h-188l-37 44l37 43h188z" />
    <glyph glyph-name="seveninferior" unicode="&#x2087;" 
d="M460 0h-93v187l32 39h45q16 -19 16 -61v-165zM399 236l-32 38v39q0 24 -17 40.5t-41 16.5h-98q-24 0 -41 -16.5t-17 -40.5v-39l-32 -38h-45q-16 18 -16 60q0 68 48.5 116.5t116.5 48.5h70q68 0 116.5 -48.5t48.5 -116.5q0 -19 -4 -34t-8 -20l-4 -6h-45z" />
    <glyph glyph-name="eightinferior" unicode="&#x2088;" 
d="M399 236l-32 38v39q0 24 -17 40.5t-41 16.5h-98q-24 0 -41 -16.5t-17 -40.5v-39l-32 -38h-45q-16 18 -16 60q0 68 48.5 116.5t116.5 48.5h70q68 0 116.5 -48.5t48.5 -116.5q0 -19 -4 -34t-8 -20l-4 -6h-45zM399 226h45q16 -19 16 -61q0 -68 -48.5 -116.5t-116.5 -48.5
h-70q-68 0 -116.5 48.5t-48.5 116.5q0 19 4 34t8 21l4 6h45l32 -39v-39q0 -23 17 -40t41 -17h98q24 0 41 17t17 40v39zM391 231l-37 -44h-188l-37 44l37 43h188z" />
    <glyph glyph-name="nineinferior" unicode="&#x2089;" 
d="M160 91h149q24 0 41 17t17 40v39l32 39h45q16 -19 16 -61q0 -68 -48.5 -116.5t-116.5 -48.5h-70q-66 0 -113 45zM121 236h-45q-16 18 -16 60q0 68 48.5 116.5t116.5 48.5h70q68 0 116.5 -48.5t48.5 -116.5q0 -19 -4 -34t-8 -20l-4 -6h-45l-32 38v39q0 24 -17 40.5
t-41 16.5h-98q-24 0 -41 -16.5t-17 -40.5v-39zM129 231l37 43h188l37 -43l-37 -44h-188z" />
    <glyph glyph-name="Euro" unicode="&#x20ac;" 
d="M10 461h57l30 -46l-30 -46h-57v92zM162 461h196l50 -46l-50 -46h-196l-50 46zM160 91h200l48 -46q-47 -45 -113 -45h-70q-66 0 -113 45zM360 739h-200l-48 46q47 45 113 45h70q66 0 113 -45zM153 465l-47 -43q-46 48 -46 115v128q0 68 45 113l48 -46v-267zM106 408
l47 -43v-267l-48 -46q-45 45 -45 113v128q0 67 46 115z" />
    <glyph glyph-name="afii61289" unicode="&#x2113;" 
d="M408 45q-47 -45 -113 -45h-70q-68 0 -116.5 48.5t-48.5 116.5v128q0 67 46 115l47 -43v-217q0 -23 17 -40t41 -17h149zM153 465l-47 -43q-46 48 -46 115v128q0 68 45 113l48 -46v-267z" />
    <glyph glyph-name="afii61352" unicode="&#x2116;" horiz-adv-x="1040" 
d="M880 739h-200l-48 46q47 45 113 45h70q66 0 113 -45zM934 422l-47 43v267l48 46q45 -45 45 -113v-128q0 -67 -46 -115zM682 461h196l50 -46l-50 -46h-196l-50 46zM673 465l-47 -43q-46 48 -46 115v128q0 68 45 113l48 -46v-267zM680 91h200l48 -46q-47 -45 -113 -45h-70
q-66 0 -113 45zM414 422l-47 43v267l48 46q45 -45 45 -113v-128q0 -67 -46 -115zM106 408l47 -43v-267l-48 -46q-45 45 -45 113v128q0 67 46 115zM153 465l-47 -43q-46 48 -46 115v128q0 68 45 113l48 -148v-165zM255 420h-21l-121 366q28 27 69 37l73 -217v-186zM367 365
l47 43q46 -48 46 -115v-128q0 -68 -45 -113l-48 148v165zM265 410h21l121 -366q-28 -27 -69 -37l-73 217v186z" />
    <glyph glyph-name="uni2117" unicode="&#x2117;" 
d="M399 604l-32 39v39q0 23 -17 40t-41 17h-98q-24 0 -41 -17t-17 -40v-39l-32 -39h-45q-16 19 -16 61q0 68 48.5 116.5t116.5 48.5h70q68 0 116.5 -48.5t48.5 -116.5q0 -19 -4 -34t-8 -21l-4 -6h-45zM60 369v165q0 19 4 34t8 20l4 6h45l32 -38v-187h-93zM129 599l37 44h188
l37 -44l-37 -43h-188z" />
    <glyph glyph-name="servicemark" unicode="&#x2120;" horiz-adv-x="1040" 
d="M919 604l-32 39v39q0 23 -17 40t-41 17h-98q-24 0 -41 -17t-17 -40v-39l-32 -39h-45q-16 19 -16 61q0 68 48.5 116.5t116.5 48.5h70q68 0 116.5 -48.5t48.5 -116.5q0 -19 -4 -34t-8 -21l-4 -6h-45zM580 369v165q0 19 4 34t8 20l4 6h45l32 -38v-187h-93zM980 369h-93v187
l32 38h45q16 -18 16 -60v-165zM737 470v259h86v-259h-86zM360 739h-149q-24 0 -41 -17t-17 -40v-39l-32 -39h-45q-16 19 -16 61q0 68 48.5 116.5t116.5 48.5h70q66 0 113 -45zM160 460h149q24 0 41 16.5t17 40.5v39l32 38h45q16 -18 16 -60q0 -68 -48.5 -116.5t-116.5 -48.5
h-70q-66 0 -113 45zM129 599l37 44h188l37 -44l-37 -43h-188z" />
    <glyph glyph-name="trademark" unicode="&#x2122;" horiz-adv-x="1040" 
d="M964 604h-45l-32 39v39q0 23 -17 40t-41 17h-98q-24 0 -41 -17t-17 -40v-39l-32 -39h-45q-16 19 -16 61q0 68 48.5 116.5t116.5 48.5h70q68 0 116.5 -48.5t48.5 -116.5q0 -19 -4 -34t-8 -21zM580 369v165q0 19 4 34t8 20l4 6h45l32 -38v-187h-93zM980 534v-165h-93v187
l32 38h45q16 -18 16 -60zM737 470v259h86v-259h-86zM399 604l-32 39v39q0 23 -17 40t-41 17h-98q-24 0 -41 -17t-17 -40v-39l-32 -39h-45q-16 19 -16 61q0 68 48.5 116.5t116.5 48.5h70q68 0 116.5 -48.5t48.5 -116.5q0 -19 -4 -34t-8 -21l-4 -6h-45zM217 470v259h86v-259
h-86zM160 460h200l48 -46q-47 -45 -113 -45h-70q-66 0 -113 45z" />
    <glyph glyph-name="estimated" unicode="&#x212e;" 
d="M211 739q-24 0 -41 -17t-17 -40v-217l-47 -43q-46 48 -46 115v128q0 68 48.5 116.5t116.5 48.5h70q68 0 116.5 -48.5t48.5 -116.5v-128q0 -67 -46 -115l-47 43v217q0 23 -17 40t-41 17h-98zM408 45q-47 -45 -113 -45h-70q-68 0 -116.5 48.5t-48.5 116.5v128q0 67 46 115
l47 -43v-217q0 -23 17 -40t41 -17h149zM162 461h196l50 -46l-50 -46h-196l-50 46z" />
    <glyph glyph-name="arrowleft" unicode="&#x2190;" 
d="M204 830h74v-62l-102 -303l-47 -43q-38 60 -15 132zM204 0l-90 276q-23 72 15 132l47 -43l102 -303v-62h-74z" />
    <glyph glyph-name="arrowup" unicode="&#x2191;" 
d="M204 830h74v-62l-102 -303l-47 -43q-38 60 -15 132zM362 830l90 -276q23 -72 -15 -132l-47 43l-102 303v62h74z" />
    <glyph glyph-name="arrowright" unicode="&#x2192;" 
d="M339 830l90 -276q23 -72 -15 -132l-47 43l-102 303v62h74zM339 0h-74v62l102 303l47 43q38 -60 15 -132z" />
    <glyph glyph-name="arrowdown" unicode="&#x2193;" 
d="M362 0h-74v62l102 303l47 43q38 -60 15 -132zM204 0l-90 276q-23 72 15 132l47 -43l102 -303v-62h-74z" />
    <glyph glyph-name="minus" unicode="&#x2212;" 
d="M456 370h-96l-69 13h-62l-69 -13h-96v90h96l69 -13h62l69 13h96v-90z" />
    <glyph glyph-name="lessequal" unicode="&#x2264;" 
d="M64 0v79h392v-79h-392zM360 464l-70 -13l15 70l98 98l56 -56zM403 211l-98 98l-15 70l70 -13l99 -99z" />
    <glyph glyph-name="greaterequal" unicode="&#x2265;" 
d="M64 0v79h392v-79h-392zM230 451l-70 13l-99 99l56 56l98 -98zM215 309l-98 -98l-56 56l99 99l70 13z" />
    <glyph glyph-name="uni24CA" unicode="&#x24ca;" 
d="M121 594l32 -38v-39q0 -24 17 -40.5t41 -16.5h98q24 0 41 16.5t17 40.5v39l32 38h45q16 -18 16 -60q0 -68 -48.5 -116.5t-116.5 -48.5h-70q-68 0 -116.5 48.5t-48.5 116.5q0 19 4 34t8 20l4 6h45zM460 830v-165q0 -19 -4 -34t-8 -21l-4 -6h-45l-32 39v187h93zM60 830h93
v-187l-32 -39h-45q-16 19 -16 61v165z" />
    <glyph glyph-name="uni25B2" unicode="&#x25b2;" 
d="M437 81q-21 -35 -57.5 -58t-84.5 -23h-25l93 392zM83 81l74 311l92 -392h-24q-48 0 -84.5 23t-57.5 58zM260 0l-98 415l98 415l98 -415z" />
    <glyph glyph-name="uni25BA" unicode="&#x25ba;" 
d="M141 807l113 -139l-194 -239v236q0 48 23 84.5t58 57.5zM260 661l200 -246l-200 -246l-200 246zM141 23q-35 21 -58 57.5t-23 84.5v236l194 -239z" />
    <glyph glyph-name="uni25BC" unicode="&#x25bc;" 
d="M250 830l-93 -392l-74 311q21 35 57.5 58t84.5 23h25zM437 749l-74 -311l-92 392h24q48 0 84.5 -23t57.5 -58zM260 0l-98 415l98 415l98 -415z" />
    <glyph glyph-name="uni25C4" unicode="&#x25c4;" 
d="M379 807q35 -21 58 -57.5t23 -84.5v-236l-194 239zM60 415l200 246l200 -246l-200 -246zM379 23l-113 139l194 239v-236q0 -48 -23 -84.5t-58 -57.5z" />
    <glyph glyph-name="uni2776" unicode="&#x2776;" 
d="M270 -85h-20q-104 0 -177 73.5t-73 176.5v500q0 103 73 176.5t177 73.5h20q104 0 177 -73.5t73 -176.5v-500q0 -103 -73 -176.5t-177 -73.5zM367 465l47 -43q46 48 46 115v128q0 68 -45 113l-48 -46v-267zM414 408l-47 -43v-267l48 -46q45 45 45 113v128q0 67 -46 115z
" />
    <glyph glyph-name="uni2777" unicode="&#x2777;" 
d="M270 -85h-20q-104 0 -177 73.5t-73 176.5v500q0 103 73 176.5t177 73.5h20q104 0 177 -73.5t73 -176.5v-500q0 -103 -73 -176.5t-177 -73.5zM153 365l-47 43q-46 -48 -46 -115v-128q0 -68 45 -113l48 46v267zM160 739h200l48 46q-47 45 -113 45h-70q-66 0 -113 -45z
M367 465l47 -43q46 48 46 115v128q0 68 -45 113l-48 -46v-267zM358 461h-196l-50 -46l50 -46h196l50 46zM360 91h-200l-48 -46q47 -45 113 -45h70q66 0 113 45z" />
    <glyph glyph-name="uni2778" unicode="&#x2778;" 
d="M270 -85h-20q-104 0 -177 73.5t-73 176.5v500q0 103 73 176.5t177 73.5h20q104 0 177 -73.5t73 -176.5v-500q0 -103 -73 -176.5t-177 -73.5zM160 739h200l48 46q-47 45 -113 45h-70q-66 0 -113 -45zM367 465l47 -43q46 48 46 115v128q0 68 -45 113l-48 -46v-267zM358 461
h-196l-50 -46l50 -46h196l50 46zM360 91h-200l-48 -46q47 -45 113 -45h70q66 0 113 45zM414 408l-47 -43v-267l48 -46q45 45 45 113v128q0 67 -46 115z" />
    <glyph glyph-name="uni2779" unicode="&#x2779;" 
d="M270 -85h-20q-104 0 -177 73.5t-73 176.5v500q0 103 73 176.5t177 73.5h20q104 0 177 -73.5t73 -176.5v-500q0 -103 -73 -176.5t-177 -73.5zM367 465l47 -43q46 48 46 115v128q0 68 -45 113l-48 -46v-267zM358 461h-196l-50 -46l50 -46h196l50 46zM106 422l47 43v267
l-48 46q-45 -45 -45 -113v-128q0 -67 46 -115zM414 408l-47 -43v-267l48 -46q45 45 45 113v128q0 67 -46 115z" />
    <glyph glyph-name="uni277A" unicode="&#x277a;" 
d="M270 -85h-20q-104 0 -177 73.5t-73 176.5v500q0 103 73 176.5t177 73.5h20q104 0 177 -73.5t73 -176.5v-500q0 -103 -73 -176.5t-177 -73.5zM414 408l-47 -43v-267l48 -46q45 45 45 113v128q0 67 -46 115zM160 739h200l48 46q-47 45 -113 45h-70q-66 0 -113 -45zM358 461
h-196l-50 -46l50 -46h196l50 46zM106 422l47 43v267l-48 46q-45 -45 -45 -113v-128q0 -67 46 -115zM360 91h-200l-48 -46q47 -45 113 -45h70q66 0 113 45z" />
    <glyph glyph-name="uni277B" unicode="&#x277b;" 
d="M270 -85h-20q-104 0 -177 73.5t-73 176.5v500q0 103 73 176.5t177 73.5h20q104 0 177 -73.5t73 -176.5v-500q0 -103 -73 -176.5t-177 -73.5zM106 422l47 43v267l-48 46q-45 -45 -45 -113v-128q0 -67 46 -115zM160 739h200l48 46q-47 45 -113 45h-70q-66 0 -113 -45z
M358 461h-196l-50 -46l50 -46h196l50 46zM360 91h-200l-48 -46q47 -45 113 -45h70q66 0 113 45zM414 408l-47 -43v-267l48 -46q45 45 45 113v128q0 67 -46 115zM153 365l-47 43q-46 -48 -46 -115v-128q0 -68 45 -113l48 46v267z" />
    <glyph glyph-name="uni277C" unicode="&#x277c;" 
d="M270 -85h-20q-104 0 -177 73.5t-73 176.5v500q0 103 73 176.5t177 73.5h20q104 0 177 -73.5t73 -176.5v-500q0 -103 -73 -176.5t-177 -73.5zM160 739h200l48 46q-47 45 -113 45h-70q-66 0 -113 -45zM367 465l47 -43q46 48 46 115v128q0 68 -45 113l-48 -46v-267zM106 422
l47 43v267l-48 46q-45 -45 -45 -113v-128q0 -67 46 -115zM414 408l-47 -43v-267l48 -46q45 45 45 113v128q0 67 -46 115z" />
    <glyph glyph-name="uni277D" unicode="&#x277d;" 
d="M270 -85h-20q-104 0 -177 73.5t-73 176.5v500q0 103 73 176.5t177 73.5h20q104 0 177 -73.5t73 -176.5v-500q0 -103 -73 -176.5t-177 -73.5zM160 739h200l48 46q-47 45 -113 45h-70q-66 0 -113 -45zM367 465l47 -43q46 48 46 115v128q0 68 -45 113l-48 -46v-267zM358 461
h-196l-50 -46l50 -46h196l50 46zM106 422l47 43v267l-48 46q-45 -45 -45 -113v-128q0 -67 46 -115zM360 91h-200l-48 -46q47 -45 113 -45h70q66 0 113 45zM414 408l-47 -43v-267l48 -46q45 45 45 113v128q0 67 -46 115zM153 365l-47 43q-46 -48 -46 -115v-128q0 -68 45 -113
l48 46v267z" />
    <glyph glyph-name="uni277E" unicode="&#x277e;" 
d="M270 -85h-20q-104 0 -177 73.5t-73 176.5v500q0 103 73 176.5t177 73.5h20q104 0 177 -73.5t73 -176.5v-500q0 -103 -73 -176.5t-177 -73.5zM360 91h-200l-48 -46q47 -45 113 -45h70q66 0 113 45zM160 739h200l48 46q-47 45 -113 45h-70q-66 0 -113 -45zM367 465l47 -43
q46 48 46 115v128q0 68 -45 113l-48 -46v-267zM358 461h-196l-50 -46l50 -46h196l50 46zM106 422l47 43v267l-48 46q-45 -45 -45 -113v-128q0 -67 46 -115zM414 408l-47 -43v-267l48 -46q45 45 45 113v128q0 67 -46 115z" />
    <glyph glyph-name="uni277F" unicode="&#x277f;" 
d="M270 -85h-20q-104 0 -177 73.5t-73 176.5v500q0 103 73 176.5t177 73.5h20q104 0 177 -73.5t73 -176.5v-500q0 -103 -73 -176.5t-177 -73.5zM414 408l-47 -43v-267l48 -46q45 45 45 113v128q0 67 -46 115zM160 739h200l48 46q-47 45 -113 45h-70q-66 0 -113 -45zM367 465
l47 -43q46 48 46 115v128q0 68 -45 113l-48 -46v-267zM106 422l47 43v267l-48 46q-45 -45 -45 -113v-128q0 -67 46 -115zM360 91h-200l-48 -46q47 -45 113 -45h70q66 0 113 45zM153 365l-47 43q-46 -48 -46 -115v-128q0 -68 45 -113l48 46v267z" />
    <glyph glyph-name="altcaron" 
d="M310 687h-45v63l21 23q15 16 25.5 20t35.5 4h45v-30z" />
    <glyph glyph-name="commaaccent" 
d="M216 -10h88q0 -65 -45 -110h-43v110z" />
    <glyph glyph-name="zeroslash" 
d="M163 121l142 608h52v-20l-142 -608h-52v20zM367 365l47 43q46 -48 46 -115v-128q0 -68 -45 -113l-48 46v267zM360 739h-200l-48 46q47 45 113 45h70q66 0 113 -45zM414 422l-47 43v267l48 46q45 -45 45 -113v-128q0 -67 -46 -115zM153 465l-47 -43q-46 48 -46 115v128
q0 68 45 113l48 -46v-267zM160 91h200l48 -46q-47 -45 -113 -45h-70q-66 0 -113 45zM106 408l47 -43v-267l-48 -46q-45 45 -45 113v128q0 67 46 115z" />
    <glyph glyph-name="period.alt" horiz-adv-x="130" 
d="M20 45q0 19 13 32t32 13t32 -13t13 -32q0 -18 -13 -31.5t-32 -13.5t-32 13.5t-13 31.5z" />
    <glyph glyph-name="comma.alt" horiz-adv-x="130" 
d="M58 -70h-31v131h76v-18q0 -68 -45 -113z" />
    <glyph glyph-name="colon.alt" horiz-adv-x="130" 
d="M20 207q0 19 13 32t32 13t32 -13t13 -32t-13 -32t-32 -13t-32 13t-13 32zM20 623q0 19 13 32t32 13t32 -13t13 -32t-13 -32t-32 -13t-32 13t-13 32z" />
    <glyph glyph-name="A.alt" 
d="M360 739h-200l-48 46q47 45 113 45h70q66 0 113 -45zM414 422l-47 43v267l48 46q45 -45 45 -113v-128q0 -67 -46 -115zM162 461h196l50 -46l-50 -46h-196l-50 46zM153 465l-47 -43q-46 48 -46 115v128q0 68 45 113l48 -46v-267zM367 365l47 43q46 -48 46 -115v-128
q0 -68 -45 -113l-48 46v267zM106 408l47 -43v-267l-48 -46q-45 45 -45 113v128q0 67 46 115z" />
    <glyph glyph-name="B.alt" 
d="M367 365l47 43q46 -48 46 -115v-128q0 -68 -45 -113l-48 46v267zM360 739h-200l-48 46q47 45 113 45h70q66 0 113 -45zM414 422l-47 43v267l48 46q45 -45 45 -113v-128q0 -67 -46 -115zM162 461h196l50 -46l-50 -46h-196l-50 46zM153 465l-47 -43q-46 48 -46 115v128
q0 68 45 113l48 -46v-267zM160 91h200l48 -46q-47 -45 -113 -45h-70q-66 0 -113 45zM106 408l47 -43v-267l-48 -46q-45 45 -45 113v128q0 67 46 115z" />
    <glyph glyph-name="D.alt" 
d="M106 408l47 -43v-267l-48 -46q-45 45 -45 113v128q0 67 46 115zM360 739h-200l-48 46q47 45 113 45h70q66 0 113 -45zM414 422l-47 43v267l48 46q45 -45 45 -113v-128q0 -67 -46 -115zM153 465l-47 -43q-46 48 -46 115v128q0 68 45 113l48 -46v-267zM160 91h200l48 -46
q-47 -45 -113 -45h-70q-66 0 -113 45zM367 365l47 43q46 -48 46 -115v-128q0 -68 -45 -113l-48 46v267z" />
    <glyph glyph-name="K.alt" 
d="M162 461h196l50 -46l-50 -46h-196l-50 46zM414 422l-47 43v267l48 46q45 -45 45 -113v-128q0 -67 -46 -115zM153 465l-47 -43q-46 48 -46 115v128q0 68 45 113l48 -46v-267zM367 365l47 43q46 -48 46 -115v-128q0 -68 -45 -113l-48 46v267zM106 408l47 -43v-267l-48 -46
q-45 45 -45 113v128q0 67 46 115z" />
    <glyph glyph-name="M.alt" 
d="M360 739h-200l-48 46q47 45 113 45h70q66 0 113 -45zM162 461h196l50 -46l-50 -46h-196l-50 46zM367 365l47 43q46 -48 46 -115v-128q0 -68 -45 -113l-48 46v267zM106 408l47 -43v-267l-48 -46q-45 45 -45 113v128q0 67 46 115z" />
    <glyph glyph-name="N.alt" 
d="M414 422l-47 43v267l48 46q45 -45 45 -113v-128q0 -67 -46 -115zM360 739h-200l-48 46q47 45 113 45h70q66 0 113 -45zM153 465l-47 -43q-46 48 -46 115v128q0 68 45 113l48 -46v-267zM367 365l47 43q46 -48 46 -115v-128q0 -68 -45 -113l-48 46v267zM106 408l47 -43
v-267l-48 -46q-45 45 -45 113v128q0 67 46 115z" />
    <glyph glyph-name="R.alt" 
d="M106 408l47 -43v-267l-48 -46q-45 45 -45 113v128q0 67 46 115zM360 739h-200l-48 46q47 45 113 45h70q66 0 113 -45zM414 422l-47 43v267l48 46q45 -45 45 -113v-128q0 -67 -46 -115zM153 465l-47 -43q-46 48 -46 115v128q0 68 45 113l48 -46v-267z" />
    <glyph glyph-name="V.alt" 
d="M367 365l47 43q46 -48 46 -115v-128q0 -68 -45 -113l-48 46v267zM414 422l-47 43v267l48 46q45 -45 45 -113v-128q0 -67 -46 -115zM153 465l-47 -43q-46 48 -46 115v128q0 68 45 113l48 -46v-267zM160 91h200l48 -46q-47 -45 -113 -45h-70q-66 0 -113 45zM106 408l47 -43
v-267l-48 -46q-45 45 -45 113v128q0 67 46 115z" />
    <glyph glyph-name="W.alt" 
d="M360 739h-200l-48 46q47 45 113 45h70q66 0 113 -45zM160 91h200l48 -46q-47 -45 -113 -45h-70q-66 0 -113 45zM367 365l47 43q46 -48 46 -115v-128q0 -68 -45 -113l-48 46v267zM106 408l47 -43v-267l-48 -46q-45 45 -45 113v128q0 67 46 115z" />
    <glyph glyph-name="X.alt" 
d="M414 422l-47 43v267l48 46q45 -45 45 -113v-128q0 -67 -46 -115zM162 461h196l50 -46l-50 -46h-196l-50 46zM153 465l-47 -43q-46 48 -46 115v128q0 68 45 113l48 -46v-267zM367 365l47 43q46 -48 46 -115v-128q0 -68 -45 -113l-48 46v267zM106 408l47 -43v-267l-48 -46
q-45 45 -45 113v128q0 67 46 115z" />
    <glyph glyph-name="AE.alt" horiz-adv-x="1040" 
d="M360 739h-200l-48 46q47 45 113 45h70q66 0 113 -45zM414 422l-47 43v267l48 46q45 -45 45 -113v-128q0 -67 -46 -115zM162 461h196l50 -46l-50 -46h-196l-50 46zM153 465l-47 -43q-46 48 -46 115v128q0 68 45 113l48 -46v-267zM367 365l47 43q46 -48 46 -115v-128
q0 -68 -45 -113l-48 46v267zM106 408l47 -43v-267l-48 -46q-45 45 -45 113v128q0 67 46 115zM880 739h-200l-48 46q47 45 113 45h70q66 0 113 -45zM682 461h196l50 -46l-50 -46h-196l-50 46zM673 465l-47 -43q-46 48 -46 115v128q0 68 45 113l48 -46v-267zM680 91h200
l48 -46q-47 -45 -113 -45h-70q-66 0 -113 45zM626 408l47 -43v-267l-48 -46q-45 45 -45 113v128q0 67 46 115z" />
    <glyph glyph-name="k.alt" 
d="M414 422l-47 43v267l48 46q45 -45 45 -113v-128q0 -67 -46 -115zM162 461h196l50 -46l-50 -46h-196l-50 46zM153 465l-47 -43q-46 48 -46 115v128q0 68 45 113l48 -46v-267zM367 365l47 43q46 -48 46 -115v-128q0 -68 -45 -113l-48 46v267zM106 408l47 -43v-267l-48 -46
q-45 45 -45 113v128q0 67 46 115z" />
    <glyph glyph-name="m.alt" 
d="M360 739h-200l-48 46q47 45 113 45h70q66 0 113 -45zM162 461h196l50 -46l-50 -46h-196l-50 46zM367 365l47 43q46 -48 46 -115v-128q0 -68 -45 -113l-48 46v267zM106 408l47 -43v-267l-48 -46q-45 45 -45 113v128q0 67 46 115z" />
    <glyph glyph-name="v.alt" 
d="M160 91h200l48 -46q-47 -45 -113 -45h-70q-66 0 -113 45zM367 365l47 43q46 -48 46 -115v-128q0 -68 -45 -113l-48 46v267zM106 408l47 -43v-267l-48 -46q-45 45 -45 113v128q0 67 46 115zM414 422l-47 43v267l48 46q45 -45 45 -113v-128q0 -67 -46 -115zM153 465
l-47 -43q-46 48 -46 115v128q0 68 45 113l48 -46v-267z" />
    <glyph glyph-name="w.alt" 
d="M360 739h-200l-48 46q47 45 113 45h70q66 0 113 -45zM160 91h200l48 -46q-47 -45 -113 -45h-70q-66 0 -113 45zM367 365l47 43q46 -48 46 -115v-128q0 -68 -45 -113l-48 46v267zM106 408l47 -43v-267l-48 -46q-45 45 -45 113v128q0 67 46 115z" />
    <glyph glyph-name="x.alt" 
d="M414 422l-47 43v267l48 46q45 -45 45 -113v-128q0 -67 -46 -115zM162 461h196l50 -46l-50 -46h-196l-50 46zM153 465l-47 -43q-46 48 -46 115v128q0 68 45 113l48 -46v-267zM367 365l47 43q46 -48 46 -115v-128q0 -68 -45 -113l-48 46v267zM106 408l47 -43v-267l-48 -46
q-45 45 -45 113v128q0 67 46 115z" />
    <glyph glyph-name="T.alt" 
d="M160 91h200l48 -46q-47 -45 -113 -45h-70q-66 0 -113 45zM162 461h196l50 -46l-50 -46h-196l-50 46zM153 465l-47 -43q-46 48 -46 115v128q0 68 45 113l48 -46v-267zM106 408l47 -43v-267l-48 -46q-45 45 -45 113v128q0 67 46 115z" />
    <glyph glyph-name="I.alt" 
d="M414 422l-47 43v267l48 46q45 -45 45 -113v-128q0 -67 -46 -115zM367 365l47 43q46 -48 46 -115v-128q0 -68 -45 -113l-48 46v267z" />
    <glyph glyph-name="i.alt" 
d="M414 422l-47 43v267l48 46q45 -45 45 -113v-128q0 -67 -46 -115zM367 365l47 43q46 -48 46 -115v-128q0 -68 -45 -113l-48 46v267z" />
    <glyph glyph-name="apple" 
d="M265 739v91h30q66 0 113 -45l-48 -46h-95zM162 461h196l50 -46l-50 -46h-196l-50 46zM160 91h200l48 -46q-47 -45 -113 -45h-70q-66 0 -113 45zM367 365l47 43q46 -48 46 -115v-128q0 -68 -45 -113l-48 46v267zM106 408l47 -43v-267l-48 -46q-45 45 -45 113v128
q0 67 46 115zM217 471v258h86v-258h-86z" />
    <glyph glyph-name="Ymacron" 
d="M160 91h200l48 -46q-47 -45 -113 -45h-70q-66 0 -113 45zM414 422l-47 43v267l48 46q45 -45 45 -113v-128q0 -67 -46 -115zM162 461h196l50 -46l-50 -46h-196l-50 46zM153 465l-47 -43q-46 48 -46 115v128q0 68 45 113l48 -46v-267zM367 365l47 43q46 -48 46 -115v-128
q0 -68 -45 -113l-48 46v267zM118 849v11q20 33 55 53t77 20h20q42 0 77 -20t55 -53v-11h-284z" />
    <glyph glyph-name="ymacron" 
d="M414 422l-47 43v267l48 46q45 -45 45 -113v-128q0 -67 -46 -115zM162 461h196l50 -46l-50 -46h-196l-50 46zM153 465l-47 -43q-46 48 -46 115v128q0 68 45 113l48 -46v-267zM160 91h200l48 -46q-47 -45 -113 -45h-70q-66 0 -113 45zM367 365l47 43q46 -48 46 -115v-128
q0 -68 -45 -113l-48 46v267zM118 849v11q20 33 55 53t77 20h20q42 0 77 -20t55 -53v-11h-284z" />
    <glyph glyph-name="B.ss01" 
d="M360 739h-200l-48 46q47 45 113 45h70q66 0 113 -45zM414 422l-47 43v267l48 46q45 -45 45 -113v-128q0 -67 -46 -115zM310 461h48l50 -46l-50 -46h-48l-50 46zM160 91h200l48 -46q-47 -45 -113 -45h-70q-66 0 -113 45zM367 365l47 43q46 -48 46 -115v-128
q0 -68 -45 -113l-48 46v267zM252 420h-35v309h86v-263zM217 410h35l51 -46v-263h-86v309z" />
    <glyph glyph-name="D.ss01" 
d="M360 739h-200l-48 46q47 45 113 45h70q66 0 113 -45zM414 422l-47 43v267l48 46q45 -45 45 -113v-128q0 -67 -46 -115zM160 91h200l48 -46q-47 -45 -113 -45h-70q-66 0 -113 45zM367 365l47 43q46 -48 46 -115v-128q0 -68 -45 -113l-48 46v267zM252 420h-35v309h86v-263z
M217 410h35l51 -46v-263h-86v309z" />
  </font>
</defs>
</svg>
